<svg xmlns="http://www.w3.org/2000/svg" width="649.415" height="617.304" viewBox="0 0 649.415 617.304">
  <g id="Reading_list-pana" data-name="Reading list-pana" transform="translate(-33.456 -42.15)">
    <g id="freepik--background-complete--inject-4" transform="translate(33.456 42.15)">
      <path id="Path_141" data-name="Path 141" d="M109.509,381.678h67.338a8.583,8.583,0,0,0,8.583-8.583V352.38a14.46,14.46,0,0,0-14.46-14.46H109Z" transform="translate(0.894 92.338)" fill="#ebebeb"/>
      <path id="Path_142" data-name="Path 142" d="M198.285,381.092H65.907a6.517,6.517,0,0,1-6.517-6.517h0A6.517,6.517,0,0,1,65.849,368H198.227a6.532,6.532,0,0,1,6.517,6.532h0A6.532,6.532,0,0,1,198.285,381.092Z" transform="translate(-21.664 106.015)" fill="#ebebeb"/>
      <path id="Path_143" data-name="Path 143" d="M50.656,248.9l72.852-1.295,46.245,174.783-98.629.989L33.942,270.158A17.195,17.195,0,0,1,50.656,248.9Z" transform="translate(-33.456 51.273)" fill="#e0e0e0"/>
      <path id="Path_144" data-name="Path 144" d="M77.046,376.99,55.24,503.666h5.979L89.877,376.99Z" transform="translate(-23.551 110.103)" fill="#ebebeb"/>
      <path id="Path_145" data-name="Path 145" d="M112.789,376.99,89.63,503.666h5.964l30.04-126.676Z" transform="translate(-7.913 110.103)" fill="#e0e0e0"/>
      <path id="Path_146" data-name="Path 146" d="M148.645,376.99l25.836,126.676H168.5L135.8,376.99Z" transform="translate(13.08 110.103)" fill="#ebebeb"/>
      <path id="Path_147" data-name="Path 147" d="M89.63,247.61l36.048,174.972h27.639l-28.89-154.606A24.919,24.919,0,0,0,99.944,247.61Z" transform="translate(-7.913 51.273)" fill="#ebebeb"/>
      <rect id="Rectangle_23" data-name="Rectangle 23" width="99.72" height="4.844" transform="translate(293.274 362.512) rotate(180)" fill="#ebebeb"/>
      <path id="Path_148" data-name="Path 148" d="M269.476,313.258l18.707-70.088h-77.87L193.38,313.258Z" transform="translate(39.262 49.255)" fill="#ebebeb"/>
      <path id="Path_149" data-name="Path 149" d="M196.59,306.934h69.549L282.33,245.4H212.417Z" transform="translate(40.722 50.269)" fill="#e0e0e0"/>
      <rect id="Rectangle_24" data-name="Rectangle 24" width="5.033" height="240.433" transform="translate(173.814 376.87)" fill="#f5f5f5"/>
      <rect id="Rectangle_25" data-name="Rectangle 25" width="5.033" height="239.735" transform="translate(178.847 377.568)" fill="#ebebeb"/>
      <rect id="Rectangle_26" data-name="Rectangle 26" width="5.033" height="240.433" transform="translate(484.059 376.87)" fill="#ebebeb"/>
      <rect id="Rectangle_27" data-name="Rectangle 27" width="5.033" height="239.735" transform="translate(489.092 377.568)" fill="#e0e0e0"/>
      <rect id="Rectangle_28" data-name="Rectangle 28" width="382.514" height="19.726" transform="translate(152.066 362.905)" fill="#e0e0e0"/>
      <rect id="Rectangle_29" data-name="Rectangle 29" width="168.397" height="32.644" transform="translate(318.179 382.631)" fill="#ebebeb"/>
      <path id="Path_150" data-name="Path 150" d="M317.566,316.023a3.753,3.753,0,1,1-3.753-3.753A3.753,3.753,0,0,1,317.566,316.023Z" transform="translate(92.317 80.675)" fill="#e0e0e0"/>
      <rect id="Rectangle_30" data-name="Rectangle 30" width="209.623" height="9.339" transform="translate(5.592 137.557)" fill="#e0e0e0"/>
      <rect id="Rectangle_31" data-name="Rectangle 31" width="8.51" height="31.873" transform="translate(39.909 142.052)" fill="#e0e0e0"/>
      <rect id="Rectangle_32" data-name="Rectangle 32" width="8.51" height="31.873" transform="translate(166.948 142.052)" fill="#e0e0e0"/>
      <path id="Path_151" data-name="Path 151" d="M126.8,81.383c.349-.335,2.677,1.367,5.746,4.859a55.643,55.643,0,0,1,4.859,6.532,62.261,62.261,0,0,1,7.855,18.387,55.81,55.81,0,0,1,1.455,8.074c.422,4.655,0,7.535-.436,7.55-1.091.087-2.095-11.172-7.521-23.653S126,82.139,126.8,81.383Z" transform="translate(8.96 -24.329)" fill="#ebebeb"/>
      <path id="Path_152" data-name="Path 152" d="M144.494,153.944c-.48,0-1.8-6.1-3.026-16.191s-2.269-24.09-2.662-39.568-.247-29.5,0-39.641.771-16.395,1.28-16.395.96,6.27,1.309,16.395.611,24.1,1.018,39.539,1.018,29.356,1.586,39.452S145.018,153.944,144.494,153.944Z" transform="translate(14.337 -42.15)" fill="#ebebeb"/>
      <path id="Path_153" data-name="Path 153" d="M165.136,58.513c.466.262-1.455,4.568-3.971,11.754s-5.819,17.224-8.859,28.439-5.455,21.5-6.9,28.992-2.037,12.161-2.575,12.147-.858-4.844,0-12.554A197.633,197.633,0,0,1,148.742,97.7a197.963,197.963,0,0,1,9.994-28.425C161.907,62.223,164.685,58.266,165.136,58.513Z" transform="translate(16.038 -34.714)" fill="#ebebeb"/>
      <path id="Path_154" data-name="Path 154" d="M122.9,110.16v12.321a26.185,26.185,0,0,0,25.966,26.3h0a26.185,26.185,0,0,0,25.981-26.3V110.16Z" transform="translate(7.215 -11.226)" fill="#e0e0e0"/>
      <path id="Path_155" data-name="Path 155" d="M175.3,117.434c0,.218-11.739.378-26.185.378s-26.185-.16-26.185-.378,11.739-.364,26.185-.364S175.3,117.23,175.3,117.434Z" transform="translate(7.228 -8.084)" fill="#fafafa"/>
      <path id="Path_156" data-name="Path 156" d="M175.3,119.8c0,.2-11.739.364-26.185.364S122.93,120,122.93,119.8s11.739-.378,26.185-.378S175.3,119.58,175.3,119.8Z" transform="translate(7.228 -7.015)" fill="#fafafa"/>
      <rect id="Rectangle_33" data-name="Rectangle 33" width="11.652" height="57.228" transform="matrix(0.005, 1, -1, 0.005, 89.228, 95.637)" fill="#e0e0e0"/>
      <rect id="Rectangle_34" data-name="Rectangle 34" width="18.097" height="63.774" transform="matrix(0.005, 1, -1, 0.005, 96.082, 119.429)" fill="#f5f5f5"/>
      <path id="Path_157" data-name="Path 157" d="M91.242,142.257a64.542,64.542,0,0,1-.32-9.048,64.545,64.545,0,0,1,.32-9.048,68.955,68.955,0,0,1,.305,9.048,68.955,68.955,0,0,1-.305,9.048Z" transform="translate(-7.344 -4.86)" fill="#e0e0e0"/>
      <path id="Path_158" data-name="Path 158" d="M93.112,142.257a64.545,64.545,0,0,1-.32-9.048,64.545,64.545,0,0,1,.32-9.048,68.953,68.953,0,0,1,.305,9.048,68.955,68.955,0,0,1-.305,9.048Z" transform="translate(-6.493 -4.86)" fill="#e0e0e0"/>
      <path id="Path_159" data-name="Path 159" d="M62.426,142.257a68.952,68.952,0,0,1-.305-9.048,68.95,68.95,0,0,1,.305-9.048,64.545,64.545,0,0,1,.32,9.048A64.545,64.545,0,0,1,62.426,142.257Z" transform="translate(-20.438 -4.86)" fill="#e0e0e0"/>
      <path id="Path_160" data-name="Path 160" d="M64.282,142.257a64.546,64.546,0,0,1-.32-9.048,64.545,64.545,0,0,1,.32-9.048,68.953,68.953,0,0,1,.305,9.048,68.952,68.952,0,0,1-.305,9.048Z" transform="translate(-19.602 -4.86)" fill="#e0e0e0"/>
      <path id="Path_161" data-name="Path 161" d="M68.19,130.676c0-.175,6.43-.306,14.358-.306s14.372.131,14.372.306-6.43.32-14.372.32S68.19,130.85,68.19,130.676Z" transform="translate(-17.662 -2.036)" fill="#e0e0e0"/>
      <rect id="Rectangle_35" data-name="Rectangle 35" width="11.652" height="78.699" transform="matrix(0.005, 1, -1, 0.005, 120.057, 107.016)" fill="#ebebeb"/>
      <ellipse id="Ellipse_4" data-name="Ellipse 4" cx="3.724" cy="3.768" rx="3.724" ry="3.768" transform="translate(105.137 109.685)" fill="#e0e0e0"/>
      <rect id="Rectangle_36" data-name="Rectangle 36" width="2.328" height="52.689" transform="translate(98.635 112.289) rotate(90)" fill="#e0e0e0"/>
      <rect id="Rectangle_37" data-name="Rectangle 37" width="104.244" height="151.1" transform="translate(524.849 24.686)" fill="#e0e0e0"/>
      <rect id="Rectangle_38" data-name="Rectangle 38" width="104.244" height="151.1" transform="translate(519.626 24.686)" fill="#f5f5f5"/>
      <rect id="Rectangle_39" data-name="Rectangle 39" width="78.35" height="118.369" transform="translate(532.573 41.052)" fill="#fff"/>
      <path id="Path_162" data-name="Path 162" d="M477.929,188.917V180.16c0-5.673,0-13.936-.073-24.381,0-20.875-.073-50.435-.131-85.246l.262.262H399.651l.291-.291V188.888l-.233-.233,57.024.116h.175l-57.17.116h-.218V70.01h78.889v.247c0,34.913-.1,64.5-.131,85.42,0,10.416,0,18.664-.073,24.323v8.088A1.869,1.869,0,0,1,477.929,188.917Z" transform="translate(132.995 -29.482)" fill="#e0e0e0"/>
      <path id="Path_163" data-name="Path 163" d="M466.958,59.12a16.934,16.934,0,0,1-1.848,2.735c-1.222,1.615-2.909,3.826-4.9,6.2s-3.8,4.5-5.15,5.993a17.052,17.052,0,0,1-2.3,2.357,20.972,20.972,0,0,1,1.993-2.6l5.019-6.124,4.975-6.1a21.589,21.589,0,0,1,2.211-2.458Z" transform="translate(157.203 -34.434)" fill="#e0e0e0"/>
      <path id="Path_164" data-name="Path 164" d="M453.69,151.48a96.233,96.233,0,0,0,13.674,17.093" transform="translate(157.626 7.563)" fill="#fff"/>
      <path id="Path_165" data-name="Path 165" d="M467.364,168.573a14.545,14.545,0,0,1-2.386-2.167,75.444,75.444,0,0,1-9.688-12.118,15.4,15.4,0,0,1-1.6-2.808,22.728,22.728,0,0,1,1.92,2.575c1.149,1.615,2.764,3.826,4.655,6.182s3.68,4.364,5,5.892a22.412,22.412,0,0,1,2.095,2.444Z" transform="translate(157.626 7.563)" fill="#e0e0e0"/>
      <path id="Path_166" data-name="Path 166" d="M390.65,168.175l13.6-16.845" transform="translate(128.962 7.495)" fill="#fff"/>
      <path id="Path_167" data-name="Path 167" d="M404.271,151.33a103.156,103.156,0,0,1-6.619,8.612,105.686,105.686,0,0,1-7.041,8.234c-.116-.087,2.909-3.942,6.6-8.6A99.26,99.26,0,0,1,404.271,151.33Z" transform="translate(128.942 7.495)" fill="#e0e0e0"/>
      <path id="Path_168" data-name="Path 168" d="M390.66,59.12a102.364,102.364,0,0,1,6.633,7.928,96.77,96.77,0,0,1,6.182,8.277,89.635,89.635,0,0,1-6.633-7.928,90.754,90.754,0,0,1-6.182-8.277Z" transform="translate(128.966 -34.434)" fill="#e0e0e0"/>
      <rect id="Rectangle_40" data-name="Rectangle 40" width="26.228" height="74.481" transform="translate(560.285 65.098)" fill="#e0e0e0"/>
    </g>
    <g id="freepik--Floor--inject-4" transform="translate(33.986 656.777)">
      <path id="Path_169" data-name="Path 169" d="M682.705,465.038c0,.2-145.281.378-324.4.378s-324.486-.175-324.486-.378,145.252-.378,324.486-.378S682.705,464.82,682.705,465.038Z" transform="translate(-33.82 -464.66)" fill="#263238"/>
    </g>
    <g id="freepik--Plant--inject-4" transform="translate(451.283 387.715)">
      <path id="Path_170" data-name="Path 170" d="M406.648,403.457c13.994,4.888,32.236.524,44.208-8.219s20.584-21.268,28.221-33.967c3.244-5.426,6.43-11.07,7.463-17.311s-.495-13.267-5.324-17.34c-7.521-6.328-19.042-3.113-27.639,1.746a95.138,95.138,0,0,0-46.987,75.092" transform="translate(-281.618 -259.965)" fill="#90caf9"/>
      <path id="Path_171" data-name="Path 171" d="M417,408.3c8.408,11.085,22.839,16,36.746,16.656s27.639-3.186,40.6-8.175c4.713-1.8,9.877-4.291,11.492-9.063a11.638,11.638,0,0,0-2.458-10.707A24.134,24.134,0,0,0,494,390.623c-12.787-5.44-27.421-5.7-40.877-2.211S427.925,399.7,417,408.3" transform="translate(-276.884 -231.318)" fill="#90caf9"/>
      <path id="Path_172" data-name="Path 172" d="M408.286,363.244c11.638.233,20.366-9.907,25.588-20.235a75.063,75.063,0,0,0,6.9-46.783c-1.062-5.921-3.3-12.307-8.6-15.158s-12.38-.975-16.889,3.142-6.983,9.994-8.728,15.827c-6.226,20.119-4.888,43.248,1.789,63.207" transform="translate(-283.459 -279.7)" fill="#90caf9"/>
      <path id="Path_173" data-name="Path 173" d="M386.2,420.33c19.755-33.6,23.043-74.728,11.376-111.925-1.891-6.037-5.455-12.932-11.769-13.34-6.983-.436-11.376,7.361-13.3,14.082-6.779,23.624-5.339,48.7-3.84,73.23.931,15.114,6.11,28.032,17.529,37.953" transform="translate(-299.429 -272.721)" fill="#90caf9"/>
      <path id="Path_174" data-name="Path 174" d="M386.927,407.111A80.824,80.824,0,0,0,339.009,356.3c-5.251-1.964-11.914-3.1-15.827.917s-2.648,10.518-.189,15.434c3.971,7.928,10.43,14.314,16.86,20.366,5.819,5.571,11.929,11.158,19.318,14.4s20.991,4.044,27.756-.364" transform="translate(-320.681 -245.682)" fill="#90caf9"/>
      <path id="Path_175" data-name="Path 175" d="M478.707,331.321a2.619,2.619,0,0,1-.349.305l-1.062.829-4.131,3.084-3.011,2.226c-1.076.829-2.2,1.8-3.433,2.808-2.444,2.037-5.339,4.233-8.248,7l-4.655,4.233c-1.615,1.455-3.157,3.157-4.83,4.8-3.4,3.273-6.692,7.084-10.183,11.027a217.058,217.058,0,0,0-36.091,58.392c-1.935,4.931-3.884,9.586-5.281,14.081-.727,2.24-1.542,4.364-2.138,6.473l-1.7,6.052c-1.178,3.84-1.847,7.4-2.589,10.5-.335,1.557-.7,3-.96,4.364s-.451,2.56-.64,3.68c-.393,2.153-.7,3.855-.917,5.091-.116.524-.189.96-.262,1.309s-.1.451-.131.451a2.239,2.239,0,0,1,0-.466,12.407,12.407,0,0,1,.175-1.324c.175-1.251.436-2.909.742-5.121.175-1.12.364-2.357.567-3.695s.567-2.808.887-4.364c.7-3.113,1.324-6.706,2.458-10.561.524-1.949,1.076-3.986,1.658-6.1s1.367-4.262,2.08-6.517c1.455-4.524,3.3-9.208,5.237-14.169a212.853,212.853,0,0,1,36.237-58.625c3.564-3.928,6.9-7.739,10.328-11,1.687-1.658,3.258-3.317,4.888-4.786l4.713-4.2c2.909-2.735,5.819-4.9,8.35-6.91,1.266-.989,2.4-1.935,3.506-2.749l3.055-2.167,4.248-2.909,1.12-.742C478.562,331.379,478.693,331.306,478.707,331.321Z" transform="translate(-290.034 -256.229)" fill="#263238"/>
      <path id="Path_176" data-name="Path 176" d="M504.618,396.518a7.7,7.7,0,0,1-1.367-.218c-.873-.16-2.153-.509-3.84-.785A104.739,104.739,0,0,0,400.4,428.972a108.577,108.577,0,0,0-8.83,11.376c-.989,1.455-1.644,2.531-2.153,3.273a6.947,6.947,0,0,1-.8,1.12,7.145,7.145,0,0,1,.64-1.222c.451-.771,1.062-1.949,2.007-3.375a96.789,96.789,0,0,1,8.641-11.638,102.688,102.688,0,0,1,85.275-35.422,94.564,94.564,0,0,1,14.329,2.051c1.673.335,2.909.727,3.826.945A10.331,10.331,0,0,1,504.618,396.518Z" transform="translate(-289.789 -228.267)" fill="#263238"/>
      <path id="Path_177" data-name="Path 177" d="M431.919,289.87a1.816,1.816,0,0,1-.073.524c-.087.393-.189.887-.32,1.455-.305,1.455-.742,3.331-1.295,5.819-1.135,5.019-2.909,12.263-5.048,21.21-4.364,17.893-10.678,42.536-17.267,69.826-3.273,13.66-6.226,26.708-8.728,38.608s-4.641,22.65-6.226,31.713c-.858,4.524-1.455,8.641-2.109,12.249s-1.091,6.706-1.455,9.252-.684,4.451-.9,5.819c-.116.626-.2,1.12-.262,1.455s-.1.524-.131.524a2.827,2.827,0,0,1,0-.524c0-.407.1-.9.175-1.542.175-1.455.422-3.375.742-5.819s.742-5.673,1.309-9.3,1.149-7.739,1.964-12.263c1.455-9.092,3.579-19.857,6.052-31.785s5.441-24.977,8.728-38.651c6.59-27.3,13.02-51.918,17.456-69.826l5.339-21.137c.625-2.444,1.12-4.364,1.455-5.746.16-.611.291-1.091.407-1.455a2.035,2.035,0,0,1,.189-.407Z" transform="translate(-290.029 -275.076)" fill="#263238"/>
      <path id="Path_178" data-name="Path 178" d="M391.317,475.469a1.585,1.585,0,0,1-.131-.407l-.262-1.207c-.247-1.149-.567-2.72-.975-4.684-.844-4.059-1.949-9.965-3.215-17.282-2.531-14.62-5.542-34.913-7.375-57.5-.9-11.3-1.455-22.082-1.615-31.9s-.073-18.664.233-26.083c.087-3.709.335-7.055.495-10.008s.349-5.47.553-7.535.32-3.593.436-4.757a11.161,11.161,0,0,1,.131-1.237c.029-.335,0-.422.087-.422a1.979,1.979,0,0,1,0,.436c0,.335,0,.742,0,1.237,0,1.164-.16,2.764-.276,4.771s-.291,4.6-.393,7.535-.305,6.3-.349,10.008c-.218,7.4-.247,16.234,0,26.039s.786,20.555,1.673,31.829c1.847,22.548,4.742,42.841,7.114,57.49,1.178,7.273,2.182,13.238,2.909,17.311.335,1.993.611,3.564.8,4.713.073.495.131.9.189,1.237A1.848,1.848,0,0,1,391.317,475.469Z" transform="translate(-294.77 -264.813)" fill="#263238"/>
      <path id="Path_179" data-name="Path 179" d="M412.95,456.286a6.754,6.754,0,0,1-.509-1.149l-1.295-3.389c-.291-.742-.6-1.557-.931-2.444l-1.266-2.837c-.451-1.018-.946-2.109-1.455-3.273s-1.164-2.313-1.789-3.579-1.324-2.546-2.022-3.913l-2.444-4.131c-1.586-2.909-3.637-5.819-5.615-8.917a211.582,211.582,0,0,0-14.751-19A233.575,233.575,0,0,0,363.8,386.563c-2.837-2.386-5.441-4.786-8.059-6.794L352,376.86l-3.549-2.618c-2.24-1.687-4.364-3.113-6.2-4.364s-3.448-2.342-4.786-3.142l-3.142-2.008A6.182,6.182,0,0,1,333.29,364a7,7,0,0,1,1.135.567l3.142,1.789c1.382.771,3.026,1.789,4.888,3.026s4.03,2.589,6.3,4.262l3.608,2.575,3.782,2.909c2.662,1.978,5.281,4.364,8.146,6.75a220.805,220.805,0,0,1,17.195,17.107,199.282,199.282,0,0,1,14.9,19.2c1.964,3.171,4,6.081,5.571,9,.815,1.455,1.6,2.837,2.371,4.19l1.964,3.957c.611,1.28,1.251,2.458,1.746,3.622l1.455,3.317,1.193,2.909c.32.9.6,1.731.858,2.487.466,1.455.844,2.56,1.135,3.433A4.813,4.813,0,0,1,412.95,456.286Z" transform="translate(-314.948 -241.368)" fill="#263238"/>
      <path id="Path_180" data-name="Path 180" d="M458.364,358.215c0,.146-2.4.146-6.241.349a119.908,119.908,0,0,0-14.911,1.8,115.405,115.405,0,0,0-14.547,3.8c-3.651,1.207-5.819,2.08-5.935,1.949a5.642,5.642,0,0,1,1.455-.8c.975-.48,2.415-1.091,4.233-1.775a89.422,89.422,0,0,1,29.618-5.63c1.935,0,3.506,0,4.582.087a5.367,5.367,0,0,1,1.746.218Z" transform="translate(-277.007 -244.137)" fill="#263238"/>
      <path id="Path_181" data-name="Path 181" d="M461.77,414.778c-.291.146-2.517-6.284-8.132-12.249S441.841,393.8,442,393.51a13.691,13.691,0,0,1,4.015,1.775,35.422,35.422,0,0,1,14.256,15.362,14.429,14.429,0,0,1,1.5,4.131Z" transform="translate(-265.518 -227.95)" fill="#263238"/>
      <path id="Path_182" data-name="Path 182" d="M425.175,308.62c.189.2-3.448,3.811-7.4,8.728s-6.793,9.15-7.026,9,2.269-4.67,6.3-9.6a40.808,40.808,0,0,1,8.132-8.132Z" transform="translate(-279.735 -266.55)" fill="#263238"/>
      <path id="Path_183" data-name="Path 183" d="M412.483,294.46c.262,0,1.062,3.448,1.8,7.8s1.135,7.9.887,7.943-1.062-3.448-1.8-7.8S412.236,294.5,412.483,294.46Z" transform="translate(-278.972 -272.988)" fill="#263238"/>
      <path id="Path_184" data-name="Path 184" d="M390.958,338.911c.218.116-2.357,5.557-5.819,12.161s-6.372,11.856-6.6,11.74,2.357-5.572,5.819-12.176S390.725,338.794,390.958,338.911Z" transform="translate(-294.381 -252.777)" fill="#263238"/>
      <path id="Path_185" data-name="Path 185" d="M372.01,323.821c.233-.116,2.429,3.826,4.9,8.8s4.291,9.092,4.073,9.208-2.429-3.826-4.9-8.8S371.7,323.937,372.01,323.821Z" transform="translate(-297.356 -259.639)" fill="#263238"/>
      <path id="Path_186" data-name="Path 186" d="M355.3,376.006c0,.276-3.986-.495-8.874-.829s-8.874-.146-8.9-.422,3.986-.873,8.976-.509S355.355,375.773,355.3,376.006Z" transform="translate(-313.024 -236.762)" fill="#263238"/>
      <path id="Path_187" data-name="Path 187" d="M364.91,421.05l11,57.81a8.088,8.088,0,0,0,7.957,6.59h32.484a8.088,8.088,0,0,0,7.986-6.779l9.557-57.621Z" transform="translate(-300.57 -215.427)" fill="#263238"/>
      <path id="Path_188" data-name="Path 188" d="M368.489,439.845h62.1l3.3-18.795H364.91Z" transform="translate(-300.57 -215.427)" fill="#455a64"/>
      <path id="Path_189" data-name="Path 189" d="M367.37,433.97l1.295,6.852h59.861l.946-6.852Z" transform="translate(-299.451 -209.553)" fill="#fafafa"/>
    </g>
    <g id="freepik--Character--inject-4" transform="translate(116.271 114.223)">
      <path id="Path_190" data-name="Path 190" d="M200.332,464.712l3.753-16,31.174.771-2.6,22.766-1.978.16c-8.83.6-44.921,2.415-50.915.7C173.289,471.171,200.332,464.712,200.332,464.712Z" transform="translate(-50.2 70.641)" fill="#90caf9"/>
      <g id="Group_6" data-name="Group 6" transform="translate(170.848 533.458)" opacity="0.4">
        <path id="Path_191" data-name="Path 191" d="M207.83,467.721a11.1,11.1,0,0,1,4-6.881,10.765,10.765,0,0,1,7.448-2.415l.116,8.946Z" transform="translate(-207.83 -458.407)"/>
      </g>
      <g id="Group_7" data-name="Group 7" transform="translate(128.497 538.99)" opacity="0.4">
        <path id="Path_192" data-name="Path 192" d="M187.115,462.21s-9.5,2.909-8.292,4.364,37.822,1.091,53.824-.524v-.713l-42.623.9S188.977,462.254,187.115,462.21Z" transform="translate(-178.717 -462.21)"/>
      </g>
      <path id="Path_193" data-name="Path 193" d="M233.084,464.37a2.4,2.4,0,0,1-.553.073l-1.571.116-5.819.32c-4.9.247-11.638.48-19.2.582s-14.3,0-19.217,0l-5.819-.175H178.78a2.313,2.313,0,0,1,.553,0h26.592c7.564,0,14.285-.305,19.188-.48l5.819-.189h1.586Z" transform="translate(-50.191 77.762)" fill="#263238"/>
      <path id="Path_194" data-name="Path 194" d="M187.462,466.915a13.178,13.178,0,0,0-1.12-2.764,12.86,12.86,0,0,0-2.022-2.211,5.183,5.183,0,0,1,3.142,4.975Z" transform="translate(-47.672 76.657)" fill="#263238"/>
      <path id="Path_195" data-name="Path 195" d="M193.476,462.839a4.108,4.108,0,0,1-1.033-1.222c-.48-.742-.786-1.367-.7-1.455s.553.495,1.033,1.222S193.578,462.752,193.476,462.839Z" transform="translate(-44.303 75.845)" fill="#263238"/>
      <path id="Path_196" data-name="Path 196" d="M195.335,461.558a3.183,3.183,0,0,1-1.135-.742c-.553-.48-.96-.96-.887-1.033s.582.247,1.135.742A3.348,3.348,0,0,1,195.335,461.558Z" transform="translate(-43.587 75.672)" fill="#263238"/>
      <path id="Path_197" data-name="Path 197" d="M196.846,458.976a3.65,3.65,0,0,1-1.673.247,3.942,3.942,0,0,1-1.673-.16,3.767,3.767,0,0,1,1.673-.233,3.811,3.811,0,0,1,1.673.145Z" transform="translate(-43.498 75.227)" fill="#263238"/>
      <path id="Path_198" data-name="Path 198" d="M197.357,457.45a4.727,4.727,0,0,1-3.8.335,11.367,11.367,0,0,1,1.906-.146,11.224,11.224,0,0,1,1.891-.189Z" transform="translate(-43.471 74.615)" fill="#263238"/>
      <path id="Path_199" data-name="Path 199" d="M194.058,460.943a6.122,6.122,0,0,1-2.066,0,12.566,12.566,0,0,1-2.2-.451,6.661,6.661,0,0,1-1.251-.509,1.135,1.135,0,0,1-.538-.6.815.815,0,0,1,.306-.829A3.782,3.782,0,0,1,193,459.6a3.593,3.593,0,0,1,.684,1.367c.087.349.087.538,0,.553a5.673,5.673,0,0,0-.96-1.746,3.637,3.637,0,0,0-1.775-1.12,3.185,3.185,0,0,0-2.444.2c-.32.233-.189.625.175.829a5.442,5.442,0,0,0,1.164.48,14,14,0,0,0,2.124.524A10.6,10.6,0,0,1,194.058,460.943Z" transform="translate(-46.005 74.934)" fill="#263238"/>
      <path id="Path_200" data-name="Path 200" d="M191.88,461.4a2.081,2.081,0,0,1-.247-1.455,3.345,3.345,0,0,1,.538-1.455,2.066,2.066,0,0,1,1.7-1.077.815.815,0,0,1,.64.946,2.153,2.153,0,0,1-.335.916,6.24,6.24,0,0,1-.96,1.266c-.64.64-1.135.887-1.164.844s.407-.378.96-1.033a6.91,6.91,0,0,0,.844-1.251c.276-.436.466-1.207,0-1.295s-1.047.466-1.353.887a3.36,3.36,0,0,0-.567,1.338,8.2,8.2,0,0,0-.058,1.367Z" transform="translate(-44.365 74.597)" fill="#263238"/>
      <path id="Path_201" data-name="Path 201" d="M219.115,458.425c0,.073-.916-.073-2.371.116a9.965,9.965,0,0,0-8.292,6.779c-.48,1.382-.509,2.313-.582,2.3a1.585,1.585,0,0,1,0-.64,8.726,8.726,0,0,1,.335-1.731,9.747,9.747,0,0,1,8.525-6.983,8.338,8.338,0,0,1,1.76,0A1.585,1.585,0,0,1,219.115,458.425Z" transform="translate(-36.979 74.965)" fill="#263238"/>
      <path id="Path_202" data-name="Path 202" d="M213.219,449.23a59.708,59.708,0,0,1,.364,6.575,58.19,58.19,0,0,1,0,6.575,55.594,55.594,0,0,1-.364-6.561A58.532,58.532,0,0,1,213.219,449.23Z" transform="translate(-34.574 70.878)" fill="#263238"/>
      <path id="Path_203" data-name="Path 203" d="M207.924,462.708a26.185,26.185,0,0,1-9.354.2c0-.116,2.109,0,4.684,0S207.924,462.592,207.924,462.708Z" transform="translate(-41.193 76.995)" fill="#263238"/>
      <path id="Path_204" data-name="Path 204" d="M209.62,462.645c.087.073-.16.436-.364.916s-.32.916-.436.9-.16-.495.073-1.047S209.562,462.557,209.62,462.645Z" transform="translate(-36.575 76.971)" fill="#263238"/>
      <path id="Path_205" data-name="Path 205" d="M211.313,460.595c.087.073-.116.407-.451.756s-.655.553-.727.48.131-.407.451-.756S211.24,460.522,211.313,460.595Z" transform="translate(-35.941 76.039)" fill="#263238"/>
      <path id="Path_206" data-name="Path 206" d="M213.829,459.7c0,.1-.451.116-.916.276s-.8.436-.887.364.175-.524.756-.727S213.858,459.594,213.829,459.7Z" transform="translate(-35.082 75.556)" fill="#263238"/>
      <path id="Path_207" data-name="Path 207" d="M215.212,459.2c0,.1-.145.276-.407.378s-.509.1-.553,0,.145-.276.407-.378S215.168,459.1,215.212,459.2Z" transform="translate(-34.065 75.378)" fill="#263238"/>
      <path id="Path_208" data-name="Path 208" d="M291.379,465.221l.1-17.078-32-.393-.407,25.006,1.993.145c8.815.6,44.921,2.415,50.842.7C318.495,471.68,291.379,465.221,291.379,465.221Z" transform="translate(-13.683 70.205)" fill="#90caf9"/>
      <g id="Group_8" data-name="Group 8" transform="translate(245.358 533.532)" opacity="0.4">
        <path id="Path_209" data-name="Path 209" d="M270.615,467.771a11.129,11.129,0,0,0-4-6.881,10.837,10.837,0,0,0-7.448-2.415l-.116,8.946Z" transform="translate(-259.05 -458.458)"/>
      </g>
      <g id="Group_9" data-name="Group 9" transform="translate(245.401 539.063)" opacity="0.4">
        <path id="Path_210" data-name="Path 210" d="M304.612,462.26s9.5,2.909,8.292,4.364-37.75,1.091-53.824-.524v-.727l42.623.917S302.75,462.318,304.612,462.26Z" transform="translate(-259.08 -462.26)"/>
      </g>
      <path id="Path_211" data-name="Path 211" d="M258.76,464.43h.553l1.571.116,5.819.335c4.9.233,11.638.466,19.2.582s14.3,0,19.217-.073l5.819-.16h2.138a2.427,2.427,0,0,0-.553,0H285.9c-7.506,0-14.285-.305-19.188-.466l-5.819-.2h-1.586Z" transform="translate(-13.824 77.789)" fill="#263238"/>
      <path id="Path_212" data-name="Path 212" d="M288.4,466.961a13.512,13.512,0,0,1,1.12-2.764,11.812,11.812,0,0,1,2.022-2.2,4.19,4.19,0,0,0-2.342,1.993,4.364,4.364,0,0,0-.8,2.968Z" transform="translate(-0.358 76.684)" fill="#263238"/>
      <path id="Path_213" data-name="Path 213" d="M281.945,462.835a4.168,4.168,0,0,0,1.033-1.207c.48-.727.786-1.367.7-1.455s-.553.48-1.033,1.207A3.691,3.691,0,0,0,281.945,462.835Z" transform="translate(-3.289 75.849)" fill="#263238"/>
      <path id="Path_214" data-name="Path 214" d="M280.173,461.629c.073.073.582-.247,1.149-.742s.946-.946.873-1.033-.582.247-1.135.742S280.1,461.527,280.173,461.629Z" transform="translate(-4.092 75.702)" fill="#263238"/>
      <path id="Path_215" data-name="Path 215" d="M279.07,459.06a4.014,4.014,0,0,0,1.673.233,3.681,3.681,0,0,0,1.673-.16,3.986,3.986,0,0,0-1.658-.233A3.767,3.767,0,0,0,279.07,459.06Z" transform="translate(-4.589 75.26)" fill="#263238"/>
      <path id="Path_216" data-name="Path 216" d="M278.71,457.51a4.685,4.685,0,0,0,3.782.335,10.183,10.183,0,0,0-1.891-.16A9.156,9.156,0,0,0,278.71,457.51Z" transform="translate(-4.753 74.642)" fill="#263238"/>
      <path id="Path_217" data-name="Path 217" d="M282.71,461a5.687,5.687,0,0,0,2.066,0,11.34,11.34,0,0,0,2.2-.451,7.668,7.668,0,0,0,1.251-.495,1.222,1.222,0,0,0,.524-.64.815.815,0,0,0-.306-.829,3.782,3.782,0,0,0-4.67,1.047,3.462,3.462,0,0,0-.7,1.367,1.235,1.235,0,0,0,0,.553,5.673,5.673,0,0,1,.96-1.746,3.74,3.74,0,0,1,1.775-1.12,3.186,3.186,0,0,1,2.444.2c.32.247.189.626-.175.844a5.815,5.815,0,0,1-1.164.466,13.369,13.369,0,0,1-2.124.538C283.5,460.942,282.71,460.942,282.71,461Z" transform="translate(-2.934 74.949)" fill="#263238"/>
      <path id="Path_218" data-name="Path 218" d="M283.907,461.446a2.08,2.08,0,0,0,.247-1.455,3.4,3.4,0,0,0-.538-1.455,2.066,2.066,0,0,0-1.7-1.076.829.829,0,0,0-.64.945,2.284,2.284,0,0,0,.335.931,6.533,6.533,0,0,0,.96,1.251c.64.64,1.135.887,1.164.844s-.407-.364-.96-1.033a6.746,6.746,0,0,1-.844-1.236c-.276-.436-.466-1.222,0-1.309s1.033.466,1.338.887a3.361,3.361,0,0,1,.567,1.338A8.144,8.144,0,0,1,283.907,461.446Z" transform="translate(-3.592 74.62)" fill="#263238"/>
      <path id="Path_219" data-name="Path 219" d="M259.28,458.475a12.6,12.6,0,0,1,2.371.116,10.008,10.008,0,0,1,8.292,6.794c.48,1.367.509,2.3.582,2.284a1.585,1.585,0,0,0,0-.64,7.826,7.826,0,0,0-.335-1.731,9.921,9.921,0,0,0-3.171-4.815,10.038,10.038,0,0,0-5.353-2.167,8.334,8.334,0,0,0-1.76,0,2.62,2.62,0,0,0-.626.16Z" transform="translate(-13.588 74.987)" fill="#263238"/>
      <path id="Path_220" data-name="Path 220" d="M261.823,449.28a60.048,60.048,0,0,0-.364,6.575,58.635,58.635,0,0,0,0,6.59,55.7,55.7,0,0,0,.364-6.575A58.633,58.633,0,0,0,261.823,449.28Z" transform="translate(-12.639 70.9)" fill="#263238"/>
      <path id="Path_221" data-name="Path 221" d="M269.84,462.762a26.184,26.184,0,0,0,9.354.2c0-.1-2.109,0-4.684-.073S269.855,462.646,269.84,462.762Z" transform="translate(-8.786 77.013)" fill="#263238"/>
      <path id="Path_222" data-name="Path 222" d="M265.536,462.693c-.087.073.16.436.364.931s.32.9.436.9.175-.509-.073-1.062S265.594,462.621,265.536,462.693Z" transform="translate(-10.752 76.995)" fill="#263238"/>
      <path id="Path_223" data-name="Path 223" d="M263.936,460.656c-.087.073.116.407.451.742s.655.553.727.48-.131-.407-.451-.742S264.038,460.569,263.936,460.656Z" transform="translate(-11.48 76.065)" fill="#263238"/>
      <path id="Path_224" data-name="Path 224" d="M261.61,459.746c0,.116.451.116.916.291s.8.422.887.349-.175-.524-.756-.727S261.581,459.644,261.61,459.746Z" transform="translate(-12.529 75.578)" fill="#263238"/>
      <path id="Path_225" data-name="Path 225" d="M260,459.254c0,.1.145.276.407.378s.509.116.553,0-.145-.262-.407-.378S260,459.167,260,459.254Z" transform="translate(-13.26 75.401)" fill="#263238"/>
      <path id="Path_226" data-name="Path 226" d="M339.179,245.32,324.617,553.237l-39.961.946L287.8,287.2,228,554.692,193.97,553.15l53.359-307.2Z" transform="translate(-43.285 -21.841)" fill="#263238"/>
      <path id="Path_227" data-name="Path 227" d="M268.525,248.18a34.064,34.064,0,0,1-.364,5.062c-.335,3.113-.844,7.4-1.455,12.147a49.778,49.778,0,0,1-1.106,6.692,9.427,9.427,0,0,1-2.909,4.786,7.274,7.274,0,0,1-3.389,1.673,2.91,2.91,0,0,1-1.382,0,8.612,8.612,0,0,0,6.968-6.692,59.191,59.191,0,0,0,1.018-6.6c.626-4.728,1.222-9.019,1.7-12.1a29.383,29.383,0,0,1,.916-4.961Z" transform="translate(-14.206 -20.541)" fill="#455a64"/>
      <path id="Path_228" data-name="Path 228" d="M258.639,249.73c.116.073-.262.582,0,1.382a1.586,1.586,0,0,0,.829.989,1.353,1.353,0,0,0,1.455-.335,1.324,1.324,0,0,0,.407-1.455,1.658,1.658,0,0,0-.946-.887,2.82,2.82,0,0,0-1.382-.073c-.073-.073.422-.713,1.542-.509a2.081,2.081,0,1,1-1.455,3.884,2.08,2.08,0,0,1-1.076-1.571C257.911,250.108,258.61,249.628,258.639,249.73Z" transform="translate(-14.168 -20.257)" fill="#455a64"/>
      <path id="Path_229" data-name="Path 229" d="M241.252,255.755a8.946,8.946,0,0,1,.6-8.525c.233.087-.393,1.92-.538,4.233S241.5,255.624,241.252,255.755Z" transform="translate(-22.152 -20.972)" fill="#455a64"/>
      <path id="Path_230" data-name="Path 230" d="M245.186,255.464a10.445,10.445,0,0,1,.291-8.874,36.79,36.79,0,0,1-.291,4.364,37.985,37.985,0,0,1,0,4.51Z" transform="translate(-20.383 -21.263)" fill="#455a64"/>
      <path id="Path_231" data-name="Path 231" d="M278.745,255.178a28.531,28.531,0,0,1,.1-4.6,29.094,29.094,0,0,1,0-4.611,12.482,12.482,0,0,1-.131,9.208Z" transform="translate(-4.759 -21.545)" fill="#455a64"/>
      <path id="Path_232" data-name="Path 232" d="M283.015,254.847c-.233-.087.436-2.109.509-4.684s-.436-4.641-.2-4.713a7.273,7.273,0,0,1,1.033,4.728A7.419,7.419,0,0,1,283.015,254.847Z" transform="translate(-2.818 -21.782)" fill="#455a64"/>
      <path id="Path_233" data-name="Path 233" d="M246.65,149.72Z" transform="translate(-19.331 -65.311)" fill="#90caf9"/>
      <path id="Path_234" data-name="Path 234" d="M293.552,122.106c1.629-1.935,2.909-5.382,1.906-7.71,1.949-1,2.124-2.735,2.124-4.917a13.4,13.4,0,0,0-1.891-6.212,18.009,18.009,0,0,0-7.026-7.7,9.354,9.354,0,0,0-9.994.436,12.118,12.118,0,0,0-17.355-1.222,12.857,12.857,0,0,1-2.633,2.4c-1.731.96-3.855.6-5.819.786a10.183,10.183,0,0,0-8.466,14.2,11.085,11.085,0,0,0-4.7,8.481,32.468,32.468,0,0,0,1.135,9.936c.9,4.03,1.92,8.263,4.771,11.245a11.71,11.71,0,0,0,7.477,3.535,11.929,11.929,0,0,0,10.474-4.931" transform="translate(-22.504 -91.695)" fill="#263238"/>
      <path id="Path_235" data-name="Path 235" d="M248.477,186.051,280.8,184.6c.189-3.433-1.571-24.73-1.571-24.73s12.22-1.891,12.38-14.111-1.978-40.266-1.978-40.266h0a42.477,42.477,0,0,0-42.666,5.353l-1.8,1.455Z" transform="translate(-20.008 -86.992)" fill="#b78876"/>
      <path id="Path_236" data-name="Path 236" d="M273.6,143.114a28.439,28.439,0,0,1-16-4.524s3.768,8.728,16,7.7Z" transform="translate(-14.352 -70.372)" fill="#aa6550"/>
      <path id="Path_237" data-name="Path 237" d="M248.729,117.9c-.2-.087-8.394-2.488-8.117,5.819s8.6,6.372,8.6,6.124S248.729,117.9,248.729,117.9Z" transform="translate(-22.079 -79.955)" fill="#b78876"/>
      <path id="Path_238" data-name="Path 238" d="M245.894,125.969a2.15,2.15,0,0,1-.393.233,1.455,1.455,0,0,1-1.076,0,3.579,3.579,0,0,1-1.775-3.186,4.683,4.683,0,0,1,.349-2.095,1.7,1.7,0,0,1,1.047-1.149.742.742,0,0,1,.873.378c.116.233.073.393.116.407s.175-.145.1-.495a.975.975,0,0,0-.349-.509,1.076,1.076,0,0,0-.815-.189,2.066,2.066,0,0,0-1.455,1.353,4.887,4.887,0,0,0-.436,2.342,3.782,3.782,0,0,0,2.24,3.535,1.571,1.571,0,0,0,1.324-.262C245.88,126.115,245.923,125.984,245.894,125.969Z" transform="translate(-21.412 -79.12)" fill="#aa6550"/>
      <path id="Path_239" data-name="Path 239" d="M274.967,118.093a1.731,1.731,0,0,1-1.673,1.76,1.673,1.673,0,0,1-1.8-1.571,1.746,1.746,0,0,1,1.673-1.76,1.658,1.658,0,0,1,1.8,1.571Z" transform="translate(-8.036 -80.409)" fill="#263238"/>
      <path id="Path_240" data-name="Path 240" d="M276.305,116.823c-.2.233-1.527-.756-3.4-.742s-3.259.946-3.462.713.116-.509.713-.946a4.844,4.844,0,0,1,2.779-.858,4.611,4.611,0,0,1,2.72.873C276.218,116.314,276.422,116.721,276.305,116.823Z" transform="translate(-8.996 -81.103)" fill="#263238"/>
      <path id="Path_241" data-name="Path 241" d="M262.327,118.393a1.731,1.731,0,0,1-1.673,1.76,1.673,1.673,0,0,1-1.8-1.571,1.746,1.746,0,0,1,1.687-1.76,1.658,1.658,0,0,1,1.789,1.571Z" transform="translate(-13.783 -80.272)" fill="#263238"/>
      <path id="Path_242" data-name="Path 242" d="M263.63,117.063c-.218.233-1.542-.756-3.419-.742s-3.259.946-3.462.713.116-.509.727-.946a4.787,4.787,0,0,1,2.764-.858,4.611,4.611,0,0,1,2.72.873C263.543,116.554,263.732,116.961,263.63,117.063Z" transform="translate(-14.767 -80.993)" fill="#263238"/>
      <path id="Path_243" data-name="Path 243" d="M266.417,130.957a13.209,13.209,0,0,1,3.055-.553c.48,0,.931-.145,1.018-.466a2.692,2.692,0,0,0-.32-1.455l-1.455-3.651a64.51,64.51,0,0,1-3.186-9.543,61.779,61.779,0,0,1,3.942,9.266l1.367,3.68a2.778,2.778,0,0,1,.247,1.877,1.207,1.207,0,0,1-.786.7,2.91,2.91,0,0,1-.815.116A11.638,11.638,0,0,1,266.417,130.957Z" transform="translate(-10.746 -80.966)" fill="#263238"/>
      <path id="Path_244" data-name="Path 244" d="M262.445,127c.305,0,.32,2.022,2.066,3.477s3.913,1.222,3.928,1.455-.495.407-1.455.422a5.048,5.048,0,0,1-3.273-1.135,4.481,4.481,0,0,1-1.6-2.909C262.082,127.422,262.314,127,262.445,127Z" transform="translate(-12.302 -75.642)" fill="#263238"/>
      <path id="Path_245" data-name="Path 245" d="M264.468,111.87c-.189.509-2.051.276-4.262.538s-3.986.873-4.277.407c-.131-.218.175-.7.9-1.193A7.114,7.114,0,0,1,260,110.517a7,7,0,0,1,3.331.393C264.148,111.244,264.556,111.637,264.468,111.87Z" transform="translate(-15.125 -83.161)" fill="#263238"/>
      <path id="Path_246" data-name="Path 246" d="M275.669,113.107c-.335.436-1.629,0-3.186,0s-2.909.291-3.171-.16c-.131-.218.073-.64.655-1.047a4.6,4.6,0,0,1,5.12.16C275.64,112.467,275.814,112.9,275.669,113.107Z" transform="translate(-9.044 -82.827)" fill="#263238"/>
      <path id="Path_247" data-name="Path 247" d="M244.787,113.162c.16,3.549-.626,7.521,0,11.012.1.538,1.455,1.949,1.6,2.473.713,3.084,1.993,4.364,3.84,1.222a27.741,27.741,0,0,0,1.455-6.022l2.226-11.288a19.537,19.537,0,0,0,9.3,2.211,9.514,9.514,0,0,0,7.928-4.684,9.863,9.863,0,0,0,15.289,2.008,4.117,4.117,0,0,0,5.441,1.149,4.888,4.888,0,0,0,1.993-5.382c-.844-2.982-4.044-4.6-7.012-5.47-11.638-3.419-24.468-.742-34.913,5.382a17.791,17.791,0,0,0-4.219,3.186c-1.193,1.295-2.837,2.909-2.909,4.6" transform="translate(-20.29 -88.425)" fill="#263238"/>
      <path id="Path_248" data-name="Path 248" d="M267.9,126.673a11.374,11.374,0,0,0,1.018-1.557,7.622,7.622,0,0,0,.873-4.8,7.274,7.274,0,1,0-8.234,8.234,7.637,7.637,0,0,0,4.8-.858c1.033-.582,1.455-1.076,1.542-1.018s-.087.145-.305.378a6.168,6.168,0,0,1-1.091.887,7.535,7.535,0,0,1-5.019,1.149,7.914,7.914,0,1,1,8.83-8.83,7.506,7.506,0,0,1-1.135,5,5.814,5.814,0,0,1-.887,1.106Q267.947,126.688,267.9,126.673Z" transform="translate(-15.738 -81.861)" fill="#455a64"/>
      <path id="Path_249" data-name="Path 249" d="M281.178,126.674a11.378,11.378,0,0,0,1.018-1.557,7.637,7.637,0,0,0,.858-4.8,7.274,7.274,0,1,0-8.234,8.234,7.637,7.637,0,0,0,4.8-.858c1.033-.582,1.455-1.076,1.557-1.018s-.087.145-.305.378a5.82,5.82,0,0,1-1.106.887,7.521,7.521,0,0,1-5,1.149,7.914,7.914,0,1,1,8.815-8.83,7.506,7.506,0,0,1-1.135,5,5.82,5.82,0,0,1-.887,1.106A1.172,1.172,0,0,1,281.178,126.674Z" transform="translate(-9.709 -81.862)" fill="#455a64"/>
      <path id="Path_250" data-name="Path 250" d="M269.56,118.518c0,.218-.96.378-2.153.378s-2.168-.16-2.168-.378.975-.378,2.168-.378S269.56,118.315,269.56,118.518Z" transform="translate(-10.878 -79.67)" fill="#455a64"/>
      <path id="Path_251" data-name="Path 251" d="M245.8,118.226a29.094,29.094,0,0,1,6.648-.611,30.346,30.346,0,0,1,6.677.16,28.672,28.672,0,0,1-6.648.6A29.864,29.864,0,0,1,245.8,118.226Z" transform="translate(-19.717 -79.96)" fill="#455a64"/>
      <path id="Path_252" data-name="Path 252" d="M264.038,117.568,253.594,113.8l-9.892,3.433-13.689,14.314-8.9,8.5,14.547,6.459,7.7-3.069,12.263-8.35,6.939-13.092s-1.978-.931-4.2,2.2l-2.08,2.778-1.978-7.564v-2.24l6.139,1.877a3.229,3.229,0,0,0,3.491-1.018Z" transform="translate(-30.944 -81.644)" fill="#b78876"/>
      <path id="Path_253" data-name="Path 253" d="M237.391,124a3.743,3.743,0,0,1,.9,1.658,11.638,11.638,0,0,1-.567,8.917c-.538,1.047-1.033,1.586-1.106,1.527a25.051,25.051,0,0,0,1.455-5.979,24.469,24.469,0,0,0-.684-6.124Z" transform="translate(-23.891 -77.006)" fill="#aa6550"/>
      <path id="Path_254" data-name="Path 254" d="M237.679,125.575a19.858,19.858,0,0,1,3.8-.9h.087a1.353,1.353,0,0,1,.625,1.455,4.233,4.233,0,0,1-.655,1.455,1.556,1.556,0,0,0-.262,1.324,3.055,3.055,0,0,0,1.033,1.222h-.451a8.393,8.393,0,0,0,2.648-2.56c1.018-1.615-.145-3.317-.771-4.873a5.82,5.82,0,0,0-.509-1,.931.931,0,0,0-.815-.175l-2.066.32a23.277,23.277,0,0,1-4.131.465,22.183,22.183,0,0,1,4.044-.989l2.066-.407a1.542,1.542,0,0,1,1.382.32,4.611,4.611,0,0,1,.655,1.178c.349.786.771,1.542,1.091,2.473a3.709,3.709,0,0,1-.276,3.055,8.917,8.917,0,0,1-2.909,2.793l-.233.16-.218-.189a3.724,3.724,0,0,1-1.207-1.557,2.168,2.168,0,0,1,.364-1.862,3.9,3.9,0,0,0,.626-1.266.873.873,0,0,0-.276-.931h.16a20.566,20.566,0,0,1-3.8.495Z" transform="translate(-24.078 -78.435)" fill="#aa6550"/>
      <path id="Path_255" data-name="Path 255" d="M245.768,127.817a1.2,1.2,0,0,0,.669.465,1.28,1.28,0,0,0,1.629-.9,4.364,4.364,0,0,0-.611-3.229c-.524-1.222-1.062-2.677-1.687-4s-2.24-1.106-3.549-.96-2.531.305-3.535.465a19.96,19.96,0,0,1-3.273.48,11.479,11.479,0,0,1,3.171-1c1-.233,2.211-.466,3.564-.64a9.644,9.644,0,0,1,2.2-.116,2.56,2.56,0,0,1,2.08,1.455c.713,1.455,1.164,2.909,1.688,4.1a11.292,11.292,0,0,1,.611,1.877,2.91,2.91,0,0,1-.16,1.8,1.8,1.8,0,0,1-1.091,1.076,1.455,1.455,0,0,1-1.149-.087C245.738,128.253,245.738,127.8,245.768,127.817Z" transform="translate(-24.442 -79.571)" fill="#aa6550"/>
      <path id="Path_256" data-name="Path 256" d="M249.426,125.882a11.477,11.477,0,0,1-1-2.793c-.276-.96-.582-1.993-.887-3.069-.175-.567-.335-1.222-.509-1.789a2.008,2.008,0,0,0-1.149-1.207,6.1,6.1,0,0,0-3.579.349l-3.1.829a11.957,11.957,0,0,1-2.909.567,11.637,11.637,0,0,1,2.764-1.091l3.04-.975a6.357,6.357,0,0,1,4.073-.378,2.735,2.735,0,0,1,1.556,1.658c.2.684.32,1.266.48,1.862l.742,3.113a11.348,11.348,0,0,1,.48,2.924Z" transform="translate(-24.041 -80.575)" fill="#aa6550"/>
      <path id="Path_257" data-name="Path 257" d="M227.23,131.6a1.774,1.774,0,0,1,.218-.276c.2-.2.422-.466.7-.771l2.72-2.909,9.921-10.488h0l9.892-3.477h.073l10.459,3.753h.146v.684h0a3.331,3.331,0,0,1-1.658,1.106,4.64,4.64,0,0,1-2.051,0h0l-4.291-1.309-1.833-.567.291-.2v2.168c.669,2.589,1.338,5.121,1.978,7.564H253.4c.9-1.193,1.731-2.357,2.648-3.491a3.768,3.768,0,0,1,3.9-1.542h.2l-.116.218-6.968,13.092h0l-9.019,6.052-2.6,1.731c-.567.378-.873.553-.873.553s.276-.233.815-.626l2.429-1.687,8.932-6.168h0l6.9-13.092.1.291a2.4,2.4,0,0,0-1.833.175,5.382,5.382,0,0,0-1.571,1.266c-.858,1.077-1.716,2.3-2.6,3.477l-.276.364-.116-.436c-.655-2.458-1.309-4.975-1.993-7.564h0v-2.546l.291.087,1.833.567,4.291,1.309h0a4.175,4.175,0,0,0,1.847,0,2.909,2.909,0,0,0,1.455-.96v-.291l.146.2-10.445-3.782h.145l-9.907,3.419h0l-10.037,10.372-2.779,2.909-.742.742A1.265,1.265,0,0,1,227.23,131.6Z" transform="translate(-28.161 -81.698)" fill="#aa6550"/>
      <path id="Path_258" data-name="Path 258" d="M230.364,207.152l-.684-50.26,13.092-4.364c4.117-.786,8.117-2.284,12.961-2.488h0a25.516,25.516,0,0,0,31.145.393l.436-.335c1.251.145,2.909.306,4.99.553h.407a30.549,30.549,0,0,1,14.3,5.7h0l65.054,38.841,38.2-29.094,19.348,15.173s-50.042,50.042-54.9,51.235c-3.36.829-36.746-17.456-56.981-28.687.829,12.118,5.353,79.47,5.135,88.737H229.913l-.073-42.477V238.515Z" transform="translate(-27.047 -65.165)" fill="#90caf9"/>
      <path id="Path_259" data-name="Path 259" d="M289.383,167.26a9.742,9.742,0,0,0-.073,2.24c0,1.615.116,3.651.175,6.052.189,5.121.524,12.176.946,19.973s.844,14.853,1.207,19.959c.189,2.4.349,4.364.466,6.037a11.864,11.864,0,0,0,.305,2.226,9.645,9.645,0,0,0,.073-2.226c0-1.629-.116-3.651-.189-6.066-.189-5.121-.509-12.176-.931-19.973s-.844-14.867-1.207-19.973c-.189-2.4-.349-4.364-.48-6.037A11.257,11.257,0,0,0,289.383,167.26Z" transform="translate(0.052 -57.335)" fill="#263238"/>
      <path id="Path_260" data-name="Path 260" d="M346.793,166.8c-.218.233,3.986,4.2,9.354,8.888s9.848,8.321,10.023,8.117-4.044-4.131-9.412-8.83c-2.677-2.342-5.135-4.364-6.939-5.906A20.238,20.238,0,0,0,346.793,166.8Z" transform="translate(26.201 -57.544)" fill="#263238"/>
      <path id="Path_261" data-name="Path 261" d="M343.742,169.08c-.175.2,4.088,4.19,9.47,8.961,2.691,2.386,5.164,4.5,6.983,5.993a15.727,15.727,0,0,0,3.084,2.284,15.62,15.62,0,0,0-2.633-2.779c-1.716-1.629-4.117-3.826-6.823-6.212s-5.164-4.5-7-5.979A15.2,15.2,0,0,0,343.742,169.08Z" transform="translate(24.815 -56.508)" fill="#263238"/>
      <path id="Path_262" data-name="Path 262" d="M239.932,126.11S202.749,160.863,191.01,175.1c-5.31,6.415-6.517,16-2.24,23.13h0a17.66,17.66,0,0,0,16.38,8.583l44.776-3,3.389-37.255-27.072,8.452,31.538-32.978Z" transform="translate(-46.827 -76.046)" fill="#90caf9"/>
      <path id="Path_263" data-name="Path 263" d="M229.887,210.949c-.218,0-.276-8-.145-17.849s.407-17.82.626-17.82.262,7.986.131,17.835S230.149,210.949,229.887,210.949Z" transform="translate(-27.051 -53.688)" fill="#263238"/>
      <path id="Path_264" data-name="Path 264" d="M233.618,150.92a8.814,8.814,0,0,1-1.12,1.455l-3.288,3.68c-2.808,3.1-6.779,7.4-11.318,12.278l.087-.16c-.436,1.571-.975,3.186-1.586,4.8a46.915,46.915,0,0,1-4.931,9.979,22.824,22.824,0,0,1-6.59,6.27,16,16,0,0,1-5.7,2.284,9.4,9.4,0,0,1-1.658.174h-.582s.8-.116,2.182-.451a17.456,17.456,0,0,0,5.47-2.444,23.276,23.276,0,0,0,6.3-6.212,49.635,49.635,0,0,0,4.815-9.848c.6-1.6,1.12-3.2,1.571-4.742V167.9h0c4.553-4.859,8.6-9.092,11.507-12.1l3.433-3.52a10.749,10.749,0,0,1,1.411-1.353Z" transform="translate(-41.939 -64.765)" fill="#263238"/>
      <path id="Path_265" data-name="Path 265" d="M210.381,166.71a17.544,17.544,0,0,1-1.673,13.7c-.218-.087,1.047-2.909,1.455-6.779S210.148,166.739,210.381,166.71Z" transform="translate(-36.595 -57.585)" fill="#263238"/>
      <path id="Path_266" data-name="Path 266" d="M241.419,289.721a1.688,1.688,0,0,1-.2-.291l-.567-.9-2.095-3.491a60.378,60.378,0,0,1-3.1-5.673,13.849,13.849,0,0,1-1.309-8.452c.6-3.2,2.5-6.226,3.9-9.616a15.623,15.623,0,0,0,1.207-5.484,24.945,24.945,0,0,0-.625-5.979c-.844-4.059-2.429-8.234-2.837-12.845a45.8,45.8,0,0,1,1.251-14.1c1.062-4.728,2.371-9.266,3.3-13.7a66.127,66.127,0,0,0,1.018-6.575c0-1.077.145-2.153.189-3.215s0-2.124,0-3.157a118.268,118.268,0,0,0-3.651-21.821,146.381,146.381,0,0,1-2.909-14.707c-.247-1.76-.378-3.128-.436-4.059v-1.062a1.456,1.456,0,0,1,0-.364,1.364,1.364,0,0,0,.073.364,9.073,9.073,0,0,1,.145,1.047c.087.931.276,2.284.567,4.03.553,3.491,1.658,8.481,3.186,14.62a114.458,114.458,0,0,1,3.826,21.922c0,1.047,0,2.124,0,3.2s-.1,2.168-.16,3.273c-.218,2.2-.567,4.364-1.018,6.663-.931,4.48-2.24,9-3.288,13.7a45.4,45.4,0,0,0-1.251,13.863c.378,4.5,1.935,8.641,2.778,12.772a24.729,24.729,0,0,1,.6,6.153,16,16,0,0,1-1.28,5.688c-1.455,3.462-3.36,6.415-3.942,9.485a13.354,13.354,0,0,0,1.164,8.175,62.337,62.337,0,0,0,2.909,5.7l1.964,3.564.495.931A1.528,1.528,0,0,1,241.419,289.721Z" transform="translate(-25.097 -63.26)" fill="#fafafa"/>
      <path id="Path_267" data-name="Path 267" d="M254.661,153.91a1.457,1.457,0,0,1,.1.349l.233,1.033c.189.9.436,2.24.727,3.986a103.184,103.184,0,0,1,1.266,14.853,110.166,110.166,0,0,1-1.906,22.01c-1.455,8.19-3.87,17.049-4.655,26.577s.669,18.635,1.8,26.854a172.714,172.714,0,0,1,2.2,22,52.063,52.063,0,0,1-1.746,14.78l-.32,1.207L252,288.587l-.611,1.615-.378.975c-.087.218-.145.335-.145.335a1.28,1.28,0,0,1,0-.364l.32-1,.524-1.629c.1-.32.218-.655.335-1.033s.175-.786.276-1.207a54.214,54.214,0,0,0,1.455-14.707,180.749,180.749,0,0,0-2.371-21.821c-1.164-8.219-2.575-17.355-1.862-27.014s3.229-18.489,4.728-26.636a112.25,112.25,0,0,0,2.051-21.893,117.717,117.717,0,0,0-1.018-14.809c-.233-1.746-.436-3.1-.6-4a7.565,7.565,0,0,0-.145-1.047A.873.873,0,0,1,254.661,153.91Z" transform="translate(-18.104 -63.405)" fill="#fafafa"/>
      <path id="Path_268" data-name="Path 268" d="M279.677,291l-.2-.305-.538-.931a8.732,8.732,0,0,1-.742-1.6c-.116-.32-.276-.669-.393-1.062s-.2-.8-.32-1.236a23.114,23.114,0,0,1-.465-6.561,77.723,77.723,0,0,1,1.149-8.641,74.419,74.419,0,0,0,1.295-10.387,31.262,31.262,0,0,0-2.051-11.638,95.745,95.745,0,0,1-4.044-12.758,42.024,42.024,0,0,1,.276-14.387c.756-4.873,1.746-9.557,2.022-14.154a54.263,54.263,0,0,0-1.033-13.18c-1.629-8.321-3.884-15.7-4.655-22.141a41.329,41.329,0,0,1,.466-15.216,20.935,20.935,0,0,1,1.92-5.266,1.252,1.252,0,0,1-.116.364l-.378,1a30.555,30.555,0,0,0-1.135,3.957,41.969,41.969,0,0,0-.218,15.085c.815,6.372,3.128,13.7,4.8,22.082a53.94,53.94,0,0,1,1.091,13.354c-.262,4.67-1.266,9.4-2.022,14.227a41.677,41.677,0,0,0-.291,14.125,96.245,96.245,0,0,0,3.971,12.67,43.478,43.478,0,0,1,1.629,6.052,26.43,26.43,0,0,1,.393,5.906,71.667,71.667,0,0,1-1.455,10.474,79.5,79.5,0,0,0-1.251,8.554,23.639,23.639,0,0,0,.335,6.488A22.6,22.6,0,0,0,279.677,291Z" transform="translate(-8.949 -64.483)" fill="#fafafa"/>
      <path id="Path_269" data-name="Path 269" d="M285.919,157.56a1.932,1.932,0,0,1,.116.335l.276.975c.262.858.538,2.138.858,3.811a62.551,62.551,0,0,1,.567,14.343c-.349,6.052-1.527,13.194-2.618,21.108A189.541,189.541,0,0,0,283.5,224.04a350.955,350.955,0,0,0,4.19,47.016c.887,5.935,1.615,10.765,2.124,14.183.247,1.615.422,2.909.567,3.855a5.637,5.637,0,0,0,.131,1,1.575,1.575,0,0,1,0,.349,1.455,1.455,0,0,1-.1-.335,7.287,7.287,0,0,0-.189-1c-.175-.931-.407-2.211-.713-3.826-.582-3.331-1.455-8.161-2.357-14.14a326.554,326.554,0,0,1-4.364-47.1,183.869,183.869,0,0,1,1.688-26.01c1.135-7.928,2.342-15.027,2.764-21.05a65.319,65.319,0,0,0-.32-14.256c-.262-1.658-.495-2.909-.713-3.826l-.2-.989a1.031,1.031,0,0,1-.087-.349Z" transform="translate(-2.899 -61.746)" fill="#fafafa"/>
      <path id="Path_270" data-name="Path 270" d="M300.609,205.214a5.457,5.457,0,0,1-.218-1.455c-.087-.96-.189-2.357-.276-4.088-.189-3.448-.349-8.219-.364-13.5s.087-10.052.247-13.5c.087-1.731.16-3.128.247-4.088a6.474,6.474,0,0,1,.189-1.455,5.541,5.541,0,0,1,.1,1.455v17.573c0,5.164.1,9.848.146,13.485v4.088A6.635,6.635,0,0,1,300.609,205.214Z" transform="translate(4.814 -57.394)" fill="#fafafa"/>
      <path id="Path_271" data-name="Path 271" d="M311.35,170.79a10.542,10.542,0,0,1-.669,1.324,8.437,8.437,0,0,0-.844,3.84c0,1.673.349,3.71.582,5.95s.771,4.684,1.106,7.274a33.822,33.822,0,0,1,.146,7.434,18.607,18.607,0,0,1-1.455,5.935,15.537,15.537,0,0,1-2.138,3.491c-.611.756-1,1.12-1.047,1.091a33.18,33.18,0,0,0,2.691-4.786,27.974,27.974,0,0,0,1.018-13.092c-.32-2.575-.8-5.033-1.047-7.273a54.148,54.148,0,0,1-.422-6.052,8.074,8.074,0,0,1,1.12-3.971,4,4,0,0,1,.96-1.164Z" transform="translate(8.124 -55.73)" fill="#fafafa"/>
      <path id="Path_272" data-name="Path 272" d="M202.28,189.711a11.463,11.463,0,0,1,1.949,0,21.019,21.019,0,0,0,5.193-.48,12.627,12.627,0,0,0,6.284-4.19c1.935-2.2,3.869-4.83,6.008-7.477,4.248-5.353,8.117-10.183,10.954-13.616l3.375-4.073a9.922,9.922,0,0,1,1.324-1.455,9.616,9.616,0,0,1-1.091,1.6l-3.186,4.233c-2.735,3.535-6.532,8.408-10.779,13.747-2.153,2.662-4.073,5.251-6.081,7.477a12.932,12.932,0,0,1-6.677,4.248,18.009,18.009,0,0,1-5.339.247A8.511,8.511,0,0,1,202.28,189.711Z" transform="translate(-39.506 -61.355)" fill="#fafafa"/>
      <path id="Path_273" data-name="Path 273" d="M245.25,132.09a5.526,5.526,0,0,1-.349.858,17.056,17.056,0,0,1-1.251,2.328,29.094,29.094,0,0,1-6.459,7.274c-3.128,2.662-7.274,5.339-11.565,8.51s-8.946,7.055-11.739,12.583a77.189,77.189,0,0,1-4.277,8.074,23.058,23.058,0,0,1-6.168,5.921c-2.24,1.557-4.451,2.909-6.386,4.233a23.362,23.362,0,0,0-4.888,4.364,11.4,11.4,0,0,0-2.706,8.816,9.775,9.775,0,0,0,1.207,3.273l-.16-.175a2.749,2.749,0,0,1-.407-.567,7.579,7.579,0,0,1-.931-2.473,11.638,11.638,0,0,1,2.575-9.208,23.523,23.523,0,0,1,4.946-4.568c1.949-1.455,4.16-2.749,6.342-4.291A22.678,22.678,0,0,0,209,171.222a73.68,73.68,0,0,0,4.2-8c2.909-5.688,7.652-9.674,12.016-12.8s8.5-5.819,11.638-8.35A30.548,30.548,0,0,0,243.4,135.1a18.488,18.488,0,0,0,1.353-2.24,3.913,3.913,0,0,1,.495-.771Z" transform="translate(-45.527 -73.327)" fill="#fafafa"/>
      <g id="Group_10" data-name="Group 10" transform="translate(155.748 101.718)" opacity="0.3">
        <path id="Path_274" data-name="Path 274" d="M197.45,186.554a22.926,22.926,0,0,0,23.275-22.81c0-.771-.131-1.687-.815-2.037a1.542,1.542,0,0,0-1.818.626,4.83,4.83,0,0,0-.655,1.964,32,32,0,0,1-18.1,22.824" transform="translate(-197.45 -161.619)"/>
      </g>
      <g id="Group_11" data-name="Group 11" transform="translate(312.987 125.206)" opacity="0.3">
        <path id="Path_275" data-name="Path 275" d="M327.128,178.107a7.943,7.943,0,0,0-2.269,2.909c-3.157,4.975-9.4,6.983-13.572,11.128-3.186,3.186-5.732,6.953-5.746,11.463l6.823,3.1,17.747-27.639C329.95,177.8,328.19,177.409,327.128,178.107Z" transform="translate(-305.54 -177.764)"/>
      </g>
      <path id="Path_276" data-name="Path 276" d="M105.715,414.542s-23.915,5.15-11.507,34.244,4.99,37.022-3.579,39.073l65.607-.422,5.819-73.157Z" transform="translate(-90.274 54.986)" fill="#e0e0e0"/>
      <path id="Path_277" data-name="Path 277" d="M148.714,487.821a18.911,18.911,0,0,1-12.641-4.742c-5.4-4.742-12.06-13.616-13.383-29.007C119.911,421.5,101,414.547,101,414.547l56.312-.247s18.286,0,19.769,28.9c1.557,30.3,43.568,47.7,69.506,44.31Z" transform="translate(-85.558 54.995)" fill="#f5f5f5"/>
      <path id="Path_278" data-name="Path 278" d="M218.134,379.871s-29.5-3.535-32.774,61.81-52.689,61.8-52.689,61.8h98.513s20.5-4.553,15.725-50.667c-1.993-19.348,32.716-72.9,32.716-72.9Z" transform="translate(-71.158 39.324)" fill="#ebebeb"/>
      <path id="Path_279" data-name="Path 279" d="M180.695,387.258c-3.142,3.768-1.862,9.8.887,13.878s7.041,6.823,11.4,9.092,8.932,4.19,12.845,7.172c6.052,4.626,10.081,11.492,12.525,18.708a115.443,115.443,0,0,1,4.451,22.373s-3.229-54.217-12.758-69.258S186.717,380.072,180.695,387.258Z" transform="translate(-50.157 39.326)" fill="#e0e0e0"/>
      <path id="Path_280" data-name="Path 280" d="M250.917,503.466s-29.094,1.455-33.138-32.309-7.434-89.275-26.359-91.3h59.643a20.366,20.366,0,0,1,19,12.918c2.589,6.663,5.222,16.511,6.852,30.854,3.448,30.3,20.613,80.212,63.614,79.776Z" transform="translate(-44.444 39.335)" fill="#f5f5f5"/>
      <path id="Path_281" data-name="Path 281" d="M257.921,445.828c0,.2-8.728.378-19.42.378s-19.42-.175-19.42-.378,8.728-.378,19.42-.378S257.921,445.61,257.921,445.828Z" transform="translate(-31.867 69.159)" fill="#263238"/>
      <path id="Path_282" data-name="Path 282" d="M254.463,449.243a51.428,51.428,0,0,1-.32-5.717l.32.32h-5.717l.378-.378h0v5.6l-.335-.32a51.4,51.4,0,0,1,5.7.319,38.635,38.635,0,0,1-5.7.336h-.32v-5.935h0l.378-.378H254.9v.32a38.635,38.635,0,0,1-.436,5.833Z" transform="translate(-18.503 68.086)" fill="#263238"/>
      <path id="Path_283" data-name="Path 283" d="M264.046,454.438c0,.218-8.728.378-19.406.378s-19.42-.16-19.42-.378,8.728-.378,19.42-.378S264.046,454.235,264.046,454.438Z" transform="translate(-29.075 73.074)" fill="#263238"/>
      <path id="Path_284" data-name="Path 284" d="M260.631,457.852a49.556,49.556,0,0,1-.335-5.717l.335.32h-5.717l.378-.378h0v5.7l-.32-.335a49.545,49.545,0,0,1,5.717.335,40.627,40.627,0,0,1-5.717.32h-.335V452.12h0c-.349.335.451-.466.378-.378h6.008v.378a40.626,40.626,0,0,1-.393,5.732Z" transform="translate(-15.739 72.017)" fill="#263238"/>
      <path id="Path_285" data-name="Path 285" d="M252.766,424.118c0,.2-8.728.378-19.406.378s-19.42-.175-19.42-.378,8.728-.378,19.42-.378S252.766,423.915,252.766,424.118Z" transform="translate(-34.204 59.287)" fill="#263238"/>
      <path id="Path_286" data-name="Path 286" d="M249.349,427.541a49.23,49.23,0,0,1-.335-5.717l.335.335h-5.717l.378-.378h0v5.6l-.32-.32a51.784,51.784,0,0,1,5.717.32,38.9,38.9,0,0,1-5.717.335h-.335V421.78h0c-.335.335.466-.466.393-.378H249.8v.32A40.371,40.371,0,0,1,249.349,427.541Z" transform="translate(-20.866 58.221)" fill="#263238"/>
      <path id="Path_287" data-name="Path 287" d="M251.311,412.8c0,.2-8.728.378-19.42.378s-19.42-.175-19.42-.378,8.728-.378,19.42-.378S251.311,412.595,251.311,412.8Z" transform="translate(-34.873 54.14)" fill="#263238"/>
      <path id="Path_288" data-name="Path 288" d="M247.9,416.229a51.875,51.875,0,0,1-.32-5.732l.32.335h-5.717l.378-.378h0v5.615l-.335-.335a49.217,49.217,0,0,1,5.717.335,43.4,43.4,0,0,1-5.717.32h-.32v-5.95h0c-.335.349.466-.451.378-.378h6.052v.32a39,39,0,0,1-.436,5.848Z" transform="translate(-21.525 53.065)" fill="#263238"/>
      <path id="Path_289" data-name="Path 289" d="M249.371,402.428c0,.2-8.728.378-19.42.378s-19.42-.175-19.42-.378,8.728-.378,19.42-.378S249.371,402.21,249.371,402.428Z" transform="translate(-35.755 49.425)" fill="#263238"/>
      <path id="Path_290" data-name="Path 290" d="M245.895,405.841a53.049,53.049,0,0,1-.335-5.717l.335.335h-5.717l.378-.378h0v5.6l-.32-.32a51.374,51.374,0,0,1,5.7.319,38.887,38.887,0,0,1-5.7.336h-.32V400.08h0c-.335.335.451-.466.378-.378h6.052v.436A41.4,41.4,0,0,1,245.895,405.841Z" transform="translate(-22.431 48.354)" fill="#263238"/>
      <path id="Path_291" data-name="Path 291" d="M246.621,392.923c0,.2-8.728.378-19.42.378s-19.42-.175-19.42-.378,8.728-.393,19.42-.393S246.621,392.7,246.621,392.923Z" transform="translate(-37.005 45.096)" fill="#263238"/>
      <path id="Path_292" data-name="Path 292" d="M243.163,396.333a51.44,51.44,0,0,1-.32-5.717l.32.32h-5.717l.378-.378h0v5.673l-.335-.335a53.033,53.033,0,0,1,5.717.335,41.4,41.4,0,0,1-5.717.335h-.32v-6.008h0l.378-.378H243.6v.335a38.911,38.911,0,0,1-.438,5.828Z" transform="translate(-23.641 44.027)" fill="#263238"/>
      <path id="Path_293" data-name="Path 293" d="M241.991,384.938c0,.2-8.728.378-19.42.378s-19.42-.175-19.42-.378,8.728-.378,19.42-.378S241.991,384.735,241.991,384.938Z" transform="translate(-39.11 41.472)" fill="#263238"/>
      <path id="Path_294" data-name="Path 294" d="M238.533,388.353a51.106,51.106,0,0,1-.32-5.717l.32.335h-5.717l.378-.378h0v5.6l-.335-.32a56.009,56.009,0,0,1,5.717.32,38.655,38.655,0,0,1-5.717.335h-.32v-5.95h0l.378-.378h6.052v.32a38.409,38.409,0,0,1-.436,5.833Z" transform="translate(-25.747 40.399)" fill="#263238"/>
      <path id="Path_295" data-name="Path 295" d="M239.16,406.837a14.154,14.154,0,0,1,2.618-3.8c.335-.378.64-.756.975-1.149L243,401.6l.262.247c1.338,1.222,2.211,2.167,2.109,2.3s-1.178-.611-2.575-1.76h.509l-.946,1.178A14.228,14.228,0,0,1,239.16,406.837Z" transform="translate(-22.736 49.22)" fill="#90caf9"/>
      <path id="Path_296" data-name="Path 296" d="M241.22,416.732a14.154,14.154,0,0,1,2.618-3.8l.975-1.149.247-.276.262.233c1.338,1.222,2.211,2.167,2.109,2.3s-1.178-.611-2.575-1.746h.509l-.946,1.178a14.329,14.329,0,0,1-3.2,3.259Z" transform="translate(-21.8 53.726)" fill="#90caf9"/>
      <path id="Path_297" data-name="Path 297" d="M247.08,450.637a14.154,14.154,0,0,1,2.618-3.8c.335-.378.64-.756.975-1.149l.247-.291.262.247c1.338,1.222,2.211,2.167,2.109,2.3s-1.178-.611-2.575-1.76h.509l-.946,1.178a14.229,14.229,0,0,1-3.2,3.273Z" transform="translate(-19.135 69.136)" fill="#90caf9"/>
      <path id="Path_298" data-name="Path 298" d="M242.7,428.137a13.746,13.746,0,0,1,2.618-3.8l.975-1.149.247-.291.262.247c1.324,1.222,2.211,2.167,2.109,2.3s-1.178-.611-2.575-1.76h.509l-.946,1.178A14.549,14.549,0,0,1,242.7,428.137Z" transform="translate(-21.127 58.905)" fill="#90caf9"/>
      <path id="Path_299" data-name="Path 299" d="M255.351,434.978c0,.2-8.728.378-19.42.378s-19.42-.175-19.42-.378,8.728-.378,19.42-.378S255.351,434.76,255.351,434.978Z" transform="translate(-33.036 64.225)" fill="#263238"/>
      <path id="Path_300" data-name="Path 300" d="M251.9,438.391a53.422,53.422,0,0,1-.335-5.717l.335.335H246.18l.378-.378h0v5.6l-.32-.32a51.388,51.388,0,0,1,5.7.319,38.9,38.9,0,0,1-5.7.336h-.32V432.63h0c-.349.335.451-.466.378-.378h6.052v.32a40.362,40.362,0,0,1-.451,5.819Z" transform="translate(-19.704 63.155)" fill="#263238"/>
      <path id="Path_301" data-name="Path 301" d="M244.71,439.447a14.548,14.548,0,0,1,2.618-3.8c.335-.378.655-.756.975-1.149l.247-.291.262.247c1.338,1.222,2.226,2.167,2.109,2.284s-1.178-.6-2.575-1.746h.509l-.931,1.178A14.446,14.446,0,0,1,244.71,439.447Z" transform="translate(-20.213 64.048)" fill="#90caf9"/>
      <path id="Path_302" data-name="Path 302" d="M132.24,451.878c0-.218,7.884-.378,17.616-.378s17.631.16,17.631.378-7.884.378-17.631.378S132.24,452.082,132.24,451.878Z" transform="translate(-71.353 71.91)" fill="#263238"/>
      <path id="Path_303" data-name="Path 303" d="M126.2,450.383a43.469,43.469,0,0,1,.32,5.193l-.32-.32h5.193c.073-.087-.727.713-.393.378h0v-5.222l.335.335a41.018,41.018,0,0,1-5.193-.335,32.831,32.831,0,0,1,5.193-.32h.32V455.6h0l-.378.378H125.75v-.32a31.872,31.872,0,0,1,.451-5.281Z" transform="translate(-74.304 71.267)" fill="#263238"/>
      <path id="Path_304" data-name="Path 304" d="M132.648,449.082a12.017,12.017,0,0,1-2.357,3.462l-.887,1.047-.247.291-.262-.247c-1.207-1.106-2.007-1.978-1.891-2.109s1.076.538,2.357,1.571h-.509l.844-1.076C131.164,450.29,132.473,448.966,132.648,449.082Z" transform="translate(-73.74 70.807)" fill="#90caf9"/>
      <path id="Path_305" data-name="Path 305" d="M127.42,444.768c0-.218,7.9-.378,17.631-.378s17.616.16,17.616.378-7.884.378-17.616.378S127.42,444.972,127.42,444.768Z" transform="translate(-73.545 68.677)" fill="#263238"/>
      <path id="Path_306" data-name="Path 306" d="M121.351,443.259a43.468,43.468,0,0,1,.32,5.193l-.32-.32h5.193l-.378.378h0v-5.179l.335.335a41.007,41.007,0,0,1-5.193-.335,33.044,33.044,0,0,1,5.193-.32h.32v5.513h0l-.378.378H121v-.32a31.871,31.871,0,0,1,.349-5.324Z" transform="translate(-76.466 68.048)" fill="#263238"/>
      <path id="Path_307" data-name="Path 307" d="M127.827,442a12.016,12.016,0,0,1-2.357,3.462l-.887,1.047-.247.291-.262-.247c-1.207-1.106-1.993-1.978-1.891-2.109s1.091.538,2.357,1.571h-.509l.8-1.106C126.285,443.169,127.74,441.83,127.827,442Z" transform="translate(-75.931 67.585)" fill="#90caf9"/>
      <path id="Path_308" data-name="Path 308" d="M125.78,436.738c0-.218,7.884-.378,17.616-.378s17.631.16,17.631.378-7.884.378-17.631.378S125.78,436.942,125.78,436.738Z" transform="translate(-74.291 65.026)" fill="#263238"/>
      <path id="Path_309" data-name="Path 309" d="M119.741,435.229a43.148,43.148,0,0,1,.32,5.193l-.32-.32h5.179l-.378.378h0V435.3l.32.335a40.914,40.914,0,0,1-5.179-.335,32.735,32.735,0,0,1,5.179-.32h.335v5.513h0c.335-.335-.465.466-.393.378H119.29v-.32a31.874,31.874,0,0,1,.451-5.324Z" transform="translate(-77.242 64.397)" fill="#263238"/>
      <path id="Path_310" data-name="Path 310" d="M126.173,433.943a11.448,11.448,0,0,1-2.342,3.462l-.887,1.047-.247.291-.262-.247c-1.207-1.106-2.007-1.978-1.891-2.109s1.076.538,2.357,1.571h-.509l.844-1.076C124.7,435.15,126.013,433.812,126.173,433.943Z" transform="translate(-76.677 63.923)" fill="#90caf9"/>
      <path id="Path_311" data-name="Path 311" d="M124,428.533c0-.218,7.884-.393,17.616-.393s17.616.175,17.616.393-7.884.378-17.616.378S124,428.736,124,428.533Z" transform="translate(-75.1 61.288)" fill="#263238"/>
      <path id="Path_312" data-name="Path 312" d="M117.956,427.018a41.007,41.007,0,0,1,.335,5.193l-.335-.335h5.193l-.378.378h0v-5.15l.335.335a44.873,44.873,0,0,1-5.193-.335,34.145,34.145,0,0,1,5.193-.335h.32v5.484h0l-.378.378H117.52v-.32A33.052,33.052,0,0,1,117.956,427.018Z" transform="translate(-78.047 60.664)" fill="#263238"/>
      <path id="Path_313" data-name="Path 313" d="M124.407,425.733a11.871,11.871,0,0,1-2.357,3.462l-.887,1.047-.247.276-.262-.233c-1.207-1.12-1.993-1.978-1.891-2.109s1.091.538,2.357,1.557h-.509l.858-1.062C122.923,426.926,124.247,425.588,124.407,425.733Z" transform="translate(-77.486 60.189)" fill="#90caf9"/>
      <path id="Path_314" data-name="Path 314" d="M119.42,420.418c0-.2,7.885-.378,17.616-.378s17.616.175,17.616.378-7.884.378-17.616.378S119.42,420.636,119.42,420.418Z" transform="translate(-77.183 57.605)" fill="#263238"/>
      <path id="Path_315" data-name="Path 315" d="M113.336,418.923a40.919,40.919,0,0,1,.335,5.179l-.335-.32h5.193l-.378.378h0V419l.32.32a43.151,43.151,0,0,1-5.193-.32,31.87,31.87,0,0,1,5.193-.335h.349v5.5h0c.335-.335-.466.466-.378.393H113v-.335a32.729,32.729,0,0,1,.335-5.3Z" transform="translate(-80.104 56.976)" fill="#263238"/>
      <path id="Path_316" data-name="Path 316" d="M119.813,417.623a11.637,11.637,0,0,1-2.357,3.462l-.887,1.047-.233.291-.276-.247c-1.193-1.106-1.993-1.978-1.877-2.095s1.076.524,2.357,1.557h-.524l.858-1.076C118.286,418.83,119.653,417.492,119.813,417.623Z" transform="translate(-79.569 56.502)" fill="#90caf9"/>
      <path id="Path_317" data-name="Path 317" d="M190.74,379.884h4.7l13.005-.087h44.485a15.2,15.2,0,0,1,9.165,1.746,20.367,20.367,0,0,1,7.274,6.532,40.238,40.238,0,0,1,5.7,15.347c1.033,5.193,1.775,10.183,2.4,15.056,1.295,9.616,2.08,18.344,3.622,25.486a75.221,75.221,0,0,0,5.572,16.191c.873,1.847,1.673,3.229,2.211,4.175.247.422.451.771.626,1.047a1.759,1.759,0,0,1,.189.378,1.616,1.616,0,0,1-.262-.335l-.684-1.018a45.932,45.932,0,0,1-2.357-4.117,73.607,73.607,0,0,1-5.906-16.351c-1.629-7.273-2.458-15.9-3.782-25.516-.655-4.8-1.455-9.834-2.444-15a39.873,39.873,0,0,0-5.6-15.071,19.712,19.712,0,0,0-6.953-6.3,14.547,14.547,0,0,0-8.728-1.673h0l-44.528-.233-13.005-.131-3.491-.073h-.9Z" transform="translate(-44.753 39.253)" fill="#263238"/>
      <path id="Path_318" data-name="Path 318" d="M90.741,503.655a9.486,9.486,0,0,0,1.236-.335,11.448,11.448,0,0,0,3.36-1.658,11.754,11.754,0,0,0,3.826-4.641,18.024,18.024,0,0,0,1.455-8.088,42.186,42.186,0,0,0-1.455-10.314A97.618,97.618,0,0,0,94.8,466.982c-.844-2.08-1.658-4.248-2.386-6.546a42.853,42.853,0,0,1-1.731-7.274A23.741,23.741,0,0,1,93.593,437.5a15.812,15.812,0,0,1,6.415-5.906,13.293,13.293,0,0,1,2.124-.8c.364-.087.727-.218,1.106-.291l1.149-.145a7.491,7.491,0,0,1,4.553.945,23.173,23.173,0,0,1,6.968,6.4,58.189,58.189,0,0,1,5.237,8.306,67.5,67.5,0,0,1,4.015,9.31,38.3,38.3,0,0,1,1.455,5.033c.32,1.746.465,3.477.727,5.222a99.6,99.6,0,0,0,1.964,10.518,107.519,107.519,0,0,0,3.259,10.5,23.466,23.466,0,0,0,2.269,5.033,19.738,19.738,0,0,0,3.651,4.219,30.2,30.2,0,0,0,4.611,3.317,32.489,32.489,0,0,0,5.135,2.56,17.222,17.222,0,0,0,5.63,1.12c1.906,0,3.913-.218,5.819-.378a43.509,43.509,0,0,0,11.638-2.415,45.229,45.229,0,0,0,10.648-5.819,35.96,35.96,0,0,0,8.612-8.728,72.181,72.181,0,0,0,10.576-22.868,87.878,87.878,0,0,0,2.226-11.216c.48-3.753.7-7.535,1.018-11.289a191.56,191.56,0,0,1,2.822-22.1c.727-3.593,1.644-7.113,2.677-10.547a78.856,78.856,0,0,1,3.579-10.081,39.056,39.056,0,0,1,5.586-8.9,25.761,25.761,0,0,1,7.972-6.532h0a17.107,17.107,0,0,1,8.539-2.429,12.51,12.51,0,0,1,8.132,3.04,20.744,20.744,0,0,1,4.99,6.924,71.286,71.286,0,0,1,2.982,7.754,164.121,164.121,0,0,1,6.9,30.345c1.367,9.732,2.066,18.911,2.677,27.479s1.455,16.409,3.68,23.275a41.677,41.677,0,0,0,9.223,16.525,28.323,28.323,0,0,0,11.841,7.565,24.061,24.061,0,0,0,8.728,1.164c1-.087,1.76-.175,2.269-.276l.771-.1-.756.16a16.877,16.877,0,0,1-2.284.335,23.363,23.363,0,0,1-8.815-1.062,28.57,28.57,0,0,1-12.016-7.55,41.94,41.94,0,0,1-9.4-16.627c-2.211-6.852-3.142-14.78-3.782-23.275s-1.353-17.733-2.735-27.436a164.922,164.922,0,0,0-7-30.2,68.547,68.547,0,0,0-2.909-7.681,19.974,19.974,0,0,0-4.815-6.692,11.856,11.856,0,0,0-7.71-2.909,16.5,16.5,0,0,0-8.175,2.342h0a24.73,24.73,0,0,0-7.7,6.328,37.821,37.821,0,0,0-5.47,8.728,77.1,77.1,0,0,0-3.535,9.979c-1.033,3.433-1.935,6.924-2.662,10.488a192.44,192.44,0,0,0-2.822,22c-.306,3.739-.538,7.521-1,11.332a92.627,92.627,0,0,1-2.24,11.318,73.215,73.215,0,0,1-10.707,23.1,36.367,36.367,0,0,1-8.728,8.932,45.822,45.822,0,0,1-10.823,5.906,44.836,44.836,0,0,1-11.856,2.458c-2.008.145-3.942.349-5.964.364a17.734,17.734,0,0,1-5.819-1.164,32.349,32.349,0,0,1-5.266-2.633,30.921,30.921,0,0,1-4.7-3.4A19.679,19.679,0,0,1,134.3,492a24.191,24.191,0,0,1-2.327-5.179,105.343,105.343,0,0,1-3.273-10.576,101.506,101.506,0,0,1-1.949-10.59,49.591,49.591,0,0,0-6.037-19.362,55.951,55.951,0,0,0-5.15-8.219,22.622,22.622,0,0,0-6.764-6.255c-2.633-1.615-5.819-.887-8.408.276a15.129,15.129,0,0,0-6.139,5.717,23.275,23.275,0,0,0-2.909,15.318,41.592,41.592,0,0,0,1.586,7.084c.713,2.269,1.455,4.364,2.342,6.517A95.856,95.856,0,0,1,99.63,478.46a42.814,42.814,0,0,1,1.455,10.416,18.446,18.446,0,0,1-1.629,8.19,11.958,11.958,0,0,1-3.942,4.67,11.494,11.494,0,0,1-3.419,1.6A6.991,6.991,0,0,1,90.741,503.655Z" transform="translate(-90.385 39.189)" fill="#263238"/>
      <path id="Path_319" data-name="Path 319" d="M188.346,467.155s-.1,0-.262-.175-.422-.32-.727-.582a33.639,33.639,0,0,1-2.589-2.5,41.728,41.728,0,0,1-3.622-4.364,29.093,29.093,0,0,1-3.579-6.663,59.921,59.921,0,0,1-1.993-8.917c-.509-3.244-.916-6.721-1.542-10.328a36.906,36.906,0,0,0-3.491-10.852,20.191,20.191,0,0,0-3.491-4.844,7.724,7.724,0,0,0-2.342-1.818,12.98,12.98,0,0,0-2.909-.873,66.345,66.345,0,0,0-12.292-.626c-4,0-7.855.262-11.536.291l-19.566.175H101.631A6.492,6.492,0,0,1,100.38,415a9.51,9.51,0,0,1,1.251-.087l3.579-.116,13.18-.291,19.551-.335c3.68,0,7.535-.276,11.55-.335a65.988,65.988,0,0,1,12.452.625,12.745,12.745,0,0,1,3.113.931,6.227,6.227,0,0,1,1.455.887c.393.349.786.7,1.149,1.091a20.7,20.7,0,0,1,3.608,5.019,37.24,37.24,0,0,1,3.52,11.07c.611,3.651.989,7.128,1.455,10.357a58.535,58.535,0,0,0,1.877,8.845,28.483,28.483,0,0,0,3.419,6.59,45.638,45.638,0,0,0,3.491,4.451c1.033,1.149,1.877,2.008,2.473,2.575A6.627,6.627,0,0,1,188.346,467.155Z" transform="translate(-85.84 54.756)" fill="#263238"/>
      <path id="Path_320" data-name="Path 320" d="M371,150.918a9.761,9.761,0,0,1,5.222-8.437,3.332,3.332,0,0,1,1.615-.451,1.455,1.455,0,0,1,1.338.858,1.644,1.644,0,0,1-.466,1.644,13.255,13.255,0,0,1-1.455,1.12,5.222,5.222,0,0,0-1.789,5.019" transform="translate(37.212 -68.807)" fill="#b78876"/>
      <path id="Path_321" data-name="Path 321" d="M405.781,105.9a25.239,25.239,0,0,0-23.275,26.941c1.324,19.639.917,46.318-8.466,62.552-16.234,28.1-40.586,33.095-38.724,89.29s4.364,62.145-6.866,76.663-35.582,7.012-46.2,40.106S279.12,600.01,262.26,617.5c0,0-13.732,13.092-28.09,11.856h80.678a26.184,26.184,0,0,0,18.446-7.274,20.759,20.759,0,0,0,6.4-15.173c0-11.39,3.739-172.324,9.994-186.071s38.71-27.756,43.641-59.454,3.229-82.991,3.186-92.214c0-8.728,1.7-25.865,18.489-45.838,25.486-30.185,22.01-63.178,22.577-74.423s-4.364-45.1-4.364-45.1Z" transform="translate(-25.005 -86.186)" fill="#ebebeb"/>
      <path id="Path_322" data-name="Path 322" d="M337.69,127.033a7.768,7.768,0,0,1,13.907-2.328c2.4,3.491,1.847,8.728,5.077,11.492,2.051,1.76,5.019,1.877,7.724,1.833a123.461,123.461,0,0,0,25.3-3.142L387.834,108.3s-40.368-3.549-45.285,3.084S337.69,127.033,337.69,127.033Z" transform="translate(22.065 -84.577)" fill="#e0e0e0"/>
      <path id="Path_323" data-name="Path 323" d="M336.427,143c0-5.993,1.353-11.274,2.764-17.093,1.7-7.041,6.6-12.176,12.554-13.092,7.521-1.076,14.94,9.776,14.94,9.776s29.24-4.248,43.146-5.281c-1.018-3.622-8.321-12.961-13.572-14.1a66.612,66.612,0,0,0-16-.858c-9.6.262-19.537.6-28.207,4.728s-17.6,10.183-15.493,32.5" transform="translate(21.408 -86.915)" fill="#f5f5f5"/>
      <path id="Path_324" data-name="Path 324" d="M387,103.4a6.328,6.328,0,0,1-1.455.175l-3.971.305c-3.346.247-7.972.6-13.092,1.135s-9.688,1.193-12.99,1.775l-3.9.713a8.728,8.728,0,0,1-1.455.218,8.162,8.162,0,0,1,1.455-.393c.916-.233,2.24-.524,3.884-.858a123.447,123.447,0,0,1,12.99-1.906c5.091-.451,9.732-.829,13.092-1l3.971-.16A9.267,9.267,0,0,1,387,103.4Z" transform="translate(27.727 -86.386)" fill="#263238"/>
      <path id="Path_325" data-name="Path 325" d="M330.543,322.945c0,.218-12.38,2.226-27.639,4.5s-27.785,3.942-27.814,3.739,12.365-2.211,27.639-4.5S330.514,322.742,330.543,322.945Z" transform="translate(-6.399 13.448)" fill="#263238"/>
      <path id="Path_326" data-name="Path 326" d="M331.13,318.863c0,.2-11.39.451-25.443.538s-25.457,0-25.457-.233,11.39-.451,25.443-.538S331.13,318.644,331.13,318.863Z" transform="translate(-4.062 11.479)" fill="#263238"/>
      <path id="Path_327" data-name="Path 327" d="M236.66,618.377l1.455-.189a28.8,28.8,0,0,0,4.044-.829,45.226,45.226,0,0,0,14.125-7.041,50.613,50.613,0,0,0,4.277-3.389A13.179,13.179,0,0,0,263.79,602a66.584,66.584,0,0,0,3.491-13.092,321.908,321.908,0,0,0,3.666-33.109c1.7-24.643,2.4-54.057,3.419-86.7.538-16.336,1.076-33.458,2.444-51.22.349-4.364.771-8.888,1.353-13.383a88.591,88.591,0,0,1,2.56-13.471c.727-2.2,1.571-4.364,2.4-6.532l1.557-3.128.786-1.571c.291-.495.625-.989.946-1.455a35.624,35.624,0,0,1,9.5-10.416,54.728,54.728,0,0,1,12.452-6.6,84.021,84.021,0,0,0,12.569-5.673l1.455-.9c.451-.335.873-.713,1.309-1.062L325,352.617l1.135-1.251c.364-.407.756-.815,1.12-1.237l1-1.367c.7-.887,1.309-1.833,1.92-2.778a32.991,32.991,0,0,0,3.04-5.921,34.71,34.71,0,0,0,1.629-6.4,82.821,82.821,0,0,0,.742-13.092c0-4.364-.16-8.728-.305-12.947q-.509-12.816-.975-25.065c-.116-4.088-.364-8.1-.32-12.1V264.52c0-1.964.2-3.913.291-5.819.1-3.884.786-7.666,1.237-11.4A88.541,88.541,0,0,1,338.14,236.5a68.53,68.53,0,0,1,9.208-18.911,178.761,178.761,0,0,1,12.19-15.1,138.377,138.377,0,0,0,10.75-13.907l2.182-3.477c.727-1.135,1.28-2.342,1.906-3.491a60.1,60.1,0,0,0,2.808-7.041,104.738,104.738,0,0,0,4.364-24.73c.466-6.9.451-12.263.422-15.885,0-1.8,0-3.186-.073-4.146a7.349,7.349,0,0,1,0-1.455s.16,1.906.247,5.542.131,9.019-.291,15.914a103.838,103.838,0,0,1-4.277,24.73,60.394,60.394,0,0,1-2.793,7.114c-.626,1.149-1.178,2.386-1.92,3.52s-1.455,2.313-2.168,3.506a139.645,139.645,0,0,1-10.75,13.994A179.286,179.286,0,0,0,347.712,217.8a68.369,68.369,0,0,0-9.092,18.751,89.4,89.4,0,0,0-2.546,10.721c-.451,3.71-1.106,7.463-1.207,11.332-.087,1.92-.262,3.855-.291,5.819s0,3.928,0,5.921c0,3.957.218,8,.335,12.074q.48,12.249,1,25.079c.145,4.262.305,8.583.305,12.961a81.269,81.269,0,0,1-.742,13.238,34.564,34.564,0,0,1-1.658,6.546,33.18,33.18,0,0,1-3.113,6.066c-.611.96-1.237,1.92-1.935,2.822l-1.018,1.367c-.378.451-.786.858-1.164,1.295l-1.178,1.295-1.338,1.106c-.451.349-.887.742-1.367,1.076l-1.455.931a84.063,84.063,0,0,1-12.67,5.732,53.824,53.824,0,0,0-12.292,6.517,34.913,34.913,0,0,0-9.31,10.183c-.305.48-.64.96-.931,1.455l-.771,1.542-1.455,3.084c-.815,2.153-1.658,4.291-2.371,6.444a89.131,89.131,0,0,0-2.546,13.34c-.582,4.48-1,8.932-1.367,13.369-1.367,17.7-1.92,34.84-2.473,51.162-1.062,32.644-1.8,62.072-3.579,86.729a316.806,316.806,0,0,1-3.782,33.225,66.091,66.091,0,0,1-3.593,13.209,13.093,13.093,0,0,1-3.331,5.048,50.123,50.123,0,0,1-4.364,3.375,44.5,44.5,0,0,1-14.256,6.953,25.619,25.619,0,0,1-4.073.757Z" transform="translate(-23.873 -75.023)" fill="#263238"/>
      <path id="Path_328" data-name="Path 328" d="M357.66,140.4l-.131-1.833c0-1.236-.189-3.026-.335-5.4a27.438,27.438,0,0,1,.145-3.986c.16-1.455.553-3.026.887-4.728a22.883,22.883,0,0,1,5.426-10.619,34.914,34.914,0,0,1,12.772-7.87,65.608,65.608,0,0,1,17.529-3.695c3.215-.276,6.546-.422,9.994-.48a36.993,36.993,0,0,1,10.6,1.106,31.317,31.317,0,0,1,5.266,1.906,23.1,23.1,0,0,1,4.786,3.2,27.767,27.767,0,0,1,4.131,4.233,15.87,15.87,0,0,1,1.644,2.546,6.937,6.937,0,0,1,.9,3v.247h-.262c-6.532.567-13.529,2.007-20.86,2.909l.262-.32c.858,7.1,1.731,14.547,2.2,22.155.1,1.906.175,3.855.145,5.819s-.145,3.9-.145,5.819c0,3.957,0,7.972-.305,12.045a109.858,109.858,0,0,1-4.19,24.73,93.1,93.1,0,0,1-11.027,23.9c-4.83,7.637-11.492,14.082-16,22.228a66.145,66.145,0,0,0-9.034,26.548,120.062,120.062,0,0,0-.174,14.547q.087,7.273.175,14.751c.073,9.892,0,19.915-.335,30.04-.407,11.638-1.018,23.275-2.5,34.535a62.551,62.551,0,0,1-4.015,16.5,64.236,64.236,0,0,1-8.539,14.373c-6.823,8.728-15.3,15.667-23.072,22.81l-2.749,2.808c-.887.96-1.789,1.906-2.648,2.909l-1.178,1.542a8.729,8.729,0,0,0-1.076,1.586L325,421.926a18.375,18.375,0,0,0-.64,1.775,122.066,122.066,0,0,0-2.255,15.129c-1.935,20.133-2.837,39.364-3.709,57.344s-1.455,34.738-1.978,50.042-.916,29.094-1.237,41.3q-.2,9.121-.378,16.933a46.4,46.4,0,0,1-.407,7.492,19.857,19.857,0,0,1-2.3,6.386,23.581,23.581,0,0,1-7.855,8.161,26.036,26.036,0,0,1-7.681,3.244,26.594,26.594,0,0,1-5.077.756h-1.309a9.883,9.883,0,0,0,1.309-.073,26.914,26.914,0,0,0,12.627-4.1,23.392,23.392,0,0,0,7.725-8.117,19.754,19.754,0,0,0,2.24-6.3,45.554,45.554,0,0,0,.364-7.433c.1-5.208.2-10.867.32-16.947.276-12.161.64-26.01,1.12-41.314s1.076-32,1.877-50.042,1.731-37.211,3.651-57.388a121.345,121.345,0,0,1,2.167-15.289c.218-.625.393-1.295.669-1.891l.989-1.731a9.56,9.56,0,0,1,1.106-1.644l1.207-1.571c.873-1,1.775-1.964,2.677-2.909l2.909-2.764c7.8-7.186,16.234-14.052,22.984-22.737a63.657,63.657,0,0,0,8.437-14.2,62.918,62.918,0,0,0,3.957-16.307c1.455-11.274,2.08-22.81,2.488-34.476.335-10.11.407-20.119.335-30.011q-.087-7.419-.175-14.736a121.747,121.747,0,0,1,.189-14.547,66.64,66.64,0,0,1,9.15-26.839c4.553-8.234,11.259-14.722,16-22.257a91.85,91.85,0,0,0,10.983-23.712,109.88,109.88,0,0,0,4.19-24.584c.233-4.059.291-8.074.32-12.03,0-1.964.087-3.971.145-5.819s0-3.87-.131-5.819c-.451-7.637-1.309-15.027-2.153-22.126v-.291h.291c7.273-.9,14.3-2.328,20.9-2.909l-.262.276a10.183,10.183,0,0,0-2.415-5.222,28.077,28.077,0,0,0-4.044-4.16,23.464,23.464,0,0,0-4.67-3.142,32.543,32.543,0,0,0-5.179-1.891,36.921,36.921,0,0,0-10.474-1.106c-3.433,0-6.75.175-9.95.451a64.748,64.748,0,0,0-17.456,3.608,34.637,34.637,0,0,0-12.685,7.724,22.8,22.8,0,0,0-5.426,10.474c-.335,1.687-.756,3.244-.9,4.7a23.822,23.822,0,0,0-.189,3.957c.116,2.357.2,4.16.262,5.382A13.265,13.265,0,0,1,357.66,140.4Z" transform="translate(0.262 -87.119)" fill="#263238"/>
      <path id="Path_329" data-name="Path 329" d="M408.981,114.408a3.185,3.185,0,0,1-.815.175l-2.386.349-8.728,1.149-28.876,3.52-2.313.276h-.233l-.116-.189a37.225,37.225,0,0,0-4.859-6.11,12.7,12.7,0,0,0-6.1-3.491,12.438,12.438,0,0,0-6.328.378,11.768,11.768,0,0,0-4.713,2.909,20.962,20.962,0,0,0-4.364,6.9c-.335.9-.582,1.615-.727,2.109a6.863,6.863,0,0,1-.247.727,2.372,2.372,0,0,1,.1-.771,20.256,20.256,0,0,1,.611-2.168,20.017,20.017,0,0,1,4.19-7.157,12.408,12.408,0,0,1,4.888-3.142,12.947,12.947,0,0,1,6.677-.465,13.092,13.092,0,0,1,6.459,3.637,36.836,36.836,0,0,1,4.975,6.212l-.364-.16,2.313-.276,28.9-3.3,8.728-.916,2.386-.218a3.709,3.709,0,0,1,.931.029Z" transform="translate(22.288 -83.75)" fill="#263238"/>
      <path id="Path_330" data-name="Path 330" d="M378.431,151.087a1.847,1.847,0,0,1-1.193,1.658l-8.728,3.3c-1.338.509-3.128.887-3.957-.276a2.24,2.24,0,0,1,.349-2.691,6.5,6.5,0,0,1,2.473-1.455c3.36-1.455,7.041-2.822,10.445-4.233a.495.495,0,0,1,.684.495Z" transform="translate(34.145 -66.387)" fill="#b78876"/>
      <path id="Path_331" data-name="Path 331" d="M378.807,152.288a3.709,3.709,0,0,1-2.284,4.262l-8.1,3.113c-1.338.509-3.128.887-3.957-.262a2.24,2.24,0,0,1,.349-2.691,6.357,6.357,0,0,1,2.473-1.455c3.215-1.338,6.721-2.691,9.979-4.03a1.062,1.062,0,0,1,1.455.756Z" transform="translate(34.104 -64.664)" fill="#b78876"/>
      <path id="Path_332" data-name="Path 332" d="M377.7,154.952a5.368,5.368,0,0,1-3.317,6.27l-6.75,2.575c-1.338.509-3.128.887-3.957-.276a2.269,2.269,0,0,1,.349-2.691,6.664,6.664,0,0,1,2.488-1.455c3.593-1.455,7.564-3.026,11.143-4.524Z" transform="translate(33.751 -62.978)" fill="#b78876"/>
      <path id="Path_333" data-name="Path 333" d="M363.744,202.353c0,.2-10.634,4.146-23.9,8.816s-24.09,8.306-24.163,8.1,10.634-4.146,23.9-8.815S363.671,202.149,363.744,202.353Z" transform="translate(12.057 -41.382)" fill="#263238"/>
      <path id="Path_334" data-name="Path 334" d="M353.478,206.35a27,27,0,0,1-3.869,2.764c-2.444,1.615-5.819,3.768-9.732,6.052s-7.39,4.262-9.979,5.63a25.848,25.848,0,0,1-4.277,2.066,32.926,32.926,0,0,1,4.015-2.531l9.863-5.819,9.834-5.819a31.7,31.7,0,0,1,4.146-2.342Z" transform="translate(16.577 -39.561)" fill="#263238"/>
    </g>
    <g id="freepik--speech-bubble--inject-4" transform="translate(241.988 79.74)">
      <path id="Path_335" data-name="Path 335" d="M190.806,83.695a2.359,2.359,0,0,1,0,.48v1.309c0,1.207,0,2.909.073,4.888,0,4.233.1,10.183.175,17.18l-.335-.32h23.857c.087,0-.713.713-.364.378h0V83.695l.335.335-17.195-.175-4.888-.087h-1.789a13.951,13.951,0,0,1,1.658,0l4.8-.087,17.456-.16h.32v23.974h0c.335-.335-.466.465-.393.378H190.34v-.378c.073-7.128.131-13.092.16-17.456,0-2.007,0-3.608.087-4.815A4.978,4.978,0,0,1,190.806,83.695Z" transform="translate(-170.653 -60.928)" fill="#263238"/>
      <path id="Path_336" data-name="Path 336" d="M218.6,80.007c.48.393-4.582,7.361-11.3,15.536-1.455,1.717-2.764,3.346-4.03,4.83l-.742.844-.8-.713c-5.586-5.033-9.368-8.859-9.048-9.237s4.67,2.808,10.459,7.608l-1.527.131c1.193-1.527,2.531-3.186,3.942-4.9C212.271,85.9,218.1,79.57,218.6,80.007Z" transform="translate(-169.599 -62.536)" fill="#90caf9"/>
      <path id="Path_337" data-name="Path 337" d="M211.375,68h-3.564l-1.542.218-1.8.262-2.008.495a32.411,32.411,0,0,0-9.732,4.248,34.375,34.375,0,0,0-15.784,25.821,36.187,36.187,0,0,0-.1,4.713,12.112,12.112,0,0,0,.16,2.4c.16.8.247,1.615.364,2.429a34.489,34.489,0,0,0,3.273,9.587,36.964,36.964,0,0,0,6.255,8.612,36.367,36.367,0,0,0,9.019,6.473,32.6,32.6,0,0,0,11,3.375,21.817,21.817,0,0,0,2.909.247,25.255,25.255,0,0,0,2.909,0,35.812,35.812,0,0,0,5.935-.756,34.738,34.738,0,0,0,11.812-4.961h-.349l12.03,4.83.713.291-.2-.742c-1.207-4.364-2.4-8.728-3.535-12.874v.32a34.462,34.462,0,0,0,6.328-14.576,30.7,30.7,0,0,0,.465-7.521,22.809,22.809,0,0,0-.335-3.622c-.087-.6-.189-1.178-.276-1.76a16.162,16.162,0,0,0-.422-1.7,34.4,34.4,0,0,0-13.427-19.58,33.078,33.078,0,0,0-7.986-4.219l-1.8-.64-1.717-.436-1.557-.393-1.455-.218c-.916-.116-1.717-.262-2.415-.305h-3.215a1.571,1.571,0,0,0,.364,0l1.076.087,1.76.116a20.472,20.472,0,0,1,2.386.364,34.2,34.2,0,0,1,27.378,25.385c.131.553.305,1.106.407,1.673s.16,1.149.247,1.731a22.052,22.052,0,0,1,.32,3.549,30.329,30.329,0,0,1-.48,7.39,34.084,34.084,0,0,1-6.343,14.387l-.1.145v.175l3.52,12.874.509-.451-11.929-4.888-.189-.087-.175.116a33.749,33.749,0,0,1-17.355,5.586,27.4,27.4,0,0,1-2.909,0,20.772,20.772,0,0,1-2.909-.247,31.786,31.786,0,0,1-10.75-3.288,35.189,35.189,0,0,1-8.83-6.313,36.367,36.367,0,0,1-6.153-8.423,33.952,33.952,0,0,1-3.229-9.368c-.131-.8-.247-1.6-.378-2.386s-.1-1.571-.16-2.357a37.589,37.589,0,0,1,.073-4.626,34,34,0,0,1,15.376-25.516,32.978,32.978,0,0,1,9.587-4.364l1.978-.524,1.775-.291,1.527-.262,1.28-.087,1.746-.131a2.72,2.72,0,0,0,.64.015Z" transform="translate(-176.806 -67.99)" fill="#455a64"/>
    </g>
  </g>
</svg>
