<svg xmlns="http://www.w3.org/2000/svg" width="661.727" height="648.16" viewBox="0 0 661.727 648.16">
  <g id="Waiting-pana" transform="translate(-23.28 -33.07)">
    <g id="freepik--background-complete--inject-7" transform="translate(35.203 33.07)">
      <rect id="Rectangle_2" data-name="Rectangle 2" width="57.031" height="15.703" transform="translate(182.477 555.268)" fill="#ebebeb"/>
      <path id="Path_1" data-name="Path 1" d="M197,439.613a2.5,2.5,0,0,1,0-.277v-3.692c0-2.612,0-6.348-.1-11.076l.175.175-57.031.117.292-.292h0v15.06l-.292-.292,40.643.131,12,.088h4.086a.979.979,0,0,1,.306,0h-4.261l-11.923.073-40.8.292h-.277V424.582h0l.292-.292,57.031.117h.175v.175c0,4.772,0,8.552-.1,11.179v3.648A1.469,1.469,0,0,1,197,439.613Z" transform="translate(18.325 146.637)" fill="#e0e0e0"/>
      <path id="Path_2" data-name="Path 2" d="M207.507,313.372v-4.247c0-2.758,0-6.728-.088-11.675l.146.19-46.962.117c.1-.131-.248.306.234-.306h0v15.936l-.234-.292,33.477.131,9.88.088h.117l-9.821.088-33.653.131h-.233v-16.1h0c.482-.613.131-.175.248-.306l46.962.117h.146v.19c0,5.049,0,9.048-.073,11.835v3.882C207.653,313.357,207.522,313.387,207.507,313.372Z" transform="translate(27.769 88.212)" fill="#e0e0e0"/>
      <path id="Path_3" data-name="Path 3" d="M469.957,447.322a2.573,2.573,0,0,1,0-.292V443.06c0-2.744,0-6.713-.1-11.675l.19.175-60.359.131.306-.306h0v15.965l-.292-.306,43.007.146,12.7.073h.1l-12.623.088-43.226.131h-.306V431.356h0l.306-.306,60.359.117h.117v.19c0,5.035-.088,9.033-.1,11.821v3.882A1.793,1.793,0,0,1,469.957,447.322Z" transform="translate(142.138 149.742)" fill="#e0e0e0"/>
      <path id="Path_4" data-name="Path 4" d="M467.96,436.472a1.567,1.567,0,0,1,0-.306v-4.057c0-2.8-.073-6.742-.117-11.675l.219.219-36.265.088.307-.306h0v15.951l-.292-.292,25.933.131,7.559.088h.131l-7.486.073-26.137.146h-.292V420.288h0c0,.073.584-.584.321-.306l36.265.088h.219v.219c0,4.918-.088,8.931-.117,11.762V435.2A9.322,9.322,0,0,1,467.96,436.472Z" transform="translate(152.322 144.626)" fill="#e0e0e0"/>
      <rect id="Rectangle_3" data-name="Rectangle 3" width="57.031" height="15.703" transform="translate(525.468 264.507)" fill="#ebebeb"/>
      <path id="Path_5" data-name="Path 5" d="M432.1,240.382a1.1,1.1,0,0,1,0-.277v-3.692c0-2.612,0-6.348-.088-11.076l.175.175-57.031.117.292-.292h0V240.4l-.277-.277,40.643.117,12,.088h.131L416,240.412l-40.862.117h-.292V225.322h0l.292-.292,57.031.117h.175v.175c0,4.772-.073,8.552-.1,11.179v3.663a1.345,1.345,0,0,1-.146.219Z" transform="translate(126.291 55.107)" fill="#e0e0e0"/>
      <path id="Path_6" data-name="Path 6" d="M471.9,155.066v-4.261c0-2.744,0-6.713-.1-11.675l.175.175-60.359.131.306-.306h0V155.1l-.306-.306,43.022.146h12.828l-12.623.088-43.226.131h-.306V139.1h0l.306-.321,60.359.131h.175v.19c0,5.035,0,9.033-.1,11.821V154.8C472.048,155.008,471.917,155.066,471.9,155.066Z" transform="translate(143.038 15.488)" fill="#e0e0e0"/>
      <path id="Path_7" data-name="Path 7" d="M469.91,144.117v-4.363c0-2.8-.073-6.742-.117-11.675l.219.219-36.265.088.306-.306h0V144.03l-.292-.292,25.947.131,7.559.088H459.9l-26.137.146h-.292V128.166h0l.306-.306,36.265.088h.219v.219c0,4.918-.088,8.917-.117,11.762v3.152A9.317,9.317,0,0,1,469.91,144.117Z" transform="translate(153.218 10.472)" fill="#e0e0e0"/>
      <path id="Path_8" data-name="Path 8" d="M459.587,307.682v-4.247c0-2.758,0-6.728-.088-11.675l.146.19-46.962.117c.1-.131-.248.306.234-.306h0V307.7l-.234-.292,33.478.131,9.88.088h.117l-9.836.088-33.638.131h-.234v-16.1h0c.482-.613.131-.175.248-.306l46.962.117h.146v.19c0,5.049,0,9.048-.073,11.835v3.882C459.6,307.609,459.6,307.7,459.587,307.682Z" transform="translate(143.562 85.598)" fill="#e0e0e0"/>
      <rect id="Rectangle_4" data-name="Rectangle 4" width="139.704" height="231.249" transform="translate(306.317 42.102)" fill="#e0e0e0"/>
      <rect id="Rectangle_5" data-name="Rectangle 5" width="139.704" height="231.249" transform="translate(301.662 42.102)" fill="#ebebeb"/>
      <rect id="Rectangle_6" data-name="Rectangle 6" width="127.81" height="221.865" transform="translate(307.616 46.787)" fill="#fff"/>
      <rect id="Rectangle_7" data-name="Rectangle 7" width="78.586" height="164.206" transform="translate(331.944 75.623)" fill="#ebebeb"/>
      <path id="Path_9" data-name="Path 9" d="M258.911,176.658c-.175-15.338,13.616-30.311,28.808-32.456,7.3-1.022,14.929.423,21.7-2.364,12.083-4.947,15.922-21,28.078-25.758l.555,118.689h-79.14Z" transform="translate(73.033 5.061)" fill="#e0e0e0"/>
      <rect id="Rectangle_8" data-name="Rectangle 8" width="52.741" height="87.503" transform="translate(0 80.863)" fill="#f5f5f5"/>
      <rect id="Rectangle_9" data-name="Rectangle 9" width="56.988" height="87.503" transform="translate(54.769 80.863)" fill="#f5f5f5"/>
      <rect id="Rectangle_10" data-name="Rectangle 10" width="56.988" height="84.555" transform="translate(54.769 174.48)" fill="#f5f5f5"/>
      <path id="Path_10" data-name="Path 10" d="M113.03,112.415h60.008V34.792h2.014v77.623H223.9V33.07H113.03Z" transform="translate(6.024 -33.07)" fill="#f5f5f5"/>
      <rect id="Rectangle_11" data-name="Rectangle 11" width="48.83" height="87.503" transform="translate(181.091 80.863)" fill="#f5f5f5"/>
      <rect id="Rectangle_12" data-name="Rectangle 12" width="48.83" height="84.555" transform="translate(181.091 174.48)" fill="#f5f5f5"/>
      <rect id="Rectangle_13" data-name="Rectangle 13" width="52.741" height="84.555" transform="translate(0 174.48)" fill="#f5f5f5"/>
      <rect id="Rectangle_14" data-name="Rectangle 14" width="60.008" height="84.555" transform="translate(119.054 174.48)" fill="#f5f5f5"/>
      <rect id="Rectangle_15" data-name="Rectangle 15" width="52.741" height="76.193" transform="translate(0 260.552)" fill="#f5f5f5"/>
      <rect id="Rectangle_16" data-name="Rectangle 16" width="48.83" height="76.193" transform="translate(181.091 260.552)" fill="#f5f5f5"/>
      <path id="Path_11" data-name="Path 11" d="M84.191,112.415V34.792h2.029v77.623h56.973V33.07H31.45v79.345Z" transform="translate(-31.45 -33.07)" fill="#f5f5f5"/>
      <rect id="Rectangle_17" data-name="Rectangle 17" width="60.008" height="76.193" transform="translate(119.054 260.552)" fill="#f5f5f5"/>
      <rect id="Rectangle_18" data-name="Rectangle 18" width="56.988" height="76.193" transform="translate(54.769 260.552)" fill="#f5f5f5"/>
      <rect id="Rectangle_19" data-name="Rectangle 19" width="60.008" height="87.503" transform="translate(119.054 80.863)" fill="#f5f5f5"/>
      <path id="Path_12" data-name="Path 12" d="M271.334,50.242V45.98c0-2.758,0-6.713-.088-11.675l.146.175-46.962.131c.1-.146-.248.306.233-.306h0V50.256l-.233-.306,33.477.146,9.88.073h.117l-9.836.088-33.565.131h-.234v-16.1h0l.248-.321,46.962.131h.146v.19c0,5.035,0,9.033-.073,11.821v3.882A.256.256,0,0,1,271.334,50.242Z" transform="translate(57.122 -32.657)" fill="#e0e0e0"/>
    </g>
    <g id="freepik--Floor--inject-7" transform="translate(23.28 670.864)">
      <path id="Path_13" data-name="Path 13" d="M685.007,470.489c0,.2-148.153.379-330.849.379s-330.878-.175-330.878-.379,148.109-.379,330.878-.379S685.007,470.271,685.007,470.489Z" transform="translate(-23.28 -470.11)" fill="#263238"/>
    </g>
    <g id="freepik--Chairs--inject-7" transform="translate(60.931 378.139)">
      <path id="Path_14" data-name="Path 14" d="M168.663,447.831c-.131.175-20.431-14.9-45.24-33.653S78.533,380.088,78.65,380s20.431,14.885,45.24,33.653S168.794,447.67,168.663,447.831Z" transform="translate(-35.497 -218.777)" fill="#263238"/>
      <path id="Path_15" data-name="Path 15" d="M72.34,449.605c-.131-.161,20.1-15.892,45.24-35.127s45.517-34.7,45.648-34.528-20.1,15.892-45.24,35.127S72.457,449.766,72.34,449.605Z" transform="translate(-38.396 -218.8)" fill="#263238"/>
      <path id="Path_16" data-name="Path 16" d="M83.685,368.12,80.11,387.515h5.312l5.5-19.395Z" transform="translate(-34.826 -224.234)" fill="#263238"/>
      <path id="Path_17" data-name="Path 17" d="M84.949,379.353c-4.728,23.627-22.956,111.83-27.567,134.1a4.2,4.2,0,0,0,4.013,5.122h0a4.13,4.13,0,0,0,3.969-3.108L100.958,382.8a7.3,7.3,0,0,0-6.83-9.267H91.9A7.122,7.122,0,0,0,84.949,379.353Z" transform="translate(-45.313 -221.749)" fill="#455a64"/>
      <path id="Path_18" data-name="Path 18" d="M133.208,368.12l3.575,19.395h-5.312l-5.5-19.395Z" transform="translate(-13.761 -224.234)" fill="#263238"/>
      <path id="Path_19" data-name="Path 19" d="M205.964,388.327c-10.361-19.22-22.678-77.9-28.107-96.623-.146-.525-.306-1.036-.467-1.532a30.252,30.252,0,0,0-28.837-20.431H117.294a30.223,30.223,0,0,0-28.822,20.431L87.99,291.7c-5.414,18.723-17.746,77.346-28.092,96.623,0,0-13.805,8.129-9.865,15.907,3.809,7.487,39.257,12.8,82.891,11.4,43.649,1.459,79.1-3.911,82.891-11.4C219.755,396.456,205.964,388.327,205.964,388.327Z" transform="translate(-48.967 -269.425)" fill="#e0e0e0"/>
      <path id="Path_20" data-name="Path 20" d="M206.077,388.426a26.514,26.514,0,0,1,3.415,2.32,28,28,0,0,1,3.736,3.386,13.324,13.324,0,0,1,3.4,5.954,6.844,6.844,0,0,1-.5,4.1,7.545,7.545,0,0,1-3.284,3.211,26.91,26.91,0,0,1-4.553,2.029c-1.634.6-3.357,1.109-5.151,1.576a163.686,163.686,0,0,1-25.042,3.94c-9.4.876-19.76,1.328-30.953,1.343H138.6c-2.9,0-5.837-.2-8.756,0q-8.975.234-18.534,0a274.348,274.348,0,0,1-39.972-3.327,102.593,102.593,0,0,1-10.376-2.306,44.277,44.277,0,0,1-5.181-1.8,17.25,17.25,0,0,1-4.757-2.787,5.458,5.458,0,0,1-1.547-2.437c-.073-.219-.175-.452-.233-.686l-.088-.715-.073-.715v-.73a10.887,10.887,0,0,1,2.2-5.2,31.36,31.36,0,0,1,8.479-7.428l-.146.146a149,149,0,0,0,8.756-23.058c2.466-8.012,4.728-16.213,6.9-24.546,2.277-8.756,4.378-17.366,6.523-25.889q1.591-6.392,3.152-12.7c1.095-4.188,2.072-8.347,3.429-12.434a30.238,30.238,0,0,1,17-17.775,32.106,32.106,0,0,1,11.967-2.379h29.1a48.153,48.153,0,0,1,5.618.219,31.317,31.317,0,0,1,10.551,3.108,30.908,30.908,0,0,1,8.552,6.363,29.785,29.785,0,0,1,5.662,8.6l.89,2.364c.248.8.511,1.591.715,2.393.438,1.591.876,3.152,1.27,4.714,1.634,6.246,3.079,12.273,4.495,18.008,5.575,22.97,10.42,41.475,14.462,54,1.97,6.3,3.838,11.076,5.166,14.3.657,1.605,1.284,2.758,1.634,3.575l.569,1.24s-.89-1.591-2.35-4.758a133.188,133.188,0,0,1-5.3-14.272c-4.145-12.565-9.063-31.07-14.71-54-1.459-5.735-2.919-11.748-4.539-17.979-.394-1.562-.832-3.123-1.27-4.714-.219-.8-.467-1.576-.715-2.364s-.584-1.459-.89-2.306a28.851,28.851,0,0,0-5.56-8.406,30.092,30.092,0,0,0-18.709-9.238,43.528,43.528,0,0,0-5.546-.2h-17.22c-7.764.248-16.053-.978-23.554,2.35A29.523,29.523,0,0,0,89.1,289.876c-1.313,4-2.32,8.2-3.4,12.375s-2.087,8.42-3.152,12.682c-2.1,8.537-4.232,17.177-6.509,25.918-2.174,8.333-4.378,16.549-6.917,24.576A149.525,149.525,0,0,1,60.361,388.6v.088h-.088a30.732,30.732,0,0,0-8.391,7.282A10.1,10.1,0,0,0,49.81,400.8v.642l.073.642v.642a2.066,2.066,0,0,0,.219.613,4.626,4.626,0,0,0,1.343,2.131A16.287,16.287,0,0,0,56,408.127a41.009,41.009,0,0,0,5.035,1.737,98.72,98.72,0,0,0,10.3,2.306,274.357,274.357,0,0,0,39.855,3.371q9.53.2,18.5,0c2.919-.161,5.954,0,8.844,0s5.735.087,8.537.087c11.179,0,21.525-.423,30.909-1.255a163.348,163.348,0,0,0,24.984-3.838c1.795-.452,3.517-.949,5.137-1.459a27.016,27.016,0,0,0,4.509-2,7.3,7.3,0,0,0,3.181-2.919,6.509,6.509,0,0,0,.5-3.926,13.134,13.134,0,0,0-3.284-5.837,29.56,29.56,0,0,0-3.663-3.415c-1.065-.846-1.912-1.459-2.481-1.824Z" transform="translate(-49.08 -269.524)" fill="#263238"/>
      <path id="Path_21" data-name="Path 21" d="M142.138,379.353c4.7,23.627,22.956,111.83,27.553,134.1a4.2,4.2,0,0,1-4.013,5.122h0a4.13,4.13,0,0,1-3.969-3.108L126.086,382.8a7.3,7.3,0,0,1,6.815-9.267h2.247a7.136,7.136,0,0,1,6.99,5.823Z" transform="translate(-13.832 -221.749)" fill="#455a64"/>
      <path id="Path_22" data-name="Path 22" d="M193.454,358.307a.962.962,0,0,1-.321.088l-.992.175-3.78.584c-3.284.5-8.041,1.124-13.951,1.8-11.806,1.343-28.18,2.641-46.305,2.919s-34.557-.482-46.393-1.459c-5.925-.467-10.712-.934-14.01-1.328l-3.794-.452-.992-.146a.95.95,0,0,1-.336-.073h1.343l3.809.321c3.3.306,8.1.686,14.01,1.095,11.835.8,28.238,1.459,46.349,1.2s34.455-1.459,46.261-2.744c5.91-.6,10.682-1.138,13.981-1.547l3.794-.452.992-.088a.847.847,0,0,1,.336.117Z" transform="translate(-42.879 -228.795)" fill="#263238"/>
      <g id="Group_1" data-name="Group 1" transform="translate(23.811 118.386)" opacity="0.3">
        <path id="Path_23" data-name="Path 23" d="M182.909,355.03c-1.124-2.8-5.662-3.5-9.384-3.678a602.182,602.182,0,0,0-104.5,4.028,6.583,6.583,0,0,0-2.817.788c-.773.511-1.124,1.459-.452,2.116l-.161,1.737c34.441,7.574,71.041,6,106.532,2.262a22.138,22.138,0,0,0,7.764-1.766C182.121,359.349,183.74,357.087,182.909,355.03Z" transform="translate(-65.396 -350.646)"/>
      </g>
      <path id="Path_24" data-name="Path 24" d="M454.342,447.831c-.117.175-20.431-14.9-45.24-33.653S364.183,380.088,364.3,380s20.431,14.885,45.24,33.653S454.444,447.67,454.342,447.831Z" transform="translate(95.716 -218.777)" fill="#263238"/>
      <path id="Path_25" data-name="Path 25" d="M358,449.605c-.131-.161,20.1-15.892,45.167-35.127s45.517-34.7,45.648-34.528-20.1,15.892-45.24,35.127S358.117,449.766,358,449.605Z" transform="translate(92.822 -218.8)" fill="#263238"/>
      <path id="Path_26" data-name="Path 26" d="M369.335,368.12l-3.575,19.395h5.312l5.5-19.395Z" transform="translate(96.387 -224.234)" fill="#263238"/>
      <path id="Path_27" data-name="Path 27" d="M370.6,379.353c-4.714,23.627-22.956,111.83-27.567,134.1a4.2,4.2,0,0,0,4.028,5.122h0a4.13,4.13,0,0,0,3.955-3.108L386.608,382.8a7.3,7.3,0,0,0-6.83-9.267h-2.247a7.122,7.122,0,0,0-6.932,5.823Z" transform="translate(85.9 -221.749)" fill="#455a64"/>
      <path id="Path_28" data-name="Path 28" d="M418.858,368.12l3.575,19.395h-5.312l-5.5-19.395Z" transform="translate(117.452 -224.234)" fill="#263238"/>
      <path id="Path_29" data-name="Path 29" d="M491.614,388.327c-10.361-19.22-22.678-77.9-28.107-96.624-.146-.525-.306-1.036-.467-1.532A30.238,30.238,0,0,0,434.2,269.74H402.944a30.223,30.223,0,0,0-28.822,20.431c-.161.5-.321,1.007-.467,1.532-5.429,18.723-17.76,77.346-28.107,96.624,0,0-13.805,8.129-9.865,15.907,3.809,7.487,39.257,12.8,82.891,11.4,43.649,1.459,79.1-3.911,82.891-11.4C505.42,396.456,491.614,388.327,491.614,388.327Z" transform="translate(82.246 -269.425)" fill="#e0e0e0"/>
      <path id="Path_30" data-name="Path 30" d="M491.662,388.417a26.51,26.51,0,0,1,3.415,2.32,28.006,28.006,0,0,1,3.736,3.386,13.134,13.134,0,0,1,3.4,5.954,6.946,6.946,0,0,1-.482,4.1,7.662,7.662,0,0,1-3.225,3.211,26.4,26.4,0,0,1-4.553,2.029c-1.62.6-3.357,1.109-5.151,1.576a163.683,163.683,0,0,1-25.042,3.94c-9.384.876-19.76,1.328-30.953,1.343h-8.552c-2.9,0-5.837-.2-8.756,0q-8.975.233-18.534,0a274.352,274.352,0,0,1-39.972-3.327,102.6,102.6,0,0,1-10.376-2.306,44.271,44.271,0,0,1-5.122-1.766,17.51,17.51,0,0,1-4.758-2.787,5.312,5.312,0,0,1-1.532-2.437,5.464,5.464,0,0,1-.248-.686l-.088-.715v-1.445a10.887,10.887,0,0,1,2.2-5.2,31.582,31.582,0,0,1,8.479-7.428l-.146.146a149.046,149.046,0,0,0,8.756-23.058c2.466-8.012,4.728-16.213,6.888-24.546,2.277-8.756,4.378-17.366,6.523-25.889q1.605-6.392,3.152-12.7c1.095-4.188,2.087-8.347,3.429-12.434a30.238,30.238,0,0,1,17-17.775,32.107,32.107,0,0,1,11.967-2.379h29.114a48.342,48.342,0,0,1,5.618.219,31.33,31.33,0,0,1,10.536,3.108,30.91,30.91,0,0,1,8.552,6.363,29.785,29.785,0,0,1,5.516,8.479l.89,2.364c.248.8.511,1.591.715,2.393.438,1.591.89,3.152,1.284,4.714,1.62,6.246,3.079,12.273,4.48,18.008,5.575,22.97,10.42,41.475,14.462,54,1.97,6.3,3.838,11.076,5.166,14.3.657,1.605,1.284,2.758,1.634,3.575l.569,1.24s-.89-1.591-2.35-4.758a133.189,133.189,0,0,1-5.3-14.272c-4.145-12.565-9.063-31.07-14.71-54-1.459-5.735-2.919-11.748-4.524-17.979-.409-1.562-.846-3.123-1.284-4.714-.219-.8-.467-1.576-.715-2.364l-.876-2.306a29.187,29.187,0,0,0-5.575-8.406,30,30,0,0,0-18.694-9.238,43.624,43.624,0,0,0-5.546-.2h-17.25c-7.764.248-16.053-.978-23.554,2.35a29.523,29.523,0,0,0-16.578,17.352c-1.313,4-2.32,8.2-3.4,12.375s-2.087,8.42-3.152,12.682c-2.1,8.537-4.232,17.177-6.509,25.918-2.174,8.333-4.378,16.549-6.917,24.575a149.522,149.522,0,0,1-8.756,23.174v.088h-.088a30.733,30.733,0,0,0-8.26,7.224,10.083,10.083,0,0,0-2.058,4.83v1.284l.073.642a2.065,2.065,0,0,0,.219.613,4.626,4.626,0,0,0,1.343,2.131,16.288,16.288,0,0,0,4.553,2.656,41.023,41.023,0,0,0,5.035,1.737,98.743,98.743,0,0,0,10.3,2.306,274.358,274.358,0,0,0,39.855,3.371q9.53.2,18.5,0c2.992-.161,5.954,0,8.844,0s5.735.088,8.537.088c11.179,0,21.54-.423,30.909-1.255a163.343,163.343,0,0,0,24.984-3.838c1.81-.452,3.517-.949,5.137-1.459a27.016,27.016,0,0,0,4.509-2A7.3,7.3,0,0,0,501.557,404a6.641,6.641,0,0,0,.511-3.926,13.134,13.134,0,0,0-3.3-5.837,28.576,28.576,0,0,0-3.663-3.415c-1.065-.846-1.912-1.459-2.481-1.824Z" transform="translate(82.197 -269.515)" fill="#263238"/>
      <path id="Path_31" data-name="Path 31" d="M427.765,379.353c4.7,23.627,22.956,111.83,27.567,134.1a4.217,4.217,0,0,1-4.028,5.122h0a4.1,4.1,0,0,1-3.955-3.108L411.756,382.8a7.3,7.3,0,0,1,6.815-9.267h2.262A7.136,7.136,0,0,1,427.765,379.353Z" transform="translate(117.39 -221.749)" fill="#455a64"/>
      <path id="Path_32" data-name="Path 32" d="M479.1,358.307a.962.962,0,0,1-.321.088l-.978.175-3.78.584c-3.284.5-8.056,1.124-13.966,1.8-11.792,1.343-28.18,2.641-46.305,2.919s-34.557-.482-46.393-1.459c-5.925-.467-10.712-.934-14.01-1.328l-3.794-.452-.992-.146c-.219,0-.336,0-.321-.073h1.328l3.809.321c3.313.306,8.1.686,14.01,1.095,11.85.8,28.238,1.459,46.349,1.2s34.47-1.459,46.276-2.744c5.837-.6,10.668-1.138,13.966-1.547l3.794-.452.992-.088a.847.847,0,0,1,.336.117Z" transform="translate(88.339 -228.795)" fill="#263238"/>
      <g id="Group_2" data-name="Group 2" transform="translate(440.674 118.386)" opacity="0.3">
        <path id="Path_33" data-name="Path 33" d="M468.559,355.03c-1.124-2.8-5.662-3.5-9.384-3.678a602.181,602.181,0,0,0-104.5,4.028,6.582,6.582,0,0,0-2.817.788c-.773.511-1.124,1.459-.452,2.116l-.16,1.737c34.455,7.574,71.041,6,106.532,2.262a22.137,22.137,0,0,0,7.764-1.766C467.727,359.349,469.39,357.087,468.559,355.03Z" transform="translate(-351.046 -350.646)"/>
      </g>
    </g>
    <g id="freepik--Clock--inject-7" transform="translate(532.953 44.818)">
      <circle id="Ellipse_1" data-name="Ellipse 1" cx="51.238" cy="51.238" r="51.238" transform="translate(10.264)" fill="#90caf9"/>
      <circle id="Ellipse_2" data-name="Ellipse 2" cx="45.459" cy="45.459" r="45.459" transform="translate(16.204 5.779)" fill="#fff"/>
      <path id="Path_34" data-name="Path 34" d="M474.681,90.64a5.553,5.553,0,0,0-.073-.744c-.073-.482-.073-1.226-.146-2.16l-.088-1.591a14.733,14.733,0,0,0-.292-1.9,33.294,33.294,0,0,0-.949-4.684A43.241,43.241,0,0,0,468.1,67.509a45.444,45.444,0,0,0-30.53-21.263,41.1,41.1,0,0,0-5.721-.671c-.978,0-1.956-.117-2.919-.1l-2.992.146a6.813,6.813,0,0,0-1.459.1l-1.459.233c-1.007.161-2.029.277-3.05.5a47.782,47.782,0,0,0-6.013,1.766A46.611,46.611,0,0,0,408.12,50.8c-.949.525-1.868,1.124-2.8,1.678-.467.306-.963.555-1.459.89l-1.328.992a49.62,49.62,0,0,0-5.122,4.378,50.844,50.844,0,0,0-4.378,5.239l-1.036,1.459-.919,1.459-.9,1.459a12.2,12.2,0,0,0-.846,1.547c-.5,1.051-1.007,2.116-1.532,3.181s-.8,2.233-1.226,3.342a48.426,48.426,0,0,0-2.32,14.243,47.9,47.9,0,0,0,2.163,14.239l1.223,3.347,1.532,3.181a9.763,9.763,0,0,0,.846,1.532l.9,1.459.9,1.459,1.051,1.459a50.835,50.835,0,0,0,4.378,5.239,49.617,49.617,0,0,0,5.122,4.378l1.328.992c.438.336.934.584,1.386.89.949.555,1.868,1.153,2.817,1.678a46.613,46.613,0,0,0,5.837,2.583,47.777,47.777,0,0,0,6.012,1.766c1.022.219,2.043.336,3.05.5l1.459.233a6.813,6.813,0,0,1,1.459.1l2.992.146a27.452,27.452,0,0,0,2.919-.1,40.864,40.864,0,0,0,5.721-.671,44.6,44.6,0,0,0,18.971-8.435,45.079,45.079,0,0,0,11.514-12.828,43.236,43.236,0,0,0,5.035-12.054,33.294,33.294,0,0,0,.949-4.685c.1-.686.233-1.328.292-1.9l.088-1.591c.073-.934.117-1.649.146-2.16a7.185,7.185,0,0,1,.073-.73v.73c0,.511,0,1.226-.088,2.16v1.605a16.788,16.788,0,0,1-.263,1.9,34.631,34.631,0,0,1-.89,4.728,43.338,43.338,0,0,1-4.976,12.171,45.619,45.619,0,0,1-30.544,21.555,41.415,41.415,0,0,1-5.837.686c-.978,0-1.97.131-2.919.117l-3.021-.146a7.73,7.73,0,0,1-1.532-.1l-1.532-.219c-1.007-.175-2.043-.292-3.079-.5a52.536,52.536,0,0,1-6.1-1.78,47.745,47.745,0,0,1-5.969-2.612c-.963-.525-1.9-1.138-2.919-1.707-.467-.292-.963-.555-1.459-.89l-1.343-1.007a49.118,49.118,0,0,1-5.2-4.378,50.66,50.66,0,0,1-4.495-5.3l-1.051-1.459-.919-1.459-.919-1.459a13.608,13.608,0,0,1-.861-1.562l-1.547-3.24c-.423-1.124-.832-2.247-1.255-3.386A49.338,49.338,0,0,1,383.34,90.7a49.169,49.169,0,0,1,2.422-14.506c.423-1.138.832-2.277,1.255-3.4s1.036-2.145,1.547-3.225a12.478,12.478,0,0,1,.861-1.562l.919-1.459.919-1.459,1.051-1.459a42.086,42.086,0,0,1,9.734-9.807l1.357-1.007a15.452,15.452,0,0,1,1.459-.89c.949-.569,1.883-1.182,2.846-1.707A47.749,47.749,0,0,1,413.68,47.6a52.543,52.543,0,0,1,6.1-1.78c1.036-.2,2.058-.321,3.079-.482l1.532-.233a7.732,7.732,0,0,0,1.532-.1l3.021-.146c1.007,0,2,.088,2.919.117a41.42,41.42,0,0,1,5.837.686,45.619,45.619,0,0,1,30.748,21.613A43.181,43.181,0,0,1,473.323,79.5a34.664,34.664,0,0,1,.89,4.728c.088.686.2,1.313.263,1.9a14.691,14.691,0,0,1,0,1.605,14.587,14.587,0,0,0,.088,2.16Z" transform="translate(-367.56 -39.402)" fill="#263238"/>
      <path id="Path_35" data-name="Path 35" d="M436.921,82.254a11.675,11.675,0,0,1-1.839.525l-5.064,1.211c-4.305.992-10.215,2.335-16.928,3.794l-.379.088V86.121c0-7.136,0-13.572.088-18.242,0-2.247.073-4.115.1-5.531a14.242,14.242,0,0,1,.117-2.028,12.675,12.675,0,0,1,.131,2.028c0,1.459,0,3.284.1,5.531,0,4.67.088,11.106.088,18.242v1.313l-.379-.306c6.655-1.459,12.638-2.729,16.958-3.619l5.122-1.007A10.216,10.216,0,0,1,436.921,82.254Z" transform="translate(-354.069 -32.3)" fill="#263238"/>
      <path id="Path_36" data-name="Path 36" d="M457.906,108.372a4.928,4.928,0,0,1,.2-.744c.131-.482.409-1.168.657-2.072a54.967,54.967,0,0,0,1.78-7.793,52.653,52.653,0,0,0-16.987-47.575,55.763,55.763,0,0,0-6.319-4.9c-.773-.555-1.459-.9-1.824-1.2a3.9,3.9,0,0,1-.628-.438,4.071,4.071,0,0,1,.686.336c.438.248,1.109.569,1.9,1.095a47.308,47.308,0,0,1,6.479,4.772,51.749,51.749,0,0,1,17.133,48A48.163,48.163,0,0,1,459,105.658c-.292.9-.6,1.576-.773,2.043a3.149,3.149,0,0,1-.321.671Z" transform="translate(-343.926 -39.958)" fill="#263238"/>
      <path id="Path_37" data-name="Path 37" d="M459.84,82.166c-.1,0-.16-1.81-.525-4.7a55.12,55.12,0,0,0-7.3-21.394c-1.459-2.51-2.554-3.969-2.466-4.042a5.942,5.942,0,0,1,.846.963,29.428,29.428,0,0,1,2,2.919A48.066,48.066,0,0,1,459.782,77.5c.131,1.459.175,2.656.175,3.473a4.908,4.908,0,0,1-.117,1.2Z" transform="translate(-337.148 -36.108)" fill="#263238"/>
      <path id="Path_38" data-name="Path 38" d="M383.732,59.42a2.624,2.624,0,0,1-.306.7c-.219.452-.6,1.08-.992,1.941a57.31,57.31,0,0,0-2.992,7.413,53.456,53.456,0,0,0,14.666,55.543c.671.671,1.255,1.124,1.62,1.459a3.6,3.6,0,0,1,.54.54,3.239,3.239,0,0,1-.628-.438c-.394-.306-.992-.744-1.693-1.372a47.246,47.246,0,0,1-5.633-5.75,51.719,51.719,0,0,1-9.3-50.114,48.959,48.959,0,0,1,3.2-7.384c.438-.846.846-1.459,1.094-1.9a5.906,5.906,0,0,1,.423-.642Z" transform="translate(-370.841 -32.714)" fill="#263238"/>
      <path id="Path_39" data-name="Path 39" d="M373.217,73.61c.1,0-.131,1.81-.219,4.728a56.11,56.11,0,0,0,.759,11.339,57.148,57.148,0,0,0,3.065,10.945c1.065,2.714,1.9,4.378,1.795,4.378a4.792,4.792,0,0,1-.686-1.08,26.545,26.545,0,0,1-1.459-3.123,48.4,48.4,0,0,1-3.254-11,49.316,49.316,0,0,1-.584-11.47c.1-1.459.263-2.656.394-3.459A4.714,4.714,0,0,1,373.217,73.61Z" transform="translate(-372.527 -26.196)" fill="#263238"/>
      <path id="Path_40" data-name="Path 40" d="M440.788,81.581c-1.722-.35-3.108-.657-3.108-.671s1.459.263,3.123.613,3.094.642,3.094.657S442.525,81.932,440.788,81.581Z" transform="translate(-342.599 -22.843)" fill="#263238"/>
      <path id="Path_41" data-name="Path 41" d="M440.835,81.7a6.523,6.523,0,0,1,1.868.1l.934.131h.394s-.321,0-.336.219a.336.336,0,0,0,.161.394h0l-.54-.1-2.423-.482-2.408-.511-.525-.117h0a.336.336,0,0,0,.277-.336c0-.161-.248-.35-.219-.306h.321l.9.248c1.109.306,1.78.54,1.766.642a4.611,4.611,0,0,1-1.883-.117l-.919-.161h-.379s-.277-.146-.248-.321.117-.321.306-.321h.219l.555.088c.759.117,1.576.277,2.437.452s1.678.365,2.408.54l.54.131h.2a.365.365,0,0,1,.175.423c0,.161-.35.263-.365.219H443.7l-1.124-.19C441.492,82.032,440.806,81.8,440.835,81.7Z" transform="translate(-342.645 -22.957)" fill="#263238"/>
      <path id="Path_42" data-name="Path 42" d="M437.644,89.735c-1.459-.89-2.729-1.62-2.714-1.634s1.24.686,2.744,1.576,2.729,1.62,2.714,1.634S439.148,90.625,437.644,89.735Z" transform="translate(-343.862 -19.54)" fill="#263238"/>
      <path id="Path_43" data-name="Path 43" d="M437.758,89.825a5.328,5.328,0,0,1,1.737.7l.832.438.219.1h0s-.321,0-.379.1a.321.321,0,0,0,0,.423h-.073l-.467-.277L437.5,90.087l-2.116-1.27-.467-.277h0a.336.336,0,0,0,.379-.219c.1-.146-.117-.409-.1-.35h0l.219.131.773.525a6.185,6.185,0,0,1,1.459,1.182,5.2,5.2,0,0,1-1.737-.715l-.832-.452-.233-.131h0s-.234-.234-.131-.379a.336.336,0,0,1,.394-.219l.2.088.5.263q1.007.555,2.145,1.226c.759.438,1.459.876,2.116,1.284l.467.306.161.117a.379.379,0,0,1,0,.452c-.073.146-.423.131-.423.088H440.2l-.219-.131-.8-.511C438.269,90.364,437.7,89.912,437.758,89.825Z" transform="translate(-343.976 -19.63)" fill="#263238"/>
      <path id="Path_44" data-name="Path 44" d="M432,96.423C430.876,95.08,430,94,430,94s.949,1.065,2.087,2.393,2.043,2.423,2.029,2.423S433.138,97.751,432,96.423Z" transform="translate(-346.126 -16.83)" fill="#263238"/>
      <path id="Path_45" data-name="Path 45" d="M432.1,96.49a7.167,7.167,0,0,1,1.459,1.226l.657.671.175.19h0s-.292-.146-.394,0a.321.321,0,0,0-.117.423h0l-.365-.423-1.605-1.853-1.591-1.883-.35-.423h0a.336.336,0,0,0,.423-.088c.146-.1,0-.438,0-.379h0l.161.2.555.744c.686.919,1.08,1.459.992,1.591s-.613-.409-1.459-1.255L430,94.549l-.175-.2h0s-.131-.277,0-.409a.35.35,0,0,1,.452,0,.875.875,0,0,1,.16.146l.379.409c.525.555,1.065,1.182,1.634,1.853s1.109,1.313,1.576,1.912l.35.438.117.161c.117.161,0,.423-.117.438a3.871,3.871,0,0,1-.423,0h0l-.16-.2-.6-.744A7.528,7.528,0,0,1,432.1,96.49Z" transform="translate(-346.232 -16.897)" fill="#263238"/>
      <path id="Path_46" data-name="Path 46" d="M424.528,100.919C423.886,99.3,423.375,98,423.39,98s.555,1.3,1.2,2.919,1.153,2.919,1.138,2.919S425.17,102.539,424.528,100.919Z" transform="translate(-349.163 -14.992)" fill="#263238"/>
      <path id="Path_47" data-name="Path 47" d="M424.625,101.046a5.229,5.229,0,0,1,.949,1.62l.394.846.1.233h0s-.234-.248-.365-.161a.321.321,0,0,0-.248.365h0l-.219-.5c-.306-.759-.613-1.459-.919-2.291l-.89-2.291-.2-.511h0a.336.336,0,0,0,.423,0c.175,0,.16-.409.146-.365v.131l.088.234.292.89c.35,1.095.525,1.78.423,1.824s-.452-.584-.934-1.634c-.117-.292-.248-.569-.38-.861l-.1-.233v-.219s0-.321.131-.379a1.1,1.1,0,0,1,.438,0,.747.747,0,0,1,.1.2l.234.511c.306.686.628,1.459.949,2.277s.628,1.591.876,2.306l.19.54v.19c0,.19-.146.394-.234.379s-.423-.161-.394-.19h0l-.088-.248c-.1-.292-.2-.584-.321-.89a4.861,4.861,0,0,1-.438-1.78Z" transform="translate(-349.259 -15.12)" fill="#263238"/>
      <path id="Path_48" data-name="Path 48" d="M416.037,102.757c-.073-1.751-.131-3.167-.117-3.167s.1,1.459.175,3.152.131,3.167.117,3.167A23.609,23.609,0,0,1,416.037,102.757Z" transform="translate(-352.595 -14.262)" fill="#263238"/>
      <path id="Path_49" data-name="Path 49" d="M416.124,102.849a4.9,4.9,0,0,1,.365,1.839l.1.934v.306h0s-.131-.306-.292-.263-.35.088-.35.248h0v-.555c0-.817-.088-1.62-.131-2.452s0-1.649-.088-2.466v-.6h0a.35.35,0,0,0,.394.2c.175,0,.277-.336.248-.292h0v1.255a4.757,4.757,0,0,1-.19,1.868,4.787,4.787,0,0,1-.35-1.853V99.711s0-.321.248-.321.336,0,.394.219a1.006,1.006,0,0,1,0,.219v.555c0,.759.117,1.591.146,2.466s.073,1.707.073,2.481v.555a.867.867,0,0,1,0,.2c0,.161-.277.321-.365.277s-.336-.292-.292-.306v-1.313a4.831,4.831,0,0,1,.087-1.9Z" transform="translate(-352.681 -14.354)" fill="#263238"/>
      <path id="Path_50" data-name="Path 50" d="M407.871,101.705c.482-1.678.89-3.035.9-3.035s-.365,1.372-.846,3.05-.9,3.035-.919,3.035S407.375,103.384,407.871,101.705Z" transform="translate(-356.687 -14.684)" fill="#263238"/>
      <path id="Path_51" data-name="Path 51" d="M407.976,101.763c.1,0,0,.73-.263,1.853-.073.306-.131.613-.2.919v.321s0-.336-.19-.35a.35.35,0,0,0-.409.131h0l.146-.525c.219-.788.438-1.562.671-2.364s.467-1.576.7-2.364l.16-.525h0a.35.35,0,0,0,.292.321.515.515,0,0,0,.336-.2h0l-.088.248-.321.876c-.394,1.08-.671,1.737-.773,1.707s0-.744.263-1.868l.234-.9v-.263h0s.16-.277.336-.219.306.131.306.321a1.161,1.161,0,0,1,0,.219l-.131.555c-.175.73-.394,1.547-.642,2.379s-.5,1.649-.73,2.364l-.19.525a.654.654,0,0,1-.073.19.336.336,0,0,1-.423.146c-.16,0-.233-.365-.19-.379v-.1l.073-.263.306-.89C407.582,102.391,407.874,101.734,407.976,101.763Z" transform="translate(-356.792 -14.742)" fill="#263238"/>
      <path id="Path_52" data-name="Path 52" d="M400.57,97.9c1.007-1.459,1.839-2.583,1.853-2.568s-.788,1.182-1.81,2.612-1.839,2.568-1.853,2.568S399.592,99.329,400.57,97.9Z" transform="translate(-360.477 -16.219)" fill="#263238"/>
      <path id="Path_53" data-name="Path 53" d="M400.663,97.981a5.371,5.371,0,0,1-.846,1.678c-.175.263-.336.525-.5.788l-.131.219h0s.088-.336,0-.394a.336.336,0,0,0-.438,0h0l.321-.452,1.459-2.028c.5-.671.963-1.328,1.459-2l.321-.438h0a.336.336,0,0,0,.19.394c.146.1.423-.088.365-.073h0l-.16.19-.584.73c-.73.89-1.211,1.459-1.3,1.357s.248-.7.861-1.664c.175-.277.336-.54.511-.788l.146-.219h0s.248-.2.394-.1a.35.35,0,0,1,.175.423c-.088.175-.073.117-.1.19l-.306.482c-.409.628-.89,1.313-1.459,2.028s-1.007,1.459-1.459,2l-.35.438-.131.161a.35.35,0,0,1-.452,0c-.146-.073-.1-.423,0-.423h0l.146-.219.584-.744A6.628,6.628,0,0,1,400.663,97.981Z" transform="translate(-360.57 -16.301)" fill="#263238"/>
      <path id="Path_54" data-name="Path 54" d="M394.854,91.749l2.583-1.839s-1.124.861-2.539,1.883-2.583,1.839-2.6,1.824Z" transform="translate(-363.444 -18.708)" fill="#263238"/>
      <path id="Path_55" data-name="Path 55" d="M395.01,91.862a6.027,6.027,0,0,1-1.343,1.3l-.73.6-.19.161h0s.175-.292,0-.409a.336.336,0,0,0-.409-.146h0l.438-.321,1.985-1.459,2.014-1.459.452-.306h0a.35.35,0,0,0,0,.438c.1.161.438,0,.379,0h0l-.219.131-.788.511c-.963.6-1.605.949-1.664.861s.452-.584,1.357-1.3l.744-.584.2-.161h0s.292-.117.394,0a.292.292,0,0,1,0,.438l-.16.161-.438.35c-.613.467-1.27.963-1.985,1.459s-1.459.992-2.029,1.459l-.467.306-.175.1c-.146.088-.423,0-.423-.146s0-.438.073-.409h0l.219-.161.773-.511C394.324,92.11,394.937,91.774,395.01,91.862Z" transform="translate(-363.6 -18.821)" fill="#263238"/>
      <path id="Path_56" data-name="Path 56" d="M391.271,83.91c1.678-.511,3.035-.9,3.035-.89s-1.343.438-3.021.949-3.035.9-3.035.89S389.593,84.45,391.271,83.91Z" transform="translate(-365.304 -21.873)" fill="#263238"/>
      <path id="Path_57" data-name="Path 57" d="M391.368,84.025a5.317,5.317,0,0,1-1.693.8l-.876.321-.248.088h0s.263-.2.19-.365-.175-.306-.336-.263,0,0,.073,0l.511-.175,2.364-.73,2.35-.7.525-.146h0a.336.336,0,0,0-.1.423c0,.175.394.2.35.175h-.336l-.9.219c-1.124.263-1.824.379-1.853.277s.613-.394,1.693-.788c.306-.1.6-.219.9-.306l.248-.088h.1s.321,0,.379.161a.35.35,0,0,1-.117.438l-.2.088-.525.19c-.715.248-1.459.5-2.35.759s-1.649.482-2.379.671l-.54.146h-.2c-.161,0-.38-.19-.35-.277s.19-.409.2-.365h.073l.248-.073.919-.234A5.146,5.146,0,0,1,391.368,84.025Z" transform="translate(-365.402 -21.988)" fill="#263238"/>
      <path id="Path_58" data-name="Path 58" d="M390.237,75.318a29.192,29.192,0,0,1,3.167.146c0,.015-1.459,0-3.167-.088l-3.167-.146S388.427,75.245,390.237,75.318Z" transform="translate(-365.846 -25.452)" fill="#263238"/>
      <path id="Path_59" data-name="Path 59" d="M390.356,75.434a4.772,4.772,0,0,1-1.868.2h-1.27s.321-.1.292-.263a.321.321,0,0,0-.219-.379h3.079l2.466.1h.54a.336.336,0,0,0-.219.379c0,.175.306.306.263.263h-.336l-.934-.1a4.933,4.933,0,0,1-1.839-.336,4.641,4.641,0,0,1,1.868-.19h1.328s.306.1.292.277a.35.35,0,0,1-.248.379.628.628,0,0,1-.219,0H390.3a14.812,14.812,0,0,1-2.466-.131h-.759c-.16,0-.306-.292-.248-.379s.306-.321.321-.277h1.313a4.641,4.641,0,0,1,1.9.452Z" transform="translate(-365.965 -25.568)" fill="#263238"/>
      <path id="Path_60" data-name="Path 60" d="M391.849,67.345c1.634.628,2.919,1.153,2.919,1.167s-1.343-.482-2.919-1.109-2.919-1.138-2.919-1.153S390.214,66.79,391.849,67.345Z" transform="translate(-364.992 -29.577)" fill="#263238"/>
      <path id="Path_61" data-name="Path 61" d="M391.942,67.428c0,.1-.73,0-1.824-.394l-.9-.292h-.234s.336,0,.35-.175a.307.307,0,0,0-.088-.409h.073l.511.19,2.306.861,2.291.9.511.19h0a.336.336,0,0,0-.321.277c-.073.175.19.394.16.336h0l-.234-.1-.846-.394c-1.036-.482-1.678-.817-1.634-.919a4.991,4.991,0,0,1,1.824.423l.9.306.233.088h.073s.263.19.19.365a.336.336,0,0,1-.35.263h-.219l-.54-.175-2.32-.846L389.563,67l-.511-.234-.175-.088a.35.35,0,0,1-.117-.438c0-.161.379-.2.394-.161h0l.248.1.861.365A7.8,7.8,0,0,1,391.942,67.428Z" transform="translate(-365.085 -29.66)" fill="#263238"/>
      <path id="Path_62" data-name="Path 62" d="M395.967,60.434c1.343,1.124,2.423,2.043,2.408,2.058s-1.109-.89-2.437-2.014-2.423-2.043-2.408-2.058S394.625,59.266,395.967,60.434Z" transform="translate(-362.879 -33.173)" fill="#263238"/>
      <path id="Path_63" data-name="Path 63" d="M396.121,60.553a5.834,5.834,0,0,1-1.591-.992c-.263-.175-.511-.365-.759-.555l-.2-.146h0s.321.1.394,0a.321.321,0,0,0,0-.423h0l.423.35,1.9,1.562,1.883,1.605.409.35h0a.336.336,0,0,0-.409.146c-.117.131,0,.438,0,.379h0l-.175-.175-.686-.642c-.817-.8-1.3-1.328-1.24-1.459s.671.292,1.591.992l.744.569.2.175h0s.19.263.073.409a.35.35,0,0,1-.423.131.584.584,0,0,1-.19-.117l-.452-.336c-.6-.467-1.24-.992-1.912-1.562s-1.3-1.109-1.868-1.62l-.409-.379-.146-.146a.365.365,0,0,1,0-.452c.088-.131.438,0,.423,0h0l.19.175.7.628C395.712,59.94,396.193,60.466,396.121,60.553Z" transform="translate(-363.032 -33.293)" fill="#263238"/>
      <path id="Path_64" data-name="Path 64" d="M402.124,55.19c.9,1.459,1.62,2.714,1.605,2.729s-.759-1.2-1.664-2.7-1.62-2.714-1.605-2.729S401.248,53.687,402.124,55.19Z" transform="translate(-359.696 -35.897)" fill="#263238"/>
      <path id="Path_65" data-name="Path 65" d="M402.215,55.317a5.645,5.645,0,0,1-1.2-1.459l-.54-.773-.146-.2h0s.263.2.394.1.263-.263.175-.394h0l.292.467,1.284,2.087c.438.73.846,1.459,1.255,2.131l.292.467h0a.321.321,0,0,0-.423,0c-.161.088-.088.423-.088.365h0l-.117-.219-.438-.832c-.525-1.022-.817-1.678-.715-1.722s.525.5,1.182,1.459l.511.788.146.233h0s.088.306,0,.394a.35.35,0,0,1-.452,0,.761.761,0,0,1-.131-.175l-.306-.467q-.642-.963-1.313-2.1c-.452-.744-.876-1.459-1.24-2.131l-.277-.5a1.785,1.785,0,0,1-.087-.175.379.379,0,0,1,.175-.423c.131-.088.438.088.409.131h0l.131.233.452.817C402.01,54.6,402.3,55.258,402.215,55.317Z" transform="translate(-359.787 -36.024)" fill="#263238"/>
      <path id="Path_66" data-name="Path 66" d="M409.631,52.214c.365,1.707.657,3.094.642,3.108s-.336-1.386-.7-3.094-.657-3.108-.642-3.108S409.266,50.506,409.631,52.214Z" transform="translate(-355.805 -37.445)" fill="#263238"/>
      <path id="Path_67" data-name="Path 67" d="M409.7,52.334a4.926,4.926,0,0,1-.657-1.751l-.263-.9V49.43h0s.19.277.336.219.321-.161.306-.321h0l.117.525c.19.8.365,1.591.54,2.408s.336,1.62.511,2.408l.1.54h0a.321.321,0,0,0-.409-.131c-.19,0-.219.365-.2.321v-.336l-.146-.919a4.875,4.875,0,0,1-.117-1.868,4.622,4.622,0,0,1,.642,1.751c.087.321.16.613.248.919v.365s0,.321-.19.365a.347.347,0,0,1-.423-.146c-.073-.146,0-.146,0-.219l-.146-.54c-.19-.73-.379-1.547-.569-2.408s-.336-1.678-.482-2.423l-.088-.555V49.2c0-.19.219-.365.306-.336s.379.219.35.234v.379l.175.919a4.816,4.816,0,0,1,.058,1.941Z" transform="translate(-355.874 -37.566)" fill="#263238"/>
      <path id="Path_68" data-name="Path 68" d="M417.939,51.842c-.2,1.737-.394,3.152-.409,3.152s.146-1.459.35-3.152.394-3.152.409-3.152A28.251,28.251,0,0,1,417.939,51.842Z" transform="translate(-351.855 -37.643)" fill="#263238"/>
      <path id="Path_69" data-name="Path 69" d="M418.019,51.963a5.019,5.019,0,0,1,0-1.868v-1.27s.073.321.248.306a.321.321,0,0,0,.379-.19h0v.54c-.088.817-.19,1.62-.277,2.452s-.2,1.634-.306,2.437l-.073.555h0a.321.321,0,0,0-.336-.263c-.19,0-.336.277-.292.248v-.336a7.617,7.617,0,0,1,.16-.919c.219-1.124.394-1.824.5-1.81a4.728,4.728,0,0,1,0,1.883V55.1s-.117.292-.306.277-.321-.088-.35-.277a.879.879,0,0,1,0-.219v-.569a22.145,22.145,0,0,1,.248-2.452c.1-.861.219-1.707.336-2.452l.1-.555v-.19c0-.19.321-.277.394-.219s.292.321.263.336v.379a5.377,5.377,0,0,1-.146.934C418.3,51.291,418.121,51.977,418.019,51.963Z" transform="translate(-351.935 -37.763)" fill="#263238"/>
      <path id="Path_70" data-name="Path 70" d="M426.351,54.129a26.284,26.284,0,0,1-1.459,2.846c-.073,0,.584-1.3,1.343-2.919a22.021,22.021,0,0,1,1.459-2.846A29.369,29.369,0,0,1,426.351,54.129Z" transform="translate(-348.475 -36.485)" fill="#263238"/>
      <path id="Path_71" data-name="Path 71" d="M426.421,54.188a5.078,5.078,0,0,1,.555-1.8c.117-.292.248-.584.35-.861l.1-.233h0s0,.321.131.365a.307.307,0,0,0,.423,0h0l-.234.5c-.35.73-.7,1.459-1.051,2.218L425.6,56.6l-.234.5h0a.35.35,0,0,0-.248-.35c-.161-.088-.409.161-.35.131h0l.131-.219.452-.817c.569-.992.963-1.591,1.051-1.547a4.959,4.959,0,0,1-.569,1.795l-.379.861-.1.233v.073h0s-.2.248-.365.161-.292-.19-.248-.365l.073-.219.219-.511c.306-.7.657-1.459,1.036-2.247s.744-1.459,1.109-2.218l.263-.482a.887.887,0,0,1,.1-.175c.088-.146.394-.161.452,0s.161.394.117.394h0l-.117.233-.438.832C426.917,53.633,426.581,54.232,426.421,54.188Z" transform="translate(-348.545 -36.544)" fill="#263238"/>
      <path id="Path_72" data-name="Path 72" d="M433.472,58.787c-1.24,1.24-2.247,2.233-2.262,2.218s.978-1.022,2.218-2.262,2.233-2.247,2.247-2.233S434.7,57.532,433.472,58.787Z" transform="translate(-345.571 -34.051)" fill="#263238"/>
      <path id="Path_73" data-name="Path 73" d="M433.562,58.93c-.073-.088.35-.657,1.109-1.459l.613-.7.175-.19h0s-.131.292,0,.394a.321.321,0,0,0,.423.073h0l-.379.394c-.569.584-1.124,1.167-1.722,1.766l-1.737,1.737-.394.379h0a.35.35,0,0,0-.117-.423c-.117-.131-.438,0-.379,0h0l.19-.175.7-.613a5.97,5.97,0,0,1,1.459-1.124,5.985,5.985,0,0,1-1.124,1.459c-.219.233-.423.467-.642.686l-.175.19h0s-.277.161-.409,0a.35.35,0,0,1-.1-.438l.131-.175.379-.409c.511-.569,1.094-1.167,1.707-1.795s1.211-1.2,1.78-1.722l.409-.379a.714.714,0,0,1,.146-.131.379.379,0,0,1,.452,0c.131.1,0,.438,0,.423h0l-.19.19-.686.642C434.2,58.565,433.635,59,433.562,58.93Z" transform="translate(-345.66 -34.194)" fill="#263238"/>
      <path id="Path_74" data-name="Path 74" d="M438.6,65.318c-1.576.788-2.846,1.459-2.919,1.459s1.255-.657,2.831-1.459a28.225,28.225,0,0,1,2.846-1.386C441.358,64,440.161,64.545,438.6,65.318Z" transform="translate(-343.518 -30.644)" fill="#263238"/>
      <path id="Path_75" data-name="Path 75" d="M438.686,65.422a5.922,5.922,0,0,1,1.532-1.065l.817-.467.219-.131h0s-.219.248-.117.379a.336.336,0,0,0,.379.219h-.073l-.482.248-2.2,1.109-2.2,1.08-.5.233h0a.35.35,0,0,0,0-.438c0-.161-.409-.117-.365-.1h.088l.219-.1.876-.365a5.006,5.006,0,0,1,1.78-.584A5.414,5.414,0,0,1,437.11,66.5l-.832.452-.234.117h-.073s-.321,0-.394-.1a.336.336,0,0,1,0-.452,1.575,1.575,0,0,1,.19-.117l.5-.277q1.007-.54,2.189-1.138c.788-.379,1.547-.744,2.233-1.051l.511-.233h.19c.16,0,.409.117.394.2s-.117.438-.146.409h0l-.234.117-.861.394C439.4,65.291,438.73,65.6,438.686,65.422Z" transform="translate(-343.605 -30.748)" fill="#263238"/>
      <path id="Path_76" data-name="Path 76" d="M441.108,73.073c-1.737.219-3.138.394-3.138.379s1.459-.219,3.138-.438,3.138-.409,3.138-.394S442.844,72.839,441.108,73.073Z" transform="translate(-342.465 -26.651)" fill="#263238"/>
      <path id="Path_77" data-name="Path 77" d="M441.2,73.164c0-.117.686-.292,1.81-.525l.919-.175h.248s-.292.161-.234.321.117.336.277.321h-.555l-2.437.336-2.437.306h-.555a.321.321,0,0,0,.161-.409c0-.175-.35-.248-.306-.219h1.27a6.39,6.39,0,0,1,1.868,0,5.253,5.253,0,0,1-1.81.5l-.919.161h-.394s-.321,0-.336-.219,0-.336.175-.409h.219l.555-.088c.744-.131,1.576-.248,2.437-.365s1.707-.219,2.466-.277h.759c.16,0,.336.233.306.321s-.248.365-.277.336h-.379l-.934.088a4.787,4.787,0,0,1-1.9,0Z" transform="translate(-342.559 -26.742)" fill="#263238"/>
      <path id="Path_78" data-name="Path 78" d="M460.807,69a33.163,33.163,0,0,1-2.627,5.925v.146l-.248.482-.292-.452a32.541,32.541,0,0,1-3.211-5.443,31.467,31.467,0,0,1,3.751,5.093h-.555l.073-.131A33.565,33.565,0,0,1,460.807,69Z" transform="translate(-334.905 -28.313)" fill="#263238"/>
    </g>
    <g id="freepik--speech-bubble--inject-7" transform="translate(180.697 171.308)">
      <circle id="Ellipse_3" data-name="Ellipse 3" cx="41.869" cy="41.869" r="41.869" transform="matrix(0.915, -0.404, 0.404, 0.915, 0, 33.792)" fill="#fff"/>
      <path id="Path_79" data-name="Path 79" d="M199.372,188.639a3.973,3.973,0,0,0-1.226.277,5.531,5.531,0,0,0-2.685,1.985,5.239,5.239,0,0,0-.949,2.1,4.612,4.612,0,0,0,.263,2.6,5.02,5.02,0,0,0,9.413.146,4.611,4.611,0,0,0,.35-2.583,5.3,5.3,0,0,0-.876-2.131,5.56,5.56,0,0,0-2.627-2.058c-.759-.277-1.226-.292-1.211-.336h.321a2.482,2.482,0,0,1,.409,0,3.066,3.066,0,0,1,.525.131,5.662,5.662,0,0,1,3.78,4.276,5.049,5.049,0,0,1-.336,2.787,5.838,5.838,0,0,1-1.941,2.393,5.049,5.049,0,0,1-6.275-.088,5.837,5.837,0,0,1-1.868-2.466,4.918,4.918,0,0,1-.248-2.8,5.691,5.691,0,0,1,3.911-4.145,2,2,0,0,1,.54-.117h.394Z" transform="translate(-102.235 -99.861)" fill="#263238"/>
      <path id="Path_80" data-name="Path 80" d="M224.035,185.273v-.686c0-.452.1-1.124.175-2,0-.438.088-.919.146-1.459s0-1.138,0-1.795v-2.072a7.725,7.725,0,0,0,0-1.153c0-.394-.088-.788-.131-1.211a40.294,40.294,0,0,0-2.919-11.777,41.752,41.752,0,0,0-8.756-13.426l-1.591-1.62c-.569-.511-1.167-.992-1.766-1.459l-.9-.759a7.8,7.8,0,0,0-.949-.73l-1.985-1.372c-.35-.219-.671-.467-1.022-.686l-1.094-.6-2.2-1.211c-.744-.379-1.547-.686-2.335-1.036l-1.2-.511-.613-.248-.628-.19a39.4,39.4,0,0,0-5.152-1.459c-.89-.161-1.78-.394-2.685-.511l-2.773-.292c-.467,0-.934-.1-1.459-.117h-4.378a46.7,46.7,0,0,0-5.837.773l-1.459.292-.73.161-.715.219-2.919.876c-.949.336-1.868.759-2.817,1.138-.467.219-.963.379-1.459.613l-1.357.73a47.13,47.13,0,0,0-5.327,3.283l-2.466,1.985-.628.511-.569.555-1.138,1.124-1.153,1.138-1.051,1.226-1.051,1.255-.525.613-.467.671-1.853,2.714-1.605,2.919a41.475,41.475,0,0,0-4.028,26.181c.219,1.094.423,2.174.642,3.254l.963,3.138.248.788.306.744.628,1.459.613,1.459.759,1.459.759,1.459.379.7.438.671c.584.876,1.182,1.766,1.751,2.641a45.588,45.588,0,0,0,4.1,4.728l1.08,1.109c.35.365.773.671,1.153,1.007.788.642,1.547,1.328,2.35,1.941l2.481,1.707.613.423.657.365,1.3.715a45.568,45.568,0,0,0,5.283,2.481c.9.336,1.824.584,2.729.876l1.343.423c.452.131.919.2,1.459.306l2.714.569c.9.146,1.824.2,2.729.306a36.556,36.556,0,0,0,5.341.2h1.313l1.284-.131c.861-.088,1.722-.131,2.554-.277l2.466-.482,1.211-.248,1.182-.35,2.32-.7a10.1,10.1,0,0,0,1.109-.409l1.094-.452c.715-.306,1.459-.584,2.131-.9l2.014-1.065a41.97,41.97,0,0,0,12.375-10.215l1.343-1.328.949-1.386.934-1.343c.146-.219.306-.423.438-.657l.365-.671c.5-.89.978-1.737,1.459-2.554a21.249,21.249,0,0,0,1.08-2.408l.5-1.124a8.147,8.147,0,0,0,.409-1.08c.219-.7.423-1.357.628-1.97s.394-1.182.525-1.707.219-1.007.306-1.459c.19-.861.336-1.459.423-1.956a3.691,3.691,0,0,1,.161-.671,2.926,2.926,0,0,1-.117.671c-.117.438-.219,1.109-.394,1.97-.073.438-.175.919-.277,1.459s-.336,1.095-.511,1.707-.409,1.284-.628,2a6.29,6.29,0,0,1-.394,1.065l-.482,1.138c-.336.759-.642,1.605-1.065,2.423l-1.459,2.583-.365.671c-.131.233-.292.438-.438.657L217,202.946c-.321.467-.628.934-.963,1.459a12.907,12.907,0,0,1-1.124,1.357,41.8,41.8,0,0,1-12.4,10.215l-2.014,1.08c-.7.321-1.459.6-2.16.9l-1.095.452a7.424,7.424,0,0,1-1.124.423l-2.32.715-1.182.35-1.226.248-2.5.5c-.832.146-1.693.19-2.568.292l-1.3.131h-1.255a39.4,39.4,0,0,1-5.385-.19c-.9-.1-1.839-.161-2.744-.306l-2.758-.569c-.452-.1-.919-.175-1.459-.306l-1.357-.423c-.9-.292-1.839-.555-2.744-.89a43.035,43.035,0,0,1-5.341-2.481l-1.313-.73-.657-.365-.613-.423-2.51-1.722c-.817-.613-1.576-1.3-2.364-1.956a15.594,15.594,0,0,1-1.182-1.022l-1.08-1.109a46.494,46.494,0,0,1-4.145-4.772l-1.722-2.481-.438-.671-.394-.7-.759-1.459-.759-1.459-.642-1.459-.628-1.459-.306-.759-.248-.788c-.321-1.051-.642-2.116-.978-3.181l-.657-3.269a45.358,45.358,0,0,1-.117-13.557,44.714,44.714,0,0,1,4.2-12.871l1.605-2.919,1.883-2.729.467-.686.54-.628,1.051-1.255,1.051-1.24,1.167-1.138,1.153-1.138.584-.569.628-.5q1.24-1.036,2.5-2.014a46.691,46.691,0,0,1,5.37-3.313l1.372-.73a14.576,14.576,0,0,1,1.459-.613c.949-.379,1.883-.8,2.846-1.153l2.919-.876.715-.233.744-.146,1.459-.292a44.761,44.761,0,0,1,5.837-.773H184.4c.482,0,.949.088,1.459.131l2.787.292c.919.131,1.81.35,2.714.525a37.941,37.941,0,0,1,5.2,1.459l.628.19.613.263,1.2.511c.788.35,1.605.657,2.364,1.051l2.218,1.226,1.095.6,1.022.7,2,1.459a5.837,5.837,0,0,1,.949.73l.919.759c.584.525,1.2,1.007,1.766,1.459l1.605,1.634a42.029,42.029,0,0,1,8.756,13.528,40.029,40.029,0,0,1,2.846,11.85c0,.423.088.832.117,1.226a6.173,6.173,0,0,1,0,1.153v3.867a12.742,12.742,0,0,1-.161,1.459c-.1.861-.175,1.532-.234,2S224.035,185.273,224.035,185.273Z" transform="translate(-127.073 -123.683)" fill="#263238"/>
      <path id="Path_81" data-name="Path 81" d="M161.42,162.748h5.91a5.02,5.02,0,0,1,5.151-5.049,4.787,4.787,0,0,1,4.626,3.05,5.3,5.3,0,0,1-.423,4.787c-1.007,1.649-3.2,3.152-7.18,2.452v13.324h5.837v-7.793a11.412,11.412,0,0,0,8.2-11.149c0-8.639-7.749-10.639-11.062-10.639C169.943,151.715,161.3,152.328,161.42,162.748Z" transform="translate(-117.243 -116.802)" fill="#90caf9"/>
      <rect id="Rectangle_20" data-name="Rectangle 20" width="5.925" height="5.531" transform="translate(52.248 67.238)" fill="#90caf9"/>
    </g>
    <g id="freepik--Character--inject-7" transform="translate(267.166 220.071)">
      <path id="Path_82" data-name="Path 82" d="M310,447.831c-.131.175-20.431-14.9-45.24-33.653S219.854,380.088,220,380s20.431,14.885,45.24,33.653S310.115,447.67,310,447.831Z" transform="translate(-176.804 -60.709)" fill="#263238"/>
      <path id="Path_83" data-name="Path 83" d="M213.67,449.605c-.131-.161,20.11-15.892,45.24-35.127s45.517-34.7,45.648-34.528-20.154,15.892-45.167,35.1S213.8,449.766,213.67,449.605Z" transform="translate(-179.711 -60.732)" fill="#263238"/>
      <path id="Path_84" data-name="Path 84" d="M225.03,368.12l-3.59,19.395h5.327l5.487-19.395Z" transform="translate(-176.142 -66.166)" fill="#263238"/>
      <path id="Path_85" data-name="Path 85" d="M226.275,379.353c-4.7,23.627-22.956,111.83-27.553,134.1a4.2,4.2,0,0,0,4.013,5.122h0a4.1,4.1,0,0,0,3.955-3.108L242.284,382.8a7.3,7.3,0,0,0-6.815-9.267h-2.247A7.136,7.136,0,0,0,226.275,379.353Z" transform="translate(-186.624 -63.681)" fill="#455a64"/>
      <path id="Path_86" data-name="Path 86" d="M274.534,368.12l3.59,19.395H272.8L267.31,368.12Z" transform="translate(-155.071 -66.166)" fill="#263238"/>
      <path id="Path_87" data-name="Path 87" d="M347.306,388.327c-10.347-19.22-22.678-77.9-28.107-96.623-.146-.525-.306-1.036-.467-1.532a30.223,30.223,0,0,0-28.822-20.431H258.636A30.252,30.252,0,0,0,229.8,290.171c-.161.5-.321,1.007-.467,1.532-5.429,18.723-17.746,77.345-28.107,96.623,0,0-13.805,8.129-9.851,15.907,3.794,7.487,39.242,12.8,82.891,11.4,43.635,1.459,79.082-3.911,82.891-11.4C361.1,396.456,347.306,388.327,347.306,388.327Z" transform="translate(-190.28 -111.357)" fill="#e0e0e0"/>
      <path id="Path_88" data-name="Path 88" d="M347.426,388.444a25.866,25.866,0,0,1,3.429,2.32,27.114,27.114,0,0,1,3.721,3.386,13.208,13.208,0,0,1,3.415,5.954,6.962,6.962,0,0,1-.5,4.1,7.588,7.588,0,0,1-3.3,3.152,25.918,25.918,0,0,1-4.553,2.028,53.456,53.456,0,0,1-5.151,1.576,163.766,163.766,0,0,1-25.028,3.94c-9.4.876-19.774,1.328-30.967,1.343H279.96c-2.89,0-5.837-.2-8.756,0-5.983.161-12.171.19-18.519,0a273.989,273.989,0,0,1-39.972-3.327,100.862,100.862,0,0,1-10.376-2.306,44.258,44.258,0,0,1-5.224-1.737,17.324,17.324,0,0,1-4.772-2.787,5.428,5.428,0,0,1-1.532-2.437c-.073-.219-.175-.452-.233-.686l-.088-.715-.088-.715a2.482,2.482,0,0,1,.073-.73,10.858,10.858,0,0,1,2.189-5.2,31.579,31.579,0,0,1,8.479-7.428l-.131.146a150.5,150.5,0,0,0,8.756-23.058c2.466-8.012,4.728-16.213,6.9-24.546,2.277-8.756,4.378-17.366,6.523-25.889q1.576-6.392,3.152-12.7c1.08-4.188,2.072-8.347,3.429-12.434a30.15,30.15,0,0,1,16.958-17.833,32.107,32.107,0,0,1,11.967-2.379h29.1a48.16,48.16,0,0,1,5.618.219,31.318,31.318,0,0,1,10.551,3.108,30.85,30.85,0,0,1,8.537,6.363,29.48,29.48,0,0,1,5.735,8.566l.9,2.364c.248.8.5,1.591.715,2.393.423,1.591.876,3.152,1.27,4.714,1.62,6.246,3.079,12.273,4.495,18.008,5.575,22.97,10.405,41.475,14.462,54,1.97,6.3,3.838,11.076,5.151,14.3.657,1.605,1.284,2.758,1.649,3.575s.555,1.24.555,1.24-.876-1.591-2.335-4.758a135.872,135.872,0,0,1-5.312-14.272c-4.13-12.565-9.063-31.07-14.7-54-1.459-5.735-2.919-11.748-4.539-17.979-.394-1.562-.846-3.123-1.284-4.714-.2-.8-.467-1.576-.7-2.364s-.6-1.459-.89-2.306a28.85,28.85,0,0,0-5.56-8.406,30.092,30.092,0,0,0-18.694-9.15,43.539,43.539,0,0,0-5.545-.2H270.591c-7.749.248-16.053-.978-23.539,2.35a29.479,29.479,0,0,0-16.578,17.352c-1.328,4-2.32,8.2-3.4,12.375s-2.1,8.42-3.152,12.682c-2.1,8.537-4.247,17.177-6.523,25.918-2.174,8.333-4.378,16.549-6.917,24.575a149.483,149.483,0,0,1-8.756,23.174v.088h-.1a30.956,30.956,0,0,0-8.26,7.224,10.084,10.084,0,0,0-2.058,4.83v.642l.073.642.073.642a2.521,2.521,0,0,0,.2.613A4.743,4.743,0,0,0,193,405.431a16.487,16.487,0,0,0,4.553,2.656,41.863,41.863,0,0,0,5.035,1.737,99.563,99.563,0,0,0,10.3,2.306,274.626,274.626,0,0,0,39.68,3.43q9.529.2,18.5,0c2.919-.161,5.94,0,8.844,0s5.735.088,8.523.088c11.179,0,21.54-.423,30.924-1.255a163.928,163.928,0,0,0,24.984-3.838c1.795-.452,3.517-.949,5.122-1.459a26.5,26.5,0,0,0,4.509-2,7.385,7.385,0,0,0,3.2-2.919,6.742,6.742,0,0,0,.5-3.926,13.134,13.134,0,0,0-3.3-5.837A28.58,28.58,0,0,0,350.709,391a27.667,27.667,0,0,0-2.481-1.824Z" transform="translate(-190.4 -111.474)" fill="#263238"/>
      <path id="Path_89" data-name="Path 89" d="M283.445,379.353c4.714,23.627,22.956,111.83,27.567,134.1a4.2,4.2,0,0,1-4.028,5.122h0a4.13,4.13,0,0,1-3.955-3.108L267.436,382.8a7.3,7.3,0,0,1,6.83-9.267h2.247a7.122,7.122,0,0,1,6.932,5.823Z" transform="translate(-155.139 -63.681)" fill="#455a64"/>
      <path id="Path_90" data-name="Path 90" d="M334.794,358.307l-.336.088-.978.175-3.78.584c-3.284.5-8.056,1.124-13.951,1.8-11.806,1.343-28.18,2.641-46.32,2.919s-34.557-.482-46.393-1.459c-5.925-.467-10.712-.934-14.01-1.328l-3.794-.452-.978-.146a.948.948,0,0,1-.336-.073h1.328l3.809.321c3.313.306,8.1.686,14.024,1.095,11.835.8,28.224,1.459,46.334,1.2s34.47-1.459,46.276-2.744c5.837-.6,10.682-1.138,13.966-1.547l3.809-.452.978-.088a.9.9,0,0,1,.35.117Z" transform="translate(-184.19 -70.727)" fill="#263238"/>
      <g id="Group_3" data-name="Group 3" transform="translate(23.836 276.454)" opacity="0.3">
        <path id="Path_91" data-name="Path 91" d="M324.25,355.03c-1.138-2.8-5.677-3.5-9.4-3.678a601.939,601.939,0,0,0-104.489,4.028,6.581,6.581,0,0,0-2.831.788,1.347,1.347,0,0,0-.438,2.116l-.161,1.737c34.441,7.574,71.027,6,106.533,2.262a22.213,22.213,0,0,0,7.764-1.766C323.447,359.349,325.067,357.087,324.25,355.03Z" transform="translate(-206.733 -350.646)"/>
      </g>
      <path id="Path_92" data-name="Path 92" d="M224.117,301.18s-18.869,16.943-22.8,36.017c-5.837,28.049,9.267,49.939,9.267,49.939,29.07,1.547,54.784,3.167,104.4,0l.846-72.822Z" transform="translate(-185.999 -96.915)" fill="#263238"/>
      <path id="Path_93" data-name="Path 93" d="M250.537,287.977c-.233-.8-6.947-24.327-6.947-24.327l27.728-15.469,7.9,30.851Z" transform="translate(-165.967 -121.26)" fill="#90caf9"/>
      <path id="Path_94" data-name="Path 94" d="M338.7,242.19c-2.831-6.348-7.457-10.361-14.739-12.9L301.849,223H250.393s-23.7.89-32.208,12.974l4.655,70.589s1.284,12.448-12.2,39.68c0,0,10.215,13.134,26.75,13.134s72.967-7.165,72.967-7.165l5.633-30.88,16.739-37.257a117.332,117.332,0,0,0,7.822-24.809A29.61,29.61,0,0,0,338.7,242.19Z" transform="translate(-181.103 -132.827)" fill="#90caf9"/>
      <path id="Path_95" data-name="Path 95" d="M256.459,313.436a6.31,6.31,0,0,1-.292-.817c-.19-.6-.423-1.459-.744-2.423-.642-2.16-1.562-5.254-2.7-9.121-2.291-7.91-5.516-19.044-9.34-32.208l-.073-.263.233-.131,27.728-15.5.438-.234.117.467c.219.846.452,1.751.671,2.656,2.525,9.982,4.933,19.512,7.122,28.209h-.657c6.334-13.762,11.675-25.539,15.6-33.915l4.524-9.7,1.24-2.568a5.931,5.931,0,0,1,.452-.876,6.528,6.528,0,0,1-.35.919l-1.124,2.612-4.378,9.792-15.352,34.032-.423.934-.248-.992c-2.2-8.683-4.626-18.227-7.165-28.195-.234-.9-.467-1.81-.671-2.656l.555.248-27.742,15.4.175-.394c3.707,13.134,6.83,24.357,9.063,32.281,1.065,3.9,1.912,7,2.525,9.179.263,1.036.482,1.839.628,2.452a4.979,4.979,0,0,1,.19.817Z" transform="translate(-166.096 -126.391)" fill="#263238"/>
      <path id="Path_96" data-name="Path 96" d="M220.866,229.79a28.983,28.983,0,0,0-10.215,22.4c.336,14.3,16.243,87.284,27.188,93.4,11.456,6.436,17.045,4.728,23.568,4.728s54.55-4.145,54.55-4.145l-.175-30.88L262.589,317l-18.826-67.334Z" transform="translate(-181.099 -129.708)" fill="#90caf9"/>
      <path id="Path_97" data-name="Path 97" d="M213.27,270.544s.088.263.219.759.336,1.284.584,2.233c.5,2,1.226,4.9,2.16,8.61,1.912,7.457,4.626,18.286,8.42,31.537.963,3.313,2.014,6.757,3.225,10.318a38.907,38.907,0,0,0,5.108,10.405,21.686,21.686,0,0,0,9.617,7.53,31.114,31.114,0,0,0,12.959,1.81c9.092-.35,18.651-1.051,28.545-1.766l30.646-2.35-.35.379v-.876c0-10.318-.117-20.431-.16-30.092l.379.379-53.208,1.649h-.248v-.248c-5.618-20.285-10.215-37.126-13.543-48.932-1.605-5.837-2.919-10.478-3.721-13.66q-.628-2.32-.963-3.59c-.2-.817-.292-1.24-.292-1.24s.146.409.394,1.211.584,2.029,1.036,3.575c.919,3.167,2.233,7.764,3.9,13.616,3.327,11.777,8.085,28.589,13.805,48.844l-.321-.234,53.208-1.751h.365v.379c0,9.7.117,19.774.175,30.077v1.153h-.35l-30.646,2.335c-9.909.7-19.453,1.386-28.589,1.722a31.594,31.594,0,0,1-13.222-1.883,22.357,22.357,0,0,1-9.88-7.793,38.949,38.949,0,0,1-5.151-10.58c-1.2-3.575-2.247-7.049-3.181-10.361-3.736-13.28-6.363-24.123-8.187-31.609-.876-3.736-1.562-6.64-2.043-8.639-.2-.963-.379-1.722-.5-2.262A2.636,2.636,0,0,0,213.27,270.544Z" transform="translate(-179.895 -123.456)" fill="#263238"/>
      <g id="Group_4" data-name="Group 4" transform="translate(41.343 179.909)" opacity="0.3">
        <path id="Path_98" data-name="Path 98" d="M238.4,322.973a17.351,17.351,0,0,1-7.691-6.728c-5.925-8.756-9.194-21.613-11.252-30.807l-.73-.949A117.024,117.024,0,0,0,224,311.065c1.591,4.509,3.6,9.121,7.3,12.127a19.657,19.657,0,0,0,12.229,3.882,58.838,58.838,0,0,0,12.915-1.795C252.806,325.22,244.079,325.5,238.4,322.973Z" transform="translate(-218.73 -284.49)"/>
      </g>
      <g id="Group_5" data-name="Group 5" transform="translate(65.569 130.262)" opacity="0.3">
        <path id="Path_99" data-name="Path 99" d="M235.33,250.47,254.856,303.6l46.013,2.335-49.589,1.591Z" transform="translate(-235.33 -250.47)"/>
      </g>
      <path id="Path_100" data-name="Path 100" d="M323.937,399.9l4.889,35.491s37.71,6.947,39.256,13.426L299.61,460.769l-9.88-54.988Z" transform="translate(-144.773 -51.568)" fill="#90caf9"/>
      <path id="Path_101" data-name="Path 101" d="M302.167,424.787a2.919,2.919,0,0,0-1.459,3.532,2.714,2.714,0,0,0,3.488,1.386,2.919,2.919,0,0,0,1.459-3.736,2.831,2.831,0,0,0-3.794-1.051" transform="translate(-139.799 -40.234)" fill="#e0e0e0"/>
      <path id="Path_102" data-name="Path 102" d="M296.934,447.74,296,442.486l65.919-11.076s3.284.8,3.313,3.006Z" transform="translate(-141.893 -37.094)" fill="#e0e0e0"/>
      <path id="Path_103" data-name="Path 103" d="M319.005,423.9c0,.336-1.605.773-3.05,2.145s-2.1,2.919-2.423,2.831-.175-2.087,1.62-3.707S319.02,423.584,319.005,423.9Z" transform="translate(-133.901 -40.621)" fill="#263238"/>
      <path id="Path_104" data-name="Path 104" d="M323.724,425.023c.131.306-1.226,1.124-2.116,2.744s-.949,3.167-1.284,3.211-.876-1.824.263-3.794S323.651,424.746,323.724,425.023Z" transform="translate(-130.915 -40.061)" fill="#263238"/>
      <path id="Path_105" data-name="Path 105" d="M326.56,432.386c-.292.117-1.051-1.459-.511-3.444s1.97-2.992,2.16-2.729-.6,1.459-1.022,3.035S326.881,432.3,326.56,432.386Z" transform="translate(-128.176 -39.5)" fill="#263238"/>
      <path id="Path_106" data-name="Path 106" d="M318.083,418.618c-.088.336-1.707.146-3.561.6s-3.24,1.313-3.473,1.051.992-1.693,3.2-2.2S318.2,418.326,318.083,418.618Z" transform="translate(-134.993 -43.303)" fill="#263238"/>
      <path id="Path_107" data-name="Path 107" d="M292.471,424l5.108,37.082,30.106,31.507a4.874,4.874,0,0,1-.5,7.107h0a4.816,4.816,0,0,1-4.378.9c-9.69-2.714-54.419-19.249-54.419-19.249-1.737-7.516-7.851-42.671-7.851-42.671Z" transform="translate(-158.181 -40.498)" fill="#90caf9"/>
      <path id="Path_108" data-name="Path 108" d="M265.17,460.18,325,483.121c-1.24,1.051-2.919,2.262-4.48,1.824l-53.252-19.19a1.561,1.561,0,0,1-1.007-1.124Z" transform="translate(-156.054 -23.878)" fill="#e0e0e0"/>
      <path id="Path_109" data-name="Path 109" d="M273.309,454.37a2.919,2.919,0,0,1,2.525,3.021,2.817,2.817,0,0,1-2.919,2.525,3.108,3.108,0,0,1-2.714-3.167,2.919,2.919,0,0,1,3.386-2.291" transform="translate(-153.744 -26.547)" fill="#fff"/>
      <path id="Path_110" data-name="Path 110" d="M288.692,464.892c.292,0,.686-2.627,3.065-4.641s5.035-2.131,5.02-2.437-.671-.321-1.78-.19a7.808,7.808,0,0,0-6.261,5.473C288.458,464.192,288.56,464.892,288.692,464.892Z" transform="translate(-145.31 -25.088)" fill="#263238"/>
      <path id="Path_111" data-name="Path 111" d="M293.952,468.828c.292.088.9-2,2.744-3.78s3.882-2.423,3.809-2.714-2.481-.1-4.539,1.97S293.66,468.843,293.952,468.828Z" transform="translate(-142.88 -22.938)" fill="#263238"/>
      <path id="Path_112" data-name="Path 112" d="M282.449,461.193c.263.16,2.014-2.685,5.327-4.918s6.567-2.919,6.509-3.167-3.575-.117-7.107,2.306S282.187,461.105,282.449,461.193Z" transform="translate(-148.131 -27.167)" fill="#263238"/>
      <path id="Path_113" data-name="Path 113" d="M294.7,233.15c-.861-4.145,0-8.435.73-12.609s1.095-8.654-.671-12.507c-2.218-4.845-7.3-7.647-10.537-11.908s-4.261-9.748-5.531-14.944-3.065-10.639-7.195-14.054c-5.21-4.378-16.928-3.371-21.773,1.372,3.955,30.092,1.707,61.555,12.784,89.794a80.644,80.644,0,0,0,40.526-16.783C298.8,241.322,295.558,237.294,294.7,233.15Z" transform="translate(-163.151 -159.774)" fill="#263238"/>
      <path id="Path_114" data-name="Path 114" d="M247.474,259.553l-19.38-70.224a6.48,6.48,0,0,1,4.48-7.545l32.237-14.958c10.624-3.2,20.431,8.756,23.1,19.541,3.05,11.937,6.29,26.648,6.567,35.929.555,18.68-12.915,23.627-12.915,23.627l2.6,19.73-5.648,19.76L261.221,294.9Z" transform="translate(-173.15 -158.872)" fill="#ffbe9d"/>
      <path id="Path_115" data-name="Path 115" d="M267.4,190.6a2.364,2.364,0,0,1-1.795,2.773,2.262,2.262,0,0,1-2.787-1.634,2.364,2.364,0,0,1,1.8-2.773A2.247,2.247,0,0,1,267.4,190.6Z" transform="translate(-157.158 -148.498)" fill="#263238"/>
      <path id="Path_116" data-name="Path 116" d="M270.424,185.681c-.233.365-2.233-.613-4.743-.131s-4.1,2.072-4.378,1.824,0-.715.715-1.459a6.537,6.537,0,0,1,3.473-1.839,6.275,6.275,0,0,1,3.853.482C270.176,185.024,270.541,185.477,270.424,185.681Z" transform="translate(-157.879 -150.759)" fill="#263238"/>
      <path id="Path_117" data-name="Path 117" d="M251.757,193.734a2.379,2.379,0,0,1-1.795,2.773,2.262,2.262,0,0,1-2.787-1.649,2.364,2.364,0,0,1,1.795-2.773,2.262,2.262,0,0,1,2.787,1.649Z" transform="translate(-164.342 -147.064)" fill="#263238"/>
      <path id="Path_118" data-name="Path 118" d="M254.784,189.81c-.234.365-2.233-.613-4.743-.131s-4.1,2.087-4.378,1.824,0-.715.715-1.459a6.538,6.538,0,0,1,3.473-1.839,6.378,6.378,0,0,1,3.853.482C254.536,189.153,254.959,189.649,254.784,189.81Z" transform="translate(-165.063 -148.86)" fill="#263238"/>
      <path id="Path_119" data-name="Path 119" d="M261.308,207.3a16.856,16.856,0,0,1,3.926-1.459c.628-.19,1.211-.438,1.226-.89a3.284,3.284,0,0,0-.773-1.81l-2.817-4.509c-3.94-6.436-6.917-11.777-6.655-11.937s3.663,4.933,7.6,11.368l2.729,4.553a3.779,3.779,0,0,1,.8,2.452,1.605,1.605,0,0,1-.861,1.124,5.138,5.138,0,0,1-1.065.365,16.051,16.051,0,0,1-4.115.744Z" transform="translate(-160.175 -149.507)" fill="#263238"/>
      <path id="Path_120" data-name="Path 120" d="M272.749,221.487a46.889,46.889,0,0,1-25.509-1.9s8.537,11.777,26.37,6.655Z" transform="translate(-164.291 -134.393)" fill="#eb996e"/>
      <path id="Path_121" data-name="Path 121" d="M254.021,182.429c-.117.73-2.671.876-5.546,1.78s-5.093,2.16-5.6,1.62c-.219-.248.073-.978.9-1.81a9.487,9.487,0,0,1,3.94-2.277,9.719,9.719,0,0,1,4.553-.321C253.423,181.656,254.065,182.079,254.021,182.429Z" transform="translate(-166.329 -151.987)" fill="#e0e0e0"/>
      <path id="Path_122" data-name="Path 122" d="M268.861,180.6c-.336.642-2.174.379-4.247.744s-3.765,1.109-4.276.584c-.234-.248,0-.876.6-1.562a6.085,6.085,0,0,1,3.269-1.576,5.983,5.983,0,0,1,3.6.511C268.642,179.706,268.992,180.246,268.861,180.6Z" transform="translate(-158.315 -153.175)" fill="#263238"/>
      <path id="Path_123" data-name="Path 123" d="M274.338,168.084c-4.378-7.457-11.281-7.063-18.665-6.728s-17.658,5.239-22.985,10.361c-4.159,4-8.756,8.96-11.383,14.1s-3.152,10.215-4.378,15.6c-1.839,8.42-.248,17.147.671,25.714a163.447,163.447,0,0,1,.248,32.4c-.35,3.867-.613,8.464,4.67,9.807a10.945,10.945,0,0,0,3.006.277c7.837-.234,15.673,1.226,24.3.438l5.268-.861c6.684-1.065,9.354-6.173,8.2-11.923-3.473-17.381-16.053-44.817-17.862-50.187C245.413,207.077,236.467,168.813,274.338,168.084Z" transform="translate(-178.604 -161.21)" fill="#263238"/>
      <path id="Path_124" data-name="Path 124" d="M266.225,166.347a10.814,10.814,0,0,0-2.627,8.129c0,2.919.7,5.837.613,8.756A18.344,18.344,0,0,1,255.879,198c-1.576,1.007-3.867,1.678-5.152.321a10.215,10.215,0,0,1-4.568,10.507c-2.525,1.459-5.575,1.824-8.318,2.919s-5.4,3.517-5.093,6.45l-4.378-20.037,2.831-18.8L247.02,166.23Z" transform="translate(-172.958 -158.904)" fill="#263238"/>
      <path id="Path_125" data-name="Path 125" d="M236.73,205.872a11.88,11.88,0,0,0,1.459-1.62,12.4,12.4,0,0,0,1.941-5.531,43.226,43.226,0,0,0-.161-8.756,71.756,71.756,0,0,1-.467-10.858,20.635,20.635,0,0,1,3.24-10.318,12.128,12.128,0,0,1,3.386-3.357,11.587,11.587,0,0,1,3.824-1.605,9.5,9.5,0,0,1,5.91.438,7.6,7.6,0,0,1,.846.423,4.266,4.266,0,0,1,.569.379,2.92,2.92,0,0,1,.438.365A11.677,11.677,0,0,0,255.8,164.4a9.515,9.515,0,0,0-5.837-.336,11.675,11.675,0,0,0-6.99,4.918,20.432,20.432,0,0,0-3.152,10.215,73.416,73.416,0,0,0,.438,10.8,41.311,41.311,0,0,1,.088,8.873,12.258,12.258,0,0,1-2.087,5.589A6.523,6.523,0,0,1,236.73,205.872Z" transform="translate(-169.118 -160.136)" fill="#455a64"/>
      <path id="Path_126" data-name="Path 126" d="M226.05,206.81a9.939,9.939,0,0,0,2.568-1.08,14.141,14.141,0,0,0,4.8-5.837,26.97,26.97,0,0,0,1.839-4.933,20.87,20.87,0,0,0,.511-5.983c-.088-2.131-.35-4.378-.467-6.7a32.422,32.422,0,0,1,0-3.575,19.846,19.846,0,0,1,.613-3.648,18.972,18.972,0,0,1,8.26-10.974,17.877,17.877,0,0,1,10.989-2.525,18.388,18.388,0,0,1,7.3,2.2,13.369,13.369,0,0,1,2.335,1.576l-.161-.088-.452-.306a8.639,8.639,0,0,0-.744-.467c-.306-.175-.642-.394-1.051-.6a18.972,18.972,0,0,0-7.3-2.072,17.789,17.789,0,0,0-10.8,2.554,18.651,18.651,0,0,0-8.1,10.8,18.974,18.974,0,0,0-.6,3.561c-.073,1.2,0,2.379,0,3.532.117,2.32.379,4.568.452,6.713a20.431,20.431,0,0,1-.555,6.071,26.02,26.02,0,0,1-1.9,4.976,14,14,0,0,1-4.947,5.837,7.794,7.794,0,0,1-1.926.817l-.525.117C226.108,206.81,226.05,206.824,226.05,206.81Z" transform="translate(-174.024 -161.088)" fill="#455a64"/>
      <path id="Path_127" data-name="Path 127" d="M254.935,192.352a1.627,1.627,0,0,1,0,.175v2.5a11.426,11.426,0,0,1-.7,3.065,9.879,9.879,0,0,1-2.262,3.546,16.505,16.505,0,0,1-10.069,4.276,31.756,31.756,0,0,1-6.669,0,26.414,26.414,0,0,1-7.049-1.605l-.452-.19.467-.146a25.932,25.932,0,0,0,7.3-3.575l.117-.073.161.306a24.487,24.487,0,0,1-16.213-.306l-.35-.131.336-.161a30.5,30.5,0,0,0,8.6-6.231,15.308,15.308,0,0,0,3.838-7.3,15.512,15.512,0,0,0,0-5.414l-.336-1.459a.491.491,0,0,0-.088-.365c-.088-.088,0-.131,0-.131v.117l.1.365c.1.336.219.8.394,1.459a13.922,13.922,0,0,1-3.707,12.871,29.931,29.931,0,0,1-8.639,6.334v-.292a24.269,24.269,0,0,0,16.053.277l1.138-.379-.978.686-.117.088a26.267,26.267,0,0,1-7.3,3.619v-.321a26.093,26.093,0,0,0,6.961,1.591,30.045,30.045,0,0,0,6.582,0,16.359,16.359,0,0,0,9.953-4.13,9.953,9.953,0,0,0,2.262-3.444,12.391,12.391,0,0,0,.744-3.021,5.527,5.527,0,0,1,.073-1.138,7.863,7.863,0,0,0,0-.832v-.511a1.594,1.594,0,0,0-.146-.117Z" transform="translate(-177.166 -152.978)" fill="#455a64"/>
      <path id="Path_128" data-name="Path 128" d="M224.782,245c-.1,0-.642-10.522-1.226-23.51s-.963-23.525-.861-23.525.642,10.522,1.211,23.51S224.884,244.99,224.782,245Z" transform="translate(-175.573 -144.324)" fill="#455a64"/>
      <path id="Path_129" data-name="Path 129" d="M233.577,244.355a1.93,1.93,0,0,1-.131-.423c-.088-.321-.19-.73-.307-1.24-.277-1.065-.628-2.627-1.036-4.553-.846-3.867-1.883-9.238-2.817-15.192s-1.591-11.383-1.97-15.309c-.2-1.97-.336-3.561-.423-4.655v-1.27a2.653,2.653,0,0,1,0-.452,1.461,1.461,0,0,1,0,.438,11.5,11.5,0,0,0,.161,1.27c.117,1.138.306,2.714.525,4.641.438,3.926,1.138,9.34,2.072,15.294s1.926,11.31,2.7,15.177c.394,1.912.7,3.459.934,4.582.1.511.175.934.234,1.255a1.91,1.91,0,0,1,.058.438Z" transform="translate(-173.641 -142.813)" fill="#455a64"/>
      <path id="Path_130" data-name="Path 130" d="M263.673,203.955a3.678,3.678,0,0,0-1.372-.686h.088a3.546,3.546,0,0,0-4.028.5,3.707,3.707,0,0,0-1.109,2.247,3.824,3.824,0,0,0,.423,2.6A3.458,3.458,0,0,0,259.762,210a6.276,6.276,0,0,0,2.554,0,3.765,3.765,0,0,0,2.16-1.036,2.919,2.919,0,0,0,.657-1.81A3.955,3.955,0,0,0,263.673,203.955Z" transform="translate(-159.723 -142.079)" fill="#eb996e"/>
      <path id="Path_131" data-name="Path 131" d="M266.09,206.954V206.5a1.3,1.3,0,0,0-.6-.876,4.377,4.377,0,0,0-1.737-.248,7.3,7.3,0,0,0-2.233.336,18.271,18.271,0,0,0-3.926,1.561c-1.021.452-1.707.6-1.737.511a7.1,7.1,0,0,1,1.459-.992,13.427,13.427,0,0,1,3.984-1.824c.423-.1.788-.19,1.24-.263a8.389,8.389,0,0,1,1.2,0,4.1,4.1,0,0,1,2.028.511,1.46,1.46,0,0,1,.584,1.328C266.28,206.881,266.12,206.983,266.09,206.954Z" transform="translate(-160.331 -141.24)" fill="#263238"/>
      <path id="Path_132" data-name="Path 132" d="M282.72,291.909S300.6,289.282,305,291s26.677,12.477,29.187,17.133,8.318,12.974,9.063,17.133,1.459,16.637,1.459,16.637a5.837,5.837,0,0,1-5.633-5.619l-1.707,5.619s-4.655,1.226-5.385-1.956c0,0-2.7,3.429-3.911-4.378a82.557,82.557,0,0,1-1.226-10.215l-3.677-5.385,1.956,7.195-.978,10.916s-3.911,0-4.159-3.429a33.714,33.714,0,0,0-1.707-7.487l-4.9-7.691s-12.375-6.45-15.148-9.544a14.928,14.928,0,0,1-3.079-4.2L282.939,309.8Z" transform="translate(-147.993 -101.858)" fill="#ffbe9d"/>
      <path id="Path_133" data-name="Path 133" d="M335.388,342.172a4.379,4.379,0,0,1-2.306-.54,2.5,2.5,0,0,1-1.167-1.605,1.81,1.81,0,0,1-1.62.657c-1.051-.277-1.824-2-2.32-5.137a86.477,86.477,0,0,1-1.226-10.215l-3.546-5.2,1.912,6.976h0l-.992,10.96h0s-3.955,0-4.2-3.459a33.13,33.13,0,0,0-1.707-7.486l-4.889-7.676c-.379-.2-12.434-6.509-15.133-9.544a16.316,16.316,0,0,1-3.094-4.174L282.881,309.8h0l-.161-17.833h0c.175,0,17.935-2.6,22.3-.9,2.233.876,8.96,4.028,15.294,7.472,5.589,3.035,12.536,7.18,13.849,9.69.773,1.459,1.883,3.284,3.065,5.224,2.568,4.247,5.487,9.048,6,11.923.73,4.115,1.459,16.52,1.459,16.637h0a6.218,6.218,0,0,1-2.554-.7,6.1,6.1,0,0,1-3.109-4.816l-1.678,5.5h0A8.754,8.754,0,0,1,335.388,342.172Zm-3.444-2.306v.073a2.554,2.554,0,0,0,1.168,1.634,6.348,6.348,0,0,0,4.159.292l1.751-5.764v.16a5.837,5.837,0,0,0,5.56,5.6c0-.773-.773-12.609-1.459-16.607-.5-2.846-3.415-7.647-6-11.894-1.168-1.926-2.291-3.765-3.05-5.224s-3.707-4.174-13.82-9.661c-6.334-3.429-13.061-6.6-15.294-7.457-4.261-1.664-21.379.788-22.226.9l.161,17.731,12.186-4.072h0a15.846,15.846,0,0,0,3.079,4.174c2.729,3.065,15.017,9.486,15.133,9.544h0l4.9,7.676a34.613,34.613,0,0,1,1.722,7.516c.219,3.181,3.707,3.386,4.086,3.4l.978-10.887-2.014-7.4,3.794,5.575h0a83.931,83.931,0,0,0,1.226,10.215c.6,3.867,1.576,4.9,2.277,5.093h.263a1.985,1.985,0,0,0,1.313-.73Z" transform="translate(-147.993 -101.846)" fill="#eb996e"/>
      <rect id="Rectangle_21" data-name="Rectangle 21" width="5.093" height="17.439" transform="translate(141.878 188.563)" fill="#263238"/>
      <rect id="Rectangle_22" data-name="Rectangle 22" width="11.996" height="3.429" transform="translate(138.419 185.133)" fill="#455a64"/>
      <path id="Path_134" data-name="Path 134" d="M254.955,227.707s-5.837,2.817-5.837,7.428-.978,42.015-.978,42.015l21.088-11.85L265.8,240.491l22.81-13.981s4.378-7.778,3.955-10.215-4.933-7.18-7.151-6.932a5.122,5.122,0,0,0-3.429,2.2l-6.874,1.459s.5,4.378,3.444,4.174l1.956-.248-.248,1.707-3.429,2.466Z" transform="translate(-163.877 -139.095)" fill="#ffbe9d"/>
      <path id="Path_135" data-name="Path 135" d="M255.079,227.8l.365-.146,1.095-.365,4.261-1.357,16.053-4.976h-.073l3.429-2.466-.1.175c.073-.525.146-1.124.234-1.722l.292.306-1.9.248a2.758,2.758,0,0,1-2.043-.6,6.2,6.2,0,0,1-1.78-3.809v-.263h.277l6.874-1.459-.2.146a5.575,5.575,0,0,1,2.364-2.014,3.809,3.809,0,0,1,1.605-.35,3.591,3.591,0,0,1,1.576.511,14.271,14.271,0,0,1,4.6,4.466,8.426,8.426,0,0,1,.8,1.459,3.182,3.182,0,0,1,.233,1.766,14.332,14.332,0,0,1-.963,3.269,54.937,54.937,0,0,1-3.021,6.188v.073h0l-22.81,14,.175-.379c.117.788.234,1.634.35,2.481,1.065,7.705,2.1,15.192,3.079,22.343v.248l-.219.131L248.4,277.521l-.525.292v-.584c.423-15.5.773-28.457,1.007-37.607,0-1.138.073-2.218.1-3.24a10.8,10.8,0,0,1,.306-2.919,8.756,8.756,0,0,1,2.627-3.678,11.674,11.674,0,0,1,3.152-2.043l-.2.146-.6.365a14.909,14.909,0,0,0-2.218,1.693,8.552,8.552,0,0,0-2.466,3.619,10.378,10.378,0,0,0-.248,2.773q0,1.532,0,3.24c-.175,9.15-.423,22.124-.73,37.622l-.5-.306L269.177,265l-.19.379q-1.489-10.726-3.108-22.343c-.117-.846-.233-1.693-.336-2.481v-.248l.2-.131,22.824-13.966-.131.131a54.553,54.553,0,0,0,2.992-6.085,13.007,13.007,0,0,0,.919-3.079,4.058,4.058,0,0,0-.9-2.8,14.069,14.069,0,0,0-4.378-4.261,2.919,2.919,0,0,0-1.284-.423,3.035,3.035,0,0,0-1.313.277,5.239,5.239,0,0,0-2.1,1.751l-.073.117h-.117l-6.874,1.459.234-.321a5.589,5.589,0,0,0,1.547,3.444,2.16,2.16,0,0,0,1.62.467l1.9-.219h.35V217c-.088.613-.175,1.2-.248,1.722v.117h-.088l-3.444,2.437h0l-16.053,4.772-4.378,1.24-1.109.306Z" transform="translate(-164.001 -139.189)" fill="#eb996e"/>
      <path id="Path_136" data-name="Path 136" d="M272.606,222.621c-.073-.088.628-.715,1.649-1.81a8.886,8.886,0,0,0,1.459-2.1,5.531,5.531,0,0,0,.438-2.992,15.145,15.145,0,0,0-.584-3.094,1.78,1.78,0,0,0-1.78-1.182,8.422,8.422,0,0,1-1.824-.19c-.438-.146-.6-.35-.584-.379a1.745,1.745,0,0,1,.642.088,17.039,17.039,0,0,0,1.78,0,2.919,2.919,0,0,1,1.343.248,2.379,2.379,0,0,1,1.08,1.211,13.133,13.133,0,0,1,.686,3.3,5.925,5.925,0,0,1-.569,3.371,7.938,7.938,0,0,1-1.722,2.16,5.926,5.926,0,0,1-2.014,1.372Z" transform="translate(-153.202 -138.402)" fill="#eb996e"/>
      <path id="Path_137" data-name="Path 137" d="M285.833,337.948c-8.858-11.675-27.64-12.7-37.272-1.591a20.182,20.182,0,0,0-5.02,13.7c0,23.058,12.434,85.357,15.163,103.614,2.919,19.555,11.033,53.018,11.033,53.018l39.826-5.648s-14.944-117.069-16.8-130.787-4.7-25.495-4.7-25.495Z" transform="translate(-165.991 -84.328)" fill="#263238"/>
      <path id="Path_138" data-name="Path 138" d="M231.045,328.424c1.226-.817,56.915-21.54,66.663-23.569s18.811-3.138,29.727,6.99c13.339,12.346,37.651,160.222,37.651,160.222s-41.022,6.961-41.022,6.144-28.107-121.126-28.107-121.126l-49.428,31.639L219.02,347.863Z" transform="translate(-177.253 -95.847)" fill="#263238"/>
      <path id="Path_139" data-name="Path 139" d="M296.75,394.173a1.458,1.458,0,0,1-.1-.365,7.347,7.347,0,0,0-.2-1.109c-.16-1.036-.394-2.452-.686-4.261-.569-3.765-1.357-9.106-2.35-15.688a230.927,230.927,0,0,0-4.451-23.072,43.154,43.154,0,0,0-5.108-12.711,23.583,23.583,0,0,0-10.989-9.354,20.636,20.636,0,0,0-14.345,0A24.05,24.05,0,0,0,247.5,335.42a21.744,21.744,0,0,0-3.809,11.675c-.248,3.9-.088,7.589,0,10.916.409,6.655,1.357,12.025,1.634,15.761.161,1.868.233,3.327.263,4.305V379.2a1.606,1.606,0,0,1,0,.394,1.607,1.607,0,0,1,0-.394,5.533,5.533,0,0,0-.088-1.124c-.073-.978-.19-2.437-.394-4.29-.365-3.721-1.459-9.048-1.883-15.761a108.531,108.531,0,0,1-.1-10.989A22.255,22.255,0,0,1,247,335.055a24.532,24.532,0,0,1,11.325-8.085,21.364,21.364,0,0,1,14.871,0,24.371,24.371,0,0,1,11.339,9.675,43.518,43.518,0,0,1,5.152,12.871c2.116,8.625,3.342,16.52,4.305,23.145s1.591,11.952,2.1,15.732c.233,1.81.423,3.24.555,4.276a9.235,9.235,0,0,0,.117,1.124A1.456,1.456,0,0,1,296.75,394.173Z" transform="translate(-166.226 -85.681)" fill="#455a64"/>
      <path id="Path_140" data-name="Path 140" d="M277.221,309.91a2.814,2.814,0,0,1-.642.321l-1.926.788c-1.664.686-4.1,1.62-7.122,2.773-6.012,2.291-14.389,5.356-23.612,8.756s-17.512,6.523-23.554,8.917l-7.078,2.846-1.926.773a2.733,2.733,0,0,1-.7.219,5.688,5.688,0,0,1,.628-.365l1.883-.89c1.634-.773,4.013-1.839,6.99-3.079,5.94-2.525,14.243-5.75,23.5-9.136s17.629-6.363,23.7-8.537l7.195-2.539,1.97-.657a2.188,2.188,0,0,1,.7-.19Z" transform="translate(-181.094 -92.905)" fill="#455a64"/>
    </g>
  </g>
</svg>
